<?xml version="1.0" encoding="utf-8"?>
<!-- Generator: Adobe Illustrator 14.0.0, SVG Export Plug-In . SVG Version: 6.00 Build 43363)  -->
<!DOCTYPE svg PUBLIC "-//W3C//DTD SVG 1.1//EN" "http://www.w3.org/Graphics/SVG/1.1/DTD/svg11.dtd">
<svg version="1.1" id="Warstwa_1" xmlns="http://www.w3.org/2000/svg" xmlns:xlink="http://www.w3.org/1999/xlink" x="0px" y="0px"
	 width="25.985px" height="19.988px" viewBox="0 0 25.985 19.988" enable-background="new 0 0 25.985 19.988" xml:space="preserve">
<path d="M22.573,14.047H7.036L3.304,1.317H0.692C0.31,1.317,0,1.022,0,0.659C0,0.294,0.31,0,0.692,0h3.662l3.731,12.729h13.438
	l2.639-9.003H6.933c-0.382,0-0.692-0.295-0.692-0.659s0.31-0.658,0.692-0.658h19.052L22.573,14.047z"/>
<path d="M21.058,17.093H7.928L3.163,0.835c-0.103-0.35,0.112-0.714,0.48-0.811C4.01-0.072,4.393,0.131,4.495,0.481l4.483,15.295
	h12.08c0.382,0,0.692,0.294,0.692,0.659S21.44,17.093,21.058,17.093z"/>
<path d="M8.454,19.988c-1.22,0-2.213-0.945-2.213-2.106c0-1.162,0.993-2.106,2.213-2.106c1.219,0,2.211,0.945,2.211,2.106
	C10.665,19.043,9.673,19.988,8.454,19.988z M8.454,17.093c-0.458,0-0.829,0.354-0.829,0.789c0,0.435,0.372,0.789,0.829,0.789
	c0.457,0,0.828-0.354,0.828-0.789C9.282,17.447,8.91,17.093,8.454,17.093z"/>
<path d="M21.058,19.988c-1.219,0-2.212-0.945-2.212-2.106c0-1.162,0.993-2.106,2.212-2.106s2.212,0.945,2.212,2.106
	C23.27,19.043,22.277,19.988,21.058,19.988z M21.058,17.093c-0.457,0-0.828,0.354-0.828,0.789c0,0.435,0.372,0.789,0.828,0.789
	s0.828-0.354,0.828-0.789C21.886,17.447,21.515,17.093,21.058,17.093z"/>
</svg>
