<?xml version="1.0" encoding="utf-8"?>
<!-- Generator: Adobe Illustrator 14.0.0, SVG Export Plug-In  -->
<!DOCTYPE svg PUBLIC "-//W3C//DTD SVG 1.1//EN" "http://www.w3.org/Graphics/SVG/1.1/DTD/svg11.dtd" [
	<!ENTITY ns_flows "http://ns.adobe.com/Flows/1.0/">
]>
<svg version="1.1"
	 xmlns="http://www.w3.org/2000/svg" xmlns:xlink="http://www.w3.org/1999/xlink" xmlns:a="http://ns.adobe.com/AdobeSVGViewerExtensions/3.0/"
	 x="0px" y="0px" width="25px" height="58px" viewBox="0 0 25 58" enable-background="new 0 0 25 58" xml:space="preserve">
<defs>
</defs>
<path fill="#E10E1A" d="M20.459,16.623H4.051c-0.001,0-0.001,0-0.002,0c-1.098,0-2.123,0.428-2.883,1.205
	C0.414,18.596,0,19.621,0,20.714v15.913c0,2.256,1.816,4.09,4.05,4.09h0.115v13.292c0,2.256,1.817,4.091,4.05,4.091h8.079
	c2.234,0,4.05-1.834,4.05-4.091V40.667h0.115c2.234,0,4.05-1.835,4.05-4.092V20.714C24.51,18.458,22.693,16.623,20.459,16.623z
	 M22.43,36.575c0,1.098-0.884,1.991-1.971,1.991h-2.194v15.442c0,1.099-0.884,1.991-1.971,1.991H8.216
	c-1.087,0-1.971-0.893-1.971-1.991V38.618H4.05c-1.087,0-1.971-0.893-1.971-1.991V20.714c0-0.537,0.201-1.038,0.565-1.41
	c0.367-0.375,0.866-0.581,1.405-0.581H4.05h16.409c1.087,0,1.971,0.894,1.971,1.991V36.575z"/>
<path fill="#E10E1A" d="M12.23,16.188c4.419,0,8.015-3.631,8.015-8.094C20.245,3.631,16.649,0,12.23,0
	C7.811,0,4.215,3.631,4.215,8.095C4.215,12.558,7.811,16.188,12.23,16.188z M12.23,2.1c3.272,0,5.935,2.689,5.935,5.995
	c0,3.305-2.663,5.994-5.935,5.994c-3.273,0-5.936-2.689-5.936-5.994C6.295,4.789,8.958,2.1,12.23,2.1z"/>
</svg>
