<?xml version="1.0" encoding="UTF-8" standalone="no"?>
<!-- Generator: Adobe Illustrator 14.0.0, SVG Export Plug-In . SVG Version: 6.00 Build 43363)  -->

<svg
   xmlns:dc="http://purl.org/dc/elements/1.1/"
   xmlns:cc="http://creativecommons.org/ns#"
   xmlns:rdf="http://www.w3.org/1999/02/22-rdf-syntax-ns#"
   xmlns:svg="http://www.w3.org/2000/svg"
   xmlns="http://www.w3.org/2000/svg"
   xmlns:sodipodi="http://sodipodi.sourceforge.net/DTD/sodipodi-0.dtd"
   xmlns:inkscape="http://www.inkscape.org/namespaces/inkscape"
   version="1.1"
   id="Warstwa_1"
   x="0px"
   y="0px"
   width="28.729px"
   height="28.864px"
   viewBox="0 0 28.729 28.864"
   enable-background="new 0 0 28.729 28.864"
   xml:space="preserve"
   sodipodi:docname="icon-popup-close_nothover.svg"
   inkscape:version="0.92.1 r15371"><metadata
     id="metadata27"><rdf:RDF><cc:Work
         rdf:about=""><dc:format>image/svg+xml</dc:format><dc:type
           rdf:resource="http://purl.org/dc/dcmitype/StillImage" /></cc:Work></rdf:RDF></metadata><defs
     id="defs25" /><sodipodi:namedview
     pagecolor="#ffffff"
     bordercolor="#666666"
     borderopacity="1"
     objecttolerance="10"
     gridtolerance="10"
     guidetolerance="10"
     inkscape:pageopacity="0"
     inkscape:pageshadow="2"
     inkscape:window-width="1472"
     inkscape:window-height="637"
     id="namedview23"
     showgrid="false"
     inkscape:zoom="8.1762749"
     inkscape:cx="-5.5100764"
     inkscape:cy="14.432"
     inkscape:window-x="1978"
     inkscape:window-y="86"
     inkscape:window-maximized="1"
     inkscape:current-layer="Warstwa_1" /><path
     fill="#C6C6C6"
     d="M16.465,14.432L28.293,2.549c0.581-0.583,0.581-1.529,0-2.111c-0.58-0.583-1.521-0.583-2.101,0  L14.364,12.321L2.537,0.438c-0.581-0.583-1.521-0.583-2.102,0c-0.58,0.582-0.58,1.528,0,2.111l11.828,11.883L0.435,26.315  c-0.58,0.583-0.58,1.528,0,2.111c0.291,0.292,0.671,0.438,1.051,0.438c0.38,0,0.761-0.146,1.051-0.438l11.828-11.883l11.828,11.883  c0.29,0.292,0.67,0.438,1.051,0.438c0.38,0,0.76-0.146,1.05-0.438c0.581-0.583,0.581-1.528,0-2.111L16.465,14.432z"
     id="path20"
     style="fill-opacity:1;fill:#000000" /></svg>