<?xml version="1.0" encoding="utf-8"?>
<!-- Generator: Adobe Illustrator 21.0.1, SVG Export Plug-In . SVG Version: 6.00 Build 0)  -->
<svg version="1.1" id="Layer_1" xmlns="http://www.w3.org/2000/svg" xmlns:xlink="http://www.w3.org/1999/xlink" x="0px" y="0px"
	 viewBox="0 0 15 18" style="enable-background:new 0 0 15 18;" xml:space="preserve">
<style type="text/css">
	.st0{fill:#2DC000;}
</style>
<g>
	<path class="st0" d="M14.6,8.5c-0.2-0.2-0.5-0.4-0.9-0.4h-0.4V5.7c0-1.6-0.6-2.9-1.8-4.1c-1.1-1-2.5-1.6-4-1.7
		c-1.6,0-3,0.5-4.2,1.7C2.7,2.4,2.2,3.1,2,3.9C1.7,4.7,2.3,5.4,3.1,5.4h0.2c0.5,0,0.9-0.3,1.1-0.8c0.2-0.4,0.4-0.8,0.8-1.2
		c0.6-0.6,1.5-1,2.4-1c0.8,0,1.6,0.3,2.2,0.8c0.7,0.7,1.1,1.6,1.1,2.6l0,2.3H5v0H1.7H1.2c-0.3,0-0.6,0.1-0.9,0.4
		C0.1,8.8,0,9.1,0,9.4v7.4c0,0.3,0.1,0.6,0.4,0.9C0.6,17.9,0.9,18,1.2,18h12.5c0.3,0,0.6-0.1,0.9-0.4c0.2-0.2,0.4-0.5,0.4-0.9V9.4
		C15,9.1,14.9,8.8,14.6,8.5z"/>
</g>
</svg>
