<?xml version="1.0" encoding="utf-8"?>
<!-- Generator: Adobe Illustrator 14.0.0, SVG Export Plug-In  -->
<!DOCTYPE svg PUBLIC "-//W3C//DTD SVG 1.1//EN" "http://www.w3.org/Graphics/SVG/1.1/DTD/svg11.dtd" [
	<!ENTITY ns_flows "http://ns.adobe.com/Flows/1.0/">
]>
<svg version="1.1"
	 xmlns="http://www.w3.org/2000/svg" xmlns:xlink="http://www.w3.org/1999/xlink" xmlns:a="http://ns.adobe.com/AdobeSVGViewerExtensions/3.0/"
	 x="0px" y="0px" width="33px" height="58px" viewBox="0 0 33 58" enable-background="new 0 0 33 58" xml:space="preserve">
<defs>
</defs>
<path fill="#E10E1A" d="M29.767,0H3.135C1.406,0,0,1.413,0,3.149V57.05C0,57.629,0.468,58.1,1.045,58.1h30.812
	c0.577,0,1.045-0.471,1.045-1.049V3.149C32.901,1.413,31.495,0,29.767,0z M3.135,2.1h26.632c0.576,0,1.045,0.471,1.045,1.05v7.027
	h-4.727V8.683c0-1.515-1.342-2.746-2.993-2.746H9.809c-1.649,0-2.992,1.231-2.992,2.746v1.494H2.09V3.149
	C2.09,2.571,2.559,2.1,3.135,2.1z M23.995,8.683V51.86H8.906V8.683c0-0.306,0.371-0.646,0.902-0.646h13.284
	C23.625,8.036,23.995,8.377,23.995,8.683z M2.09,56V12.276h4.727V52.91c0,0.58,0.468,1.05,1.045,1.05H25.04
	c0.577,0,1.045-0.47,1.045-1.05V12.276h4.727V56H2.09z"/>
</svg>
