<?xml version="1.0" encoding="utf-8"?>
<!-- Generator: Adobe Illustrator 14.0.0, SVG Export Plug-In  -->
<!DOCTYPE svg PUBLIC "-//W3C//DTD SVG 1.1//EN" "http://www.w3.org/Graphics/SVG/1.1/DTD/svg11.dtd" [
	<!ENTITY ns_flows "http://ns.adobe.com/Flows/1.0/">
]>
<svg version="1.1"
	 xmlns="http://www.w3.org/2000/svg" xmlns:xlink="http://www.w3.org/1999/xlink" xmlns:a="http://ns.adobe.com/AdobeSVGViewerExtensions/3.0/"
	 x="0px" y="0px" width="16px" height="16px" viewBox="0 0 16 16" enable-background="new 0 0 16 16" xml:space="preserve">
<defs>
</defs>
<path fill="#E10E1A" d="M9.894,10.909c-0.42,0-0.761,0.326-0.761,0.728v1.455c0,0.802-0.683,1.454-1.522,1.454H3.044
	c-0.839,0-1.522-0.652-1.522-1.454V2.909c0-0.802,0.683-1.454,1.522-1.454h4.566c0.839,0,1.522,0.652,1.522,1.454v1.455
	c0,0.402,0.34,0.727,0.761,0.727c0.421,0,0.761-0.326,0.761-0.727V2.909C10.655,1.305,9.29,0,7.611,0H3.044C1.365,0,0,1.305,0,2.909
	v10.182C0,14.695,1.365,16,3.044,16h4.566c1.679,0,3.044-1.305,3.044-2.909v-1.455C10.655,11.235,10.315,10.909,9.894,10.909z"/>
<path fill="#E10E1A" d="M15.924,8.278c0.077-0.178,0.077-0.378,0-0.555c-0.039-0.089-0.094-0.17-0.165-0.237l-2.69-2.571
	c-0.298-0.284-0.779-0.284-1.077,0c-0.297,0.284-0.297,0.744,0,1.028l1.392,1.33H7.611C7.19,7.273,6.85,7.598,6.85,8
	s0.34,0.727,0.761,0.727h5.774l-1.392,1.33c-0.297,0.284-0.297,0.745,0,1.028c0.149,0.142,0.343,0.213,0.539,0.213
	c0.194,0,0.389-0.071,0.538-0.213l2.69-2.571C15.83,8.448,15.886,8.367,15.924,8.278z"/>
</svg>
