<?xml version="1.0" encoding="utf-8"?>
<!-- Generator: Adobe Illustrator 14.0.0, SVG Export Plug-In . SVG Version: 6.00 Build 43363)  -->
<!DOCTYPE svg PUBLIC "-//W3C//DTD SVG 1.1//EN" "http://www.w3.org/Graphics/SVG/1.1/DTD/svg11.dtd">
<svg version="1.1" id="Warstwa_1" xmlns="http://www.w3.org/2000/svg" xmlns:xlink="http://www.w3.org/1999/xlink" x="0px" y="0px"
	 width="16.002px" height="17.999px" viewBox="0 0 16.002 17.999" enable-background="new 0 0 16.002 17.999" xml:space="preserve">
<path fill="#E10E1A" d="M14.21,1.813c0.5,0,0.923,0.176,1.271,0.526c0.347,0.353,0.521,0.78,0.521,1.286v12.561
	c0,0.506-0.174,0.935-0.521,1.286c-0.348,0.351-0.771,0.527-1.271,0.527H1.792c-0.5,0-0.924-0.176-1.271-0.527
	C0.173,17.121,0,16.691,0,16.186V3.625c0-0.505,0.173-0.933,0.521-1.286c0.347-0.351,0.771-0.526,1.271-0.526h0.875V0.906
	C2.667,0.406,3.068,0,3.563,0l0,0c0.495,0,0.896,0.406,0.896,0.906v0.906h7.084V0.906c0-0.5,0.401-0.906,0.896-0.906l0,0
	c0.495,0,0.896,0.406,0.896,0.906v0.906H14.21z M14.21,16.186V6.322H1.792v9.863H14.21z M3.542,8.093h4.459v4.51H3.542V8.093z"/>
</svg>
