<?xml version="1.0" encoding="utf-8"?>
<!-- Generator: Adobe Illustrator 14.0.0, SVG Export Plug-In  -->
<!DOCTYPE svg PUBLIC "-//W3C//DTD SVG 1.1//EN" "http://www.w3.org/Graphics/SVG/1.1/DTD/svg11.dtd" [
	<!ENTITY ns_flows "http://ns.adobe.com/Flows/1.0/">
]>
<svg version="1.1"
	 xmlns="http://www.w3.org/2000/svg" xmlns:xlink="http://www.w3.org/1999/xlink" xmlns:a="http://ns.adobe.com/AdobeSVGViewerExtensions/3.0/"
	 x="0px" y="0px" width="83px" height="58px" viewBox="0 0 83 58" enable-background="new 0 0 83 58" xml:space="preserve">
<defs>
</defs>
<path fill="#E10E1A" d="M59.712,44.441H7.87c-2.083,0-3.778-1.696-3.778-3.782V3.781C4.093,1.696,5.788,0,7.87,0h60.028
	c2.083,0,3.777,1.696,3.777,3.781V18.01h-2.097V3.781c0-0.927-0.754-1.682-1.68-1.682H7.87c-0.926,0-1.68,0.755-1.68,1.682v36.878
	c0,0.928,0.754,1.683,1.68,1.683h51.842V44.441z"/>
<path fill="#E10E1A" d="M59.712,52.637H7.87c-4.34,0-7.87-3.097-7.87-6.903c0-1.871,1.694-3.392,3.777-3.392h55.935v2.1H3.777
	c-0.911,0-1.68,0.592-1.68,1.292c0,2.648,2.589,4.803,5.773,4.803h51.842V52.637z"/>
<path fill="#E10E1A" d="M80.142,58.1H61.111c-1.349,0-2.447-1.099-2.447-2.45V18.84c0-1.351,1.098-2.45,2.447-2.45h19.031
	c1.35,0,2.447,1.099,2.447,2.45v36.81C82.589,57.001,81.491,58.1,80.142,58.1z M61.111,18.49c-0.19,0-0.35,0.16-0.35,0.35v36.81
	c0,0.19,0.16,0.35,0.35,0.35h19.031c0.19,0,0.35-0.16,0.35-0.35V18.84c0-0.19-0.16-0.35-0.35-0.35H61.111z"/>
<path fill="#E10E1A" d="M81.54,23.954H59.712v-2.101H81.54V23.954z"/>
<path fill="#E10E1A" d="M81.54,52.637H59.712v-2.1H81.54V52.637z"/>
</svg>
