<?xml version="1.0" encoding="utf-8"?>
<!-- Generator: Adobe Illustrator 14.0.0, SVG Export Plug-In . SVG Version: 6.00 Build 43363)  -->
<!DOCTYPE svg PUBLIC "-//W3C//DTD SVG 1.1//EN" "http://www.w3.org/Graphics/SVG/1.1/DTD/svg11.dtd">
<svg version="1.1" id="Warstwa_1" xmlns="http://www.w3.org/2000/svg" xmlns:xlink="http://www.w3.org/1999/xlink" x="0px" y="0px"
	 width="39.736px" height="39.019px" viewBox="0 0 39.736 39.019" enable-background="new 0 0 39.736 39.019" xml:space="preserve">
<path fill="#FFFFFF" d="M38.997,34.792l-8.656-8.501c2.061-2.742,3.295-6.116,3.295-9.777C33.636,7.408,26.091,0,16.818,0
	C7.544,0,0,7.408,0,16.514c0,9.105,7.544,16.514,16.818,16.514c3.728,0,7.165-1.212,9.957-3.236l8.657,8.501
	c0.492,0.483,1.138,0.726,1.783,0.726s1.291-0.242,1.783-0.726C39.982,37.327,39.982,35.759,38.997,34.792z M5.043,16.514
	c0-6.375,5.282-11.563,11.775-11.563c6.492,0,11.774,5.187,11.774,11.563c0,6.375-5.282,11.562-11.774,11.562
	C10.325,28.076,5.043,22.889,5.043,16.514z"/>
</svg>
