<?xml version="1.0" encoding="utf-8"?>
<!-- Generator: Adobe Illustrator 14.0.0, SVG Export Plug-In  -->
<!DOCTYPE svg PUBLIC "-//W3C//DTD SVG 1.1//EN" "http://www.w3.org/Graphics/SVG/1.1/DTD/svg11.dtd" [
	<!ENTITY ns_flows "http://ns.adobe.com/Flows/1.0/">
]>
<svg version="1.1"
	 xmlns="http://www.w3.org/2000/svg" xmlns:xlink="http://www.w3.org/1999/xlink" xmlns:a="http://ns.adobe.com/AdobeSVGViewerExtensions/3.0/"
	 x="0px" y="0px" width="61px" height="58px" viewBox="0 0 61 58" enable-background="new 0 0 61 58" xml:space="preserve">
<defs>
</defs>
<path fill="#E10E1A" d="M32.2,34.8c0,1-0.8,1.7-1.8,1.7c-1,0-1.8-0.8-1.8-1.7c0-1,0.8-1.7,1.8-1.7S32.2,33.8,32.2,34.8z"/>
<path fill="#E10E1A" d="M48.9,23.2c0,1-0.8,1.7-1.8,1.7c-1,0-1.8-0.8-1.8-1.7c0-1,0.8-1.7,1.8-1.7S48.9,22.3,48.9,23.2z"/>
<path fill="#E10E1A" d="M25.9,16.1c0,1-0.8,1.7-1.8,1.7c-1,0-1.8-0.8-1.8-1.7c0-1,0.8-1.7,1.8-1.7S25.9,15.2,25.9,16.1z"/>
<path fill="#E10E1A" d="M8.1,20.6c0,1-0.8,1.7-1.8,1.7c-1,0-1.8-0.8-1.8-1.7c0-1,0.8-1.7,1.8-1.7S8.1,19.6,8.1,20.6z"/>
<path fill="#E10E1A" d="M46.4,38.9c0,1-0.8,1.7-1.8,1.7c-1,0-1.8-0.8-1.8-1.7c0-1,0.8-1.7,1.8-1.7S46.4,37.9,46.4,38.9z"/>
<path fill="#E10E1A" d="M35.5,51.4c-0.2,0-0.3-0.1-0.4-0.2c-0.1,0-0.1-0.1-0.2-0.1h0c-0.1,0.1-0.3,0.1-0.4,0.1
		c-0.4,0-0.5-0.4-0.6-0.6v0c-0.1-0.4-0.4-0.5-0.5-0.5c0,0-0.1,0-0.1,0c-0.1,0-0.2,0.1-0.2,0.1c-0.3,0.3-0.7,0.4-1.1,0.4
		c-0.3,0-0.6-0.1-0.8-0.2c0,0,0,0-0.1,0c-0.1,0-0.2,0-0.2,0.1c-0.3,0.2-0.6,0.3-0.9,0.3c-0.1,0-0.2,0-0.3,0c0,0-0.1,0-0.1,0
		c-0.1,0-0.2,0-0.3,0.1c0,0-0.1,0-0.1,0c-0.1,0-0.2,0-0.3,0.1c-0.5,0.3-0.9,0.3-1.3-0.1c-0.2-0.2-0.3-0.3-0.5-0.3
		c-0.7-0.1-0.8-0.6-0.9-1c-0.1-0.2,0-0.4,0.1-0.5c0,0,0-0.1,0-0.1c0-0.1,0.1-0.2,0.1-0.3c0-0.1,0.1-0.2,0.1-0.3
		c-0.1-0.5-0.2-1-0.3-1.4c0-0.1-0.1-0.2-0.1-0.4c0,0,0-0.1,0-0.1c-0.5-0.1-0.7-0.5-0.8-0.8c0,0,0-0.1-0.1-0.1
		c-0.1-0.3-0.4-0.4-0.7-0.4c-0.4,0-0.7-0.2-0.9-0.5c-0.2-0.2-0.5-0.4-0.8-0.4c-0.3,0-0.7-0.1-0.8-0.3c-0.1-0.2-0.1-0.4-0.1-0.6
		l-0.5-0.5c-0.1,0-0.1,0-0.2-0.1c-0.2-0.1-0.4-0.2-0.7-0.3c-0.1,0-0.2-0.1-0.2-0.1c0,0-0.1,0-0.2,0.2c-0.1,0.1-0.2,0.2-0.3,0.3
		c0,0-0.1,0.1-0.1,0.1l-0.1,0.1l-0.1-0.1c0,0-0.1-0.1-0.1-0.1c-0.1-0.1-0.2-0.2-0.3-0.3c-0.5-1-1-2-0.6-3.2c0.1-0.4,0.1-0.8,0.1-1.2
		c0-0.3,0-0.6,0.1-0.9c0,0,0-0.1,0-0.1c0.1-0.4,0.1-0.9,0.7-1.2c0.2-0.1,0.5-0.4,0.7-0.7c0.1-0.1,0.1-0.3,0.1-0.5c0-0.1,0-0.1,0-0.2
		c0,0,0,0,0-0.1c0-0.1-0.1-0.1,0-0.2c0.1-0.4-0.1-0.6-0.6-0.8c-0.1,0-0.2-0.2-0.2-0.3c0,0,0-0.1-0.1-0.1c0,0-0.1-0.1-0.1-0.1
		c0-0.1-0.1-0.2-0.2-0.2c0,0,0,0-0.1,0c-0.5,0-0.8-0.3-0.9-0.8c-0.1-0.3-0.1-0.6-0.2-1c0-0.1,0-0.2-0.1-0.3
		c-0.3,0.2-0.7,0.2-1.1,0.2c-0.3,0-0.7-0.1-1-0.1c-0.2,0-0.4-0.1-0.7-0.1c-0.1,0-0.3,0-0.4,0c-0.5,0-0.9,0.1-1.3,0.4
		c-0.1,0.1-0.3,0.1-0.4,0.1s-0.3,0-0.4-0.1c-0.2-0.1-0.3-0.4-0.3-0.6c0-0.2,0-0.2,0-0.2c0,0-0.1,0-0.1,0c0,0-0.1,0-0.1,0
		c-0.2,0-0.3,0.1-0.5,0.1c-0.5,0-0.9-0.2-1.3-0.6c0,0-0.1-0.1-0.2-0.1c-0.5-0.1-0.9-0.5-1.2-0.8c-0.1-0.1-0.2-0.2-0.2-0.2
		c-0.2-0.2-0.6-0.3-0.9-0.4c-0.9-0.1-1.2-0.6-1.3-1c0-0.1,0-0.1-0.1-0.2c0,0,0,0,0-0.1c-0.1-0.2-0.2-0.2-0.2-0.2
		c-0.1,0-0.1,0-0.2,0.1C5.5,27,5.3,27,5.2,27.1c0,0-0.1,0-0.1,0l-0.2,0.1l-0.4-1.5c0,0,0,0,0,0c-0.1,0.1-0.2,0.1-0.3,0.2
		c0,0-0.1,0-0.1,0.1l-0.3,0.2l0.1-0.4c0,0,0-0.1,0-0.1c0-0.1,0-0.3,0.1-0.4C4,25.1,4,25,4.1,24.9l0,0c0.4-0.6,0.4-1.2,0.1-2.1
		c0,0,0-0.1,0-0.1c0-0.1-0.1-0.2-0.1-0.3c0.1-0.4-0.1-0.9-0.2-1.3c0,0.1,0,0.3,0,0.4c0,0.5-0.1,1-0.2,1.5c0,0.3-0.1,0.5-0.1,0.8
		c-0.1,0.4-0.2,0.8-0.3,1.2C3.1,25.2,3,25.4,3,25.6v0c0,0.1-0.1,0.2-0.1,0.3c-0.1,0.1-0.2,0.2-0.2,0.3c-0.1,0.1-0.2,0.2-0.3,0.3
		c-0.1,0.2-0.3,0.3-0.4,0.3c-0.1,0-0.2,0-0.3-0.1c-0.1-0.2-0.1-0.5-0.1-0.6c0.1-0.3,0.3-0.6,0.4-0.9c0.3-0.6,0.6-1.2,0.7-1.8
		c0.2-0.6,0.2-1.3,0.3-2c0-0.3,0.1-0.6,0.1-1c0.1-0.5,0-1-0.1-1.5c0-0.3-0.1-0.5-0.1-0.8c0-0.1,0-0.2,0-0.3C2.8,17,2.7,16.1,3,15.2
		c0.1-0.4,0.1-0.9,0.1-1.4c0-0.2,0-0.4,0-0.7C3,13.1,3,13,3,13v-0.3l0.2,0c0.1,0,0.2,0,0.3,0c0.2,0,0.4-0.1,0.5-0.1
		c0.1,0,0.2,0,0.2,0c0.2,0,0.3,0,0.3-0.1c0.1-0.1,0.1-0.2,0.1-0.3c-0.1-0.7,0.3-1.1,0.7-1.5c0,0,0.1-0.1,0.1-0.1
		c0.4-0.4,0.8-0.6,1.4-0.8c0.3-0.1,0.6-0.3,0.9-0.5C7.9,9.2,8.1,9.1,8.2,9h0c0.2-0.1,0.4-0.3,0.6-0.3c0,0,0.1,0,0.1,0
		c0.1,0,0.2,0.1,0.3,0.1c0.3,0,0.6-0.2,1-0.3c0.1,0,0.1-0.1,0.2-0.1c0.2-0.1,0.4-0.2,0.6-0.3C11.2,8,11.4,8,11.6,7.9
		c0.3-0.1,0.6-0.3,0.9-0.5c0.3-0.2,0.7-0.3,1.2-0.3c0.4,0,0.7,0.1,0.9,0.2c0.2,0.1,0.4,0.2,0.6,0.2c0.3,0,0.6,0,0.9,0
		c0.2,0,0.4,0,0.7,0c0.2,0,0.4,0,0.6,0c0.5,0,1.2,0.1,1.6,0.7c0,0,0.1,0.1,0.2,0.1c0.3,0,0.6-0.1,0.9-0.2c0.2-0.1,0.3-0.2,0.5-0.3
		c0.1-0.1,0.2-0.1,0.3-0.2c0.1-0.1,0.3-0.2,0.5-0.3c0.1,0,0.1,0,0.2,0c0.1,0,0.4,0,0.4,0.2c0.1,0.2,0.2,0.3,0.3,0.5
		c0.1,0.1,0.1,0.3,0.2,0.4c0.2,0.3,0.3,0.6,0.6,0.8c0,0,0,0,0.1,0c0.2,0,0.4-0.2,0.4-0.2c0.1-0.8,0.7-0.9,1.1-0.9c0.1,0,0.1,0,0.2,0
		c0,0,0.1,0,0.1,0c0.3,0,0.5,0.1,0.8,0.2c0.1,0,0.2,0.1,0.3,0.1c0.2,0.1,0.3,0.1,0.5,0.2c0.1,0.1,0.2,0.1,0.4,0.2
		c0.3,0.1,0.5,0.1,0.7-0.2c0.1-0.2,0.4-0.2,0.5-0.2c0.1,0,0.3,0,0.5,0c0.1,0,0.2,0,0.4,0c0,0,0.1,0,0.1,0c0.2,0,0.4,0,0.5,0.2
		c0.1,0.1,0.1,0.1,0.1,0.2c1.2-0.2,2.1,0.1,2.9,0.9C32.6,9.9,32.8,10,33,10c0.2,0,0.3-0.1,0.5-0.2c0.3-0.2,0.7-0.4,1-0.5
		c0.1,0,0.2-0.1,0.3-0.1c0.3,0,0.5,0.2,0.7,0.4l0,0c0.2,0.2,0.4,0.3,0.6,0.3c0.3,0,0.6-0.2,0.8-0.6C36.9,9.2,37,9,37.1,9
		c0.4-0.4,0.8-0.8,1.2-1.1c0.1-0.1,0.3-0.2,0.4-0.2l0.1,0c0.4-0.1,0.7-0.2,0.9-0.6c0.1-0.2,0.3-0.3,0.5-0.3c0,0,0,0,0.1,0
		c0.2,0,0.4,0.3,0.5,0.5c0.2,0.5,0.3,1,0.5,1.5c0.1,0.2,0.1,0.4,0.2,0.7c0,0,0,0,0,0.1s0,0.1,0,0.1c0.5,0.2,0.5,0.6,0.6,0.9
		c0,0.1,0,0.1,0,0.2c0.1,0.5,0.6,0.7,1,0.7c0.5,0.1,1,0.1,1.5,0.2c0.4,0.1,0.7,0.1,1.1,0.2c0.1,0,0.2,0,0.4-0.1
		c0.1-0.1,0.2-0.1,0.4-0.1c0.1,0,0.3,0.1,0.4,0.2c0.1,0.1,0.2,0.1,0.3,0.1c0.2,0,0.3,0,0.4,0c0.6,0,0.6,0.3,0.7,0.9
		c0,0.1,0.1,0.2,0.2,0.4c0.3,0.3,0.6,0.6,1,0.9c0.3,0.2,0.6,0.4,0.9,0.6c0.3,0.2,0.5,0.4,0.8,0.5c0.2,0.1,0.3,0.3,0.5,0.4
		c0.1,0.1,0.2,0.2,0.2,0.2c0.1,0.1,0.2,0.1,0.2,0.2c0.2,0.2,0.4,0.3,0.6,0.4c0.5,0.2,0.7,0.7,0.9,1.1c0.2,0.4,0.4,0.9,0.7,1.4
		c0.1,0.1,0.3,0.2,0.5,0.3l0,0c0.4,0.2,0.9,0.3,1.3,0.4c0.2,0.1,0.4,0.1,0.7,0.1c0.4,0,0.6,0.3,0.6,0.7c0,0.3,0,0.6,0,0.9
		c0,0.5-0.1,0.9-0.5,1.3c-0.2,0.2-0.2,0.4-0.1,0.6c0.1,0.1,0.2,0.3,0.1,0.5c0,0.1-0.1,0.3-0.3,0.4c-0.1,0.1-0.2,0.2-0.2,0.3
		c-0.1,0.4-0.2,0.7-0.4,1.1c0,0.1-0.1,0.2-0.1,0.3c0.2,0.1,0.3,0.1,0.5,0.1l0,0c0.1,0,0.3,0,0.5-0.1c0.1,0,0.2-0.1,0.3-0.1
		s0.3,0,0.4,0c0.1,0,0.3,0.1,0.4,0.1c0.2,0,0.3,0.1,0.5,0.1c0.3,0,0.8,0.1,0.9,0.7c0.1,0.4-0.4,0.9-0.8,1c-0.5,0.1-0.8,0.5-0.8,1.1
		c0,0,0,0,0,0.1c0,0.1,0,0.2,0,0.3c0,0,0,0.1,0,0.1c-0.1,0.2-0.1,0.4-0.3,0.5c-0.1,0-0.2,0.1-0.3,0.1c-0.2,0-0.3,0-0.5-0.1
		c-0.1,0-0.3-0.1-0.4-0.2c-0.1,0-0.2-0.1-0.3-0.1l0,0l0,0c0,0,0,0-0.1,0c-0.1,0.3-0.3,0.3-0.4,0.3c-0.1,0-0.2,0-0.3-0.1
		c0,0-0.1,0-0.1,0c-0.1,0-0.1,0-0.2,0c-0.1,0-0.2,0-0.2-0.1c-0.3-0.1-0.6,0-0.7,0.1c-0.1,0.1-0.1,0.3-0.1,0.6c0,0.7-0.3,1.3-0.6,1.8
		c0,0.1-0.1,0.1-0.1,0.2c-0.1,0.2-0.3,0.3-0.5,0.4c-0.1,0-0.2,0.1-0.3,0.1c-0.5,0.1-0.9,0.3-1.4,0.3c-0.1,0-0.2,0-0.3,0
		c0,0-0.1,0-0.1,0c-0.1,0-0.3,0-0.3,0.3c0,0.3-0.3,0.6-0.5,0.7c-0.3,0.2-0.3,0.4-0.2,0.8c0.1,0.1,0.1,0.3,0,0.5
		c-0.1,0.1-0.2,0.2-0.4,0.3c-0.2,0.1-0.3,0.2-0.2,0.5c0.1,0.2,0.1,0.6,0,0.9c-0.2,0.4-0.1,0.8,0.1,1.2c0.2,0.3,0.3,0.7,0.2,1.1
		s-0.3,0.7-0.7,0.8c-0.4,0.2-0.6,0.5-0.5,1c0.1,0.7-0.1,1.3-0.6,1.7c0,0,0,0,0,0c0,0.2-0.1,0.4-0.1,0.6c0,0,0,0,0,0
		c0.2,0,0.4,0,0.5,0c0,0,0.1,0,0.2-0.1l0,0c0.2-0.1,0.3-0.1,0.5-0.1c0.3,0,0.4,0.3,0.5,0.6c0,0,0,0,0,0.1c0,0,0,0,0,0
		c0.3,0,0.4,0.3,0.5,0.5c0.1,0.1,0.1,0.2,0.2,0.3c0.1,0.1,0.1,0.3,0.1,0.5v0c0,0.1,0,0.2,0,0.3c0,0.2-0.1,0.4-0.1,0.5
		c0,0.5-0.1,0.8-0.5,0.8c-0.2,0-0.4,0.1-0.6,0.2c-0.3,0.1-0.7,0.2-1,0.2c-0.1,0-0.2,0-0.3,0c-0.6-0.1-1-0.2-1-1
		c0-0.2,0.1-0.3,0.2-0.4c0,0,0,0,0-0.1c-0.1-0.2-0.2-0.3-0.1-0.4c0-0.1,0.1-0.2,0.3-0.3l-0.5-0.6c0,0-0.1,0-0.1,0
		c-0.3,0.7-0.8,0.8-1.2,0.8c-0.2,0-0.3,0-0.5,0c-0.1,0-0.1,0-0.2,0c-0.1,0-0.2,0-0.3,0c0,0.1-0.1,0.2-0.1,0.3
		c-0.1,0.3-0.2,0.5-0.3,0.8c-0.3,0.7-0.9,0.9-1.5,1.2c-0.1,0-0.2,0.1-0.3,0.1c-0.3,0-0.5-0.1-0.6-0.4c0-0.1-0.1-0.1-0.1-0.1
		c0,0-0.1,0-0.1,0c-0.1,0-0.2,0-0.3,0.1c-0.1,0-0.2,0-0.3,0.1c-0.1,0-0.1,0.1-0.2,0.2c0,0,0,0.1-0.1,0.1c-0.1,0.1-0.1,0.2-0.2,0.4
		c0,0,0,0.1,0,0.1c0.1,0.1,0.1,0.3,0.2,0.4c0.3,0.5,0.2,1.1,0,1.5c-0.1,0.2-0.2,0.2-0.4,0.3l0,0c-0.1,0-0.2,0-0.2,0.1
		c-0.1,0-0.1,0-0.2,0c-0.2,0.1-0.4,0.1-0.5,0.1c-0.3,0-0.4-0.2-0.5-0.4c-0.1,0-0.1,0-0.2,0c-0.2,0.1-0.5,0.1-0.7,0.2
		c-0.2,0.1-0.4,0.3-0.6,0.5c-0.1,0.1-0.2,0.2-0.3,0.3c-0.1,0.1-0.3,0.2-0.4,0.3c-0.1,0.1-0.3,0.2-0.4,0.3
		C35.7,51.4,35.6,51.4,35.5,51.4z M34.9,50.8c0.1,0,0.3,0.1,0.4,0.2c0.1,0.1,0.2,0.1,0.2,0.1c0,0,0.1,0,0.1-0.1
		c0.1-0.1,0.3-0.2,0.4-0.3c0.1-0.1,0.3-0.2,0.4-0.3c0.1-0.1,0.2-0.2,0.3-0.3c0.2-0.2,0.4-0.4,0.7-0.5c0.2-0.1,0.5-0.2,0.8-0.3
		c0.1,0,0.2-0.1,0.3-0.1l0.2-0.1l0.1,0.2c0.1,0.3,0.1,0.4,0.2,0.4c0.1,0,0.2,0,0.4-0.1c0.1,0,0.2,0,0.2,0c0.1,0,0.1,0,0.2,0l0,0
		c0,0,0.1-0.1,0.2-0.1c0.2-0.5,0.2-0.8,0-1.2c-0.1-0.1-0.1-0.3-0.2-0.4c0-0.1-0.1-0.1-0.1-0.2l-0.1-0.1l0.1-0.1
		c0.1-0.1,0.2-0.2,0.3-0.4c0,0,0.1-0.1,0.1-0.1c0.1-0.1,0.2-0.3,0.4-0.4c0.1-0.1,0.2-0.1,0.4-0.1c0.1,0,0.2,0,0.2,0
		c0.1,0,0.2,0,0.3,0c0.2,0,0.3,0.1,0.4,0.3c0.1,0.1,0.2,0.2,0.3,0.2c0.1,0,0.1,0,0.2,0c0.6-0.2,1.1-0.4,1.3-1
		c0.1-0.3,0.2-0.5,0.3-0.8c0-0.1,0.1-0.3,0.2-0.4l0.1-0.1l0.1,0c0,0,0.1,0,0.1,0c0.1,0,0.2,0,0.3,0c0.1,0,0.1,0,0.2,0
		c0.2,0,0.3,0,0.5,0c0.4,0,0.7-0.1,0.9-0.6c0.1-0.2,0.2-0.2,0.4-0.3c0.1,0,0.1,0,0.1-0.1l0.3-0.2L46.7,44l0.8,0.9L47.3,45
		c-0.1,0-0.3,0.1-0.3,0.1c0,0,0,0.1,0.1,0.2l0.1,0.1l-0.1,0.1c0,0.1-0.1,0.1-0.1,0.2c0,0.1-0.1,0.2-0.1,0.2c0,0.5,0.2,0.5,0.7,0.6
		c0.1,0,0.2,0,0.3,0c0.3,0,0.6-0.1,0.9-0.2c0.2-0.1,0.4-0.1,0.6-0.2c0.1,0,0.2,0,0.2-0.5c0-0.2,0-0.4,0.1-0.6c0-0.1,0-0.2,0-0.3v0
		c0,0,0-0.1,0-0.2c-0.1-0.1-0.2-0.2-0.3-0.4c-0.1-0.2-0.2-0.3-0.3-0.3c-0.2,0-0.2-0.1-0.2-0.3c0,0,0,0,0,0c0-0.1-0.1-0.3-0.2-0.3
		c-0.1,0-0.2,0.1-0.3,0.1l0,0c-0.1,0-0.2,0.1-0.3,0.1c-0.2,0-0.4,0-0.5,0c-0.1,0-0.1,0-0.2,0l-0.2,0l0.1-0.4c0-0.2,0.1-0.4,0.1-0.6
		c0-0.1,0.1-0.2,0.1-0.2c0.4-0.3,0.5-0.7,0.5-1.4c-0.1-0.6,0.2-1.1,0.7-1.4c0.2-0.1,0.4-0.4,0.5-0.6c0.1-0.3,0-0.6-0.1-0.8
		c-0.3-0.5-0.3-1-0.1-1.5c0.1-0.2,0.1-0.4,0-0.6c-0.2-0.5,0-0.8,0.4-0.9c0.1,0,0.2-0.1,0.2-0.1c0-0.1,0-0.1,0-0.3
		c-0.2-0.5-0.1-0.9,0.3-1.2c0.2-0.2,0.4-0.3,0.4-0.4c0-0.4,0.3-0.6,0.6-0.6c0,0,0.1,0,0.2,0c0.1,0,0.2,0,0.2,0
		c0.4,0,0.9-0.1,1.3-0.3c0.1,0,0.2-0.1,0.3-0.1c0.1,0,0.3-0.1,0.3-0.2c0-0.1,0.1-0.1,0.1-0.2c0.3-0.5,0.6-1.1,0.6-1.7
		c0-0.4,0.1-0.6,0.2-0.8c0.1-0.1,0.3-0.2,0.6-0.2c0.1,0,0.3,0,0.4,0c0.1,0,0.2,0,0.2,0.1c0.1,0,0.1,0,0.2,0c0,0,0.1,0,0.1,0
		c0.1,0,0.1,0,0.2,0c0,0,0,0,0.1-0.1c0-0.2,0.4-0.2,0.4-0.2c0,0,0.1,0,0.1,0c0.1,0,0.2,0.1,0.3,0.1c0.1,0.1,0.2,0.1,0.3,0.1
		c0.1,0,0.3,0.1,0.4,0.1c0.1,0,0.1,0,0.1,0c0,0,0.1-0.2,0.1-0.3c0-0.1,0-0.1,0-0.2c0,0,0-0.1,0-0.1c0,0,0-0.1,0-0.1
		c0-0.7,0.3-1.3,1-1.4c0.3-0.1,0.6-0.4,0.6-0.6c-0.1-0.3-0.2-0.4-0.6-0.4c-0.2,0-0.4-0.1-0.5-0.1c-0.1,0-0.3-0.1-0.4-0.1
		c-0.1,0-0.2,0-0.3,0c-0.1,0-0.1,0-0.2,0c-0.2,0.1-0.4,0.2-0.6,0.2l0,0c-0.3,0-0.5-0.1-0.8-0.3l-0.1-0.1l0-0.1
		c0-0.2,0.1-0.3,0.1-0.5c0.1-0.4,0.2-0.8,0.4-1.1c0-0.1,0.1-0.3,0.3-0.5c0.1-0.1,0.1-0.1,0.1-0.2c0-0.1,0-0.1-0.1-0.2
		c-0.3-0.4-0.2-0.7,0.1-1.1c0.3-0.3,0.4-0.6,0.4-1c0-0.3,0-0.7,0-0.9c0-0.2,0-0.3-0.3-0.3c-0.3,0-0.5-0.1-0.7-0.1
		c-0.4-0.1-0.9-0.3-1.3-0.4l0,0c-0.2-0.1-0.5-0.2-0.7-0.4c-0.4-0.5-0.6-1-0.8-1.5c-0.2-0.4-0.3-0.7-0.7-0.9
		c-0.3-0.1-0.5-0.3-0.7-0.5c-0.1-0.1-0.1-0.1-0.2-0.2c-0.1-0.1-0.2-0.2-0.3-0.2c-0.1-0.1-0.3-0.3-0.4-0.4c-0.3-0.2-0.5-0.4-0.8-0.5
		c-0.3-0.2-0.6-0.4-0.9-0.6c-0.4-0.3-0.7-0.6-1-0.9c-0.2-0.2-0.3-0.4-0.4-0.6c-0.1-0.6-0.1-0.6-0.3-0.6c-0.1,0-0.2,0-0.4,0
		c-0.2,0-0.5-0.1-0.6-0.2c-0.1-0.1-0.1-0.1-0.2-0.1c0,0-0.1,0-0.2,0.1C46,12,45.7,12.1,45.5,12c-0.4,0-0.8-0.1-1.1-0.2
		c-0.5-0.1-1-0.2-1.5-0.2c-0.7-0.1-1.2-0.5-1.3-1c0-0.1,0-0.1,0-0.2c0-0.3-0.1-0.5-0.4-0.6c-0.1,0-0.2-0.2-0.2-0.3c0,0,0,0,0-0.1
		c-0.1-0.2-0.1-0.4-0.2-0.7c-0.1-0.5-0.3-1-0.5-1.5c0-0.1-0.1-0.2-0.2-0.2c0,0-0.2,0.1-0.2,0.1c-0.2,0.6-0.7,0.7-1.1,0.8l-0.1,0
		c-0.1,0-0.2,0.1-0.3,0.1c-0.3,0.3-0.7,0.7-1.2,1.1c-0.1,0.1-0.1,0.1-0.1,0.2c-0.2,0.5-0.6,0.8-1.1,0.8c-0.3,0-0.6-0.1-0.9-0.4l0,0
		c-0.1-0.1-0.3-0.3-0.4-0.3c0,0-0.1,0-0.2,0c-0.3,0.1-0.6,0.3-1,0.5c-0.6,0.3-1.1,0.3-1.5-0.2c-0.7-0.8-1.6-1-2.8-0.8l-0.2,0l0-0.2
		c0-0.1,0-0.1,0-0.2c0,0-0.1,0-0.2,0c0,0-0.1,0-0.1,0c-0.1,0-0.3,0-0.4,0c-0.2,0-0.3,0-0.4,0c-0.2,0-0.3,0.1-0.3,0.1
		c-0.3,0.3-0.6,0.4-1.1,0.3C26.3,9,26.2,9,26.1,8.9c-0.2-0.1-0.3-0.1-0.4-0.2c-0.1,0-0.2-0.1-0.3-0.1c-0.2-0.1-0.5-0.2-0.7-0.2
		c0,0-0.1,0-0.1,0c-0.1,0-0.1,0-0.2,0c-0.5,0-0.7,0.1-0.8,0.6c0,0.3-0.5,0.6-0.8,0.6c-0.1,0-0.2,0-0.3-0.1c-0.2-0.3-0.4-0.6-0.6-0.9
		c-0.1-0.1-0.1-0.3-0.2-0.4c-0.1-0.2-0.1-0.3-0.2-0.5c0,0-0.1,0-0.1,0c0,0,0,0,0,0c-0.1,0.1-0.3,0.2-0.4,0.3
		c-0.1,0.1-0.2,0.1-0.3,0.2c-0.2,0.1-0.4,0.2-0.6,0.3c-0.3,0.1-0.6,0.2-1,0.2c-0.2,0-0.4-0.1-0.5-0.2c-0.4-0.5-0.9-0.6-1.4-0.6
		c-0.2,0-0.4,0-0.6,0s-0.4,0-0.7,0c-0.3,0-0.6,0-0.9,0c-0.3,0-0.5-0.1-0.7-0.2c-0.2-0.1-0.5-0.2-0.8-0.2c-0.4,0-0.7,0.1-1,0.3
		c-0.3,0.2-0.6,0.4-0.9,0.5c-0.2,0.1-0.4,0.1-0.5,0.2c-0.2,0.1-0.4,0.1-0.6,0.2c-0.1,0-0.1,0.1-0.2,0.1C10,9,9.7,9.2,9.3,9.2
		c-0.1,0-0.3,0-0.4-0.1c0,0,0,0,0,0c-0.1,0-0.3,0.1-0.4,0.2h0C8.2,9.4,8.1,9.5,7.9,9.6c-0.3,0.2-0.6,0.5-1,0.6
		C6.4,10.4,6,10.6,5.7,11c0,0-0.1,0.1-0.1,0.1C5.2,11.4,5,11.7,5,12.2c0,0.2,0,0.4-0.2,0.5C4.8,12.9,4.6,13,4.4,13
		c-0.1,0-0.1,0-0.2,0c-0.1,0-0.1,0-0.2,0c-0.1,0-0.3,0-0.5,0.1c-0.1,0-0.1,0-0.2,0c0,0.1,0,0.1,0,0.2c0,0.2,0,0.4,0,0.6
		c0,0.5,0,1-0.1,1.5c-0.2,0.9-0.1,1.7-0.1,2.6c0,0.1,0,0.2,0,0.3c0,0.3,0.1,0.5,0.1,0.8c0.1,0.5,0.2,1.1,0.1,1.6
		c0,0.3-0.1,0.6-0.1,0.9c-0.1,0.7-0.1,1.4-0.3,2.1c-0.2,0.6-0.5,1.3-0.8,1.8C2.2,25.7,2,26,1.9,26.3c0,0.1,0,0.2,0,0.3c0,0,0,0,0,0
		s0,0,0.1-0.1c0.1-0.1,0.2-0.2,0.3-0.4c0.1-0.1,0.2-0.2,0.2-0.3c0,0,0.1-0.1,0.1-0.2v0c0.1-0.2,0.1-0.5,0.2-0.7
		c0.1-0.4,0.2-0.7,0.3-1.1c0-0.3,0.1-0.5,0.1-0.8c0.1-0.5,0.2-1,0.2-1.5c0-0.3,0.1-0.5,0.1-0.8c0-0.1,0-0.2,0.1-0.3l0.1-0.5L4,20.3
		c0.1,0.1,0.1,0.2,0.1,0.3c0,0,0,0.1,0,0.1c0.2,0.5,0.4,1.1,0.3,1.8c0,0,0,0.1,0.1,0.1c0,0,0,0.1,0.1,0.1c0.3,0.6,0.5,1.5-0.1,2.4
		l0,0c-0.1,0.1-0.1,0.2-0.2,0.3c0,0,0,0.1,0,0.1c0,0,0.1,0,0.1-0.1c0,0,0.1-0.1,0.1-0.1c0,0,0,0,0.1-0.1l0.2-0.2l0.5,1.7
		c0.1,0,0.1,0,0.2-0.1c0.1-0.1,0.3-0.1,0.4-0.1c0.2,0,0.4,0.1,0.5,0.4c0,0,0,0,0,0.1c0,0.1,0.1,0.2,0.1,0.3c0.1,0.5,0.4,0.7,1,0.8
		c0.3,0,0.8,0.2,1.1,0.5c0.1,0.1,0.2,0.2,0.2,0.2c0.3,0.3,0.6,0.6,1.1,0.7c0.1,0,0.2,0.1,0.4,0.2c0.4,0.5,0.8,0.6,1.4,0.5
		c0.1,0,0.2,0,0.2,0c0.2,0,0.3,0.1,0.4,0.1c0.1,0.1,0.1,0.3,0.1,0.5c0,0.1,0,0.2,0.1,0.2c0.1,0,0.2,0,0.2,0c0.1,0,0.2,0,0.2,0
		c0.4-0.3,0.9-0.5,1.5-0.5c0.1,0,0.3,0,0.4,0c0.2,0,0.5,0.1,0.7,0.1c0.3,0,0.6,0.1,0.9,0.1c0.4,0,0.8-0.1,1.1-0.3l0.2-0.1l0.1,0.2
		c0,0.2,0.1,0.3,0.1,0.5c0.1,0.3,0.2,0.7,0.2,1c0.1,0.4,0.2,0.5,0.6,0.5c0,0,0,0,0.1,0h0c0.2,0,0.3,0.2,0.4,0.3c0,0,0.1,0.1,0.1,0.1
		c0,0.1,0.1,0.1,0.1,0.2c0,0,0,0.1,0,0.1c0.6,0.2,0.9,0.6,0.8,1.1c0,0,0,0,0,0.1c0,0.1,0.1,0.1,0.1,0.2c0,0.1,0,0.1,0,0.2
		c0,0.2,0,0.5-0.1,0.7c-0.2,0.4-0.5,0.6-0.8,0.8c-0.4,0.2-0.4,0.5-0.5,0.9c0,0,0,0.1,0,0.1c0,0.3-0.1,0.6-0.1,0.9
		c0,0.4,0,0.9-0.2,1.3c-0.3,1.1,0.1,2,0.6,2.9c0,0.1,0.1,0.1,0.2,0.2c0.1-0.1,0.1-0.1,0.2-0.2c0.1-0.3,0.3-0.4,0.5-0.4
		c0.1,0,0.2,0,0.4,0.1c0.2,0.1,0.5,0.2,0.7,0.3c0.1,0,0.2,0.1,0.2,0.1l0,0l0.7,0.7l0,0.1c-0.1,0.2-0.1,0.3,0,0.4
		c0.1,0.1,0.3,0.1,0.6,0.1c0.4,0,0.8,0.3,1,0.5s0.4,0.4,0.6,0.4c0.5,0,0.8,0.2,1,0.6c0,0,0,0.1,0.1,0.1c0.2,0.4,0.3,0.6,0.6,0.6
		c0.2,0,0.3,0.3,0.3,0.3c0,0.1,0.1,0.2,0.1,0.4c0.1,0.5,0.3,1,0.3,1.5c0,0.2-0.1,0.3-0.1,0.5c0,0.1-0.1,0.1-0.1,0.2c0,0,0,0.1,0,0.1
		c0,0.1-0.1,0.3-0.1,0.3c0.1,0.4,0.2,0.7,0.6,0.8c0.2,0,0.4,0.2,0.7,0.4c0.1,0.1,0.3,0.2,0.4,0.2c0.1,0,0.3,0,0.4-0.1
		c0.1-0.1,0.3-0.1,0.4-0.1c0,0,0.1,0,0.1,0c0.1,0,0.3,0,0.4-0.1c0.1,0,0.1,0,0.2,0h0l0,0c0.1,0,0.2,0,0.3,0c0.3,0,0.5-0.1,0.7-0.3
		c0.1-0.1,0.3-0.1,0.4-0.1c0.1,0,0.2,0,0.3,0.1c0.2,0.1,0.4,0.2,0.7,0.2c0.3,0,0.7-0.1,0.9-0.3c0.1-0.1,0.3-0.2,0.4-0.2
		c0.5-0.1,0.9,0.2,1,0.7v0c0.1,0.3,0.1,0.4,0.2,0.4c0.1,0,0.1,0,0.2-0.1C34.8,50.8,34.8,50.8,34.9,50.8z"/>
	<path fill="#E10E1A" d="M36.2,52.4l-0.5-0.1c-0.1,0-0.2,0-0.3,0c-0.3,0-0.6-0.1-0.8-0.2c-0.7,0.1-1.3-0.2-1.6-0.9
		c-0.6,0.4-1.5,0.4-2.2,0.2c-0.4,0.2-0.9,0.4-1.5,0.3c-0.1,0-0.1,0-0.2,0l-0.1,0c0,0,0,0,0,0l0,0l0,0c-0.8,0.5-1.6,0.4-2.3-0.2
		c0,0-0.1-0.1-0.1-0.1c-1.2-0.3-1.5-1.3-1.6-1.7c-0.1-0.4,0-0.7,0-1l0.1-0.3c0-0.1,0.1-0.2,0.1-0.3c-0.1-0.3-0.1-0.6-0.2-0.9l0-0.2
		c-0.5-0.3-0.8-0.8-0.9-1.1c-0.8-0.1-1.2-0.5-1.5-0.8c-0.1-0.1-0.2-0.1-0.2-0.1c-0.3,0-1.1,0-1.5-0.7c-0.2-0.3-0.2-0.5-0.3-0.8
		l-0.1-0.1c-0.1,0-0.2-0.1-0.2-0.1c-0.1,0.1-0.1,0.1-0.1,0.1l-0.8,0.9l-0.8-0.8c-0.2-0.2-0.4-0.4-0.6-0.7c-0.4-0.8-1.1-2.2-0.6-3.8
		c0.1-0.2,0.1-0.6,0.1-0.9c0-0.3,0-0.6,0.1-0.9l0-0.2c0.1-0.5,0.2-1.4,1.1-1.9c0.1,0,0.1-0.1,0.2-0.2c0,0,0,0,0,0l0-0.1
		c0-0.1-0.1-0.2-0.1-0.4c-0.4-0.2-0.6-0.5-0.7-0.6l0,0c-0.8-0.2-1.3-0.7-1.4-1.6c0-0.1,0-0.1,0-0.2c-0.4,0-0.9,0-1.4-0.1L15,31.9
		c-0.1,0-0.2,0-0.4,0c-0.1,0-0.2,0-0.3,0c-0.4,0-0.5,0.1-0.6,0.2c-0.2,0.2-0.6,0.3-1,0.3c-0.2,0-0.4,0-0.7-0.1
		c-0.3-0.1-0.6-0.4-0.8-0.7c-0.5,0-1.1-0.2-1.7-0.8c-0.6-0.2-1-0.6-1.4-0.9l-0.3-0.3c0,0-0.2-0.1-0.3-0.1c-1-0.1-1.7-0.6-2-1.3
		l-1,0.4l-0.4-1.4L2.4,28l0-0.2c-0.2,0.1-0.4,0.1-0.5,0.1c-0.4,0-0.8-0.2-1-0.5c-0.4-0.5-0.4-1.2-0.2-1.7c0.2-0.3,0.3-0.7,0.5-1
		c0.2-0.5,0.5-1.1,0.7-1.6C2,22.6,2,22,2.1,21.4l0.1-1c0-0.4,0-0.8-0.1-1.3C2,18.8,2,18.5,2,18.2c0,0,0-0.1,0-0.1l0-0.1
		c-0.1-0.9-0.2-1.9,0.1-3c0.1-0.3,0.1-0.7,0.1-1.1l0-0.3c0-0.1,0-0.2,0-0.4v-1.4l1.3-0.1c0.1,0,0.2,0,0.4,0c0.1-0.7,0.6-1.2,0.9-1.5
		L5,10.3l0,0c0,0,0,0,0.1-0.1L4.8,10C5.4,9.4,6,9.1,6.6,8.9c0.1,0,0.4-0.2,0.5-0.3c0.2-0.2,0.4-0.3,0.6-0.4L8,8
		c0.3-0.2,0.6-0.3,0.9-0.3c0.1,0,0.2,0,0.4,0.1c0.1,0,0.3-0.1,0.5-0.2L10,7.5c0.2-0.1,0.5-0.2,0.8-0.3c0.1,0,0.3-0.1,0.4-0.2
		c0.3-0.1,0.5-0.3,0.7-0.4c0.9-0.6,2.3-0.7,3.2-0.2c0,0,0.1,0,0.1,0c0.3,0,0.5,0,0.8,0l0.3,0c0.4,0,0.8,0,1.1,0c0.3,0,1.2,0.1,2,0.7
		c0.1,0,0.3-0.1,0.4-0.1c0,0,0.1-0.1,0.2-0.1c0.1-0.1,0.2-0.1,0.2-0.2c0.2-0.1,0.4-0.3,0.6-0.4c0.2-0.1,0.4-0.1,0.6-0.1
		c0.4,0,1,0.2,1.3,0.7c0.1,0.2,0.2,0.4,0.3,0.7c0,0,0,0,0,0c0.3-0.3,0.8-0.4,1.4-0.5l0.4,0c0.5,0,0.8,0.2,1.2,0.3l0.2,0.1
		c0.1,0,0.3,0.1,0.4,0.2l0.2,0.1c0.4-0.3,0.9-0.3,1.1-0.3c0,0,0.1,0,0.2,0l0.5,0l0.1,0l0.2,0c0.2,0,0.7,0,1.1,0.3
		c1.2,0,2.3,0.4,3.1,1.2c0,0,0,0,0,0c0.3-0.2,0.7-0.4,1-0.5c1.1-0.5,1.7,0.1,2,0.4c0.1-0.3,0.3-0.5,0.4-0.6c0.4-0.4,0.8-0.8,1.2-1.1
		c0.2-0.2,0.5-0.3,0.9-0.4c0.1,0,0.2,0,0.3-0.1c0.3-0.6,0.9-0.9,1.4-0.9h0.2l0.1,0.1c0.6,0.2,0.9,0.7,1.1,1.1c0.2,0.5,0.3,1,0.5,1.5
		l0.1,0.5c0.6,0.4,0.7,1.1,0.7,1.4l0,0c0,0,0.1,0,0.1,0c0.4,0,0.8,0.1,1.2,0.2l1.4,0.2c0.3-0.1,0.5-0.2,0.8-0.2
		c0.2,0,0.5,0.1,0.9,0.3c0.1,0,0.2,0,0.3,0c0.9,0,1.5,0.5,1.6,1.5l0.1,0.1c0.3,0.2,0.5,0.5,0.8,0.7c0.3,0.2,0.6,0.4,0.9,0.6
		c0.3,0.2,0.5,0.4,0.8,0.6c0.2,0.1,0.3,0.3,0.4,0.4l0.1,0.1c0.1,0.1,0.2,0.2,0.2,0.2c0.1,0.1,0.2,0.2,0.3,0.3
		c0.1,0.1,0.2,0.2,0.3,0.3c0.9,0.4,1.2,1.2,1.3,1.6c0.1,0.3,0.3,0.7,0.6,1.1c0,0,0.1,0,0.1,0l0.1,0.1c0.3,0.1,0.7,0.2,1,0.3l0.1,0
		c0.2,0,0.3,0.1,0.5,0.1c0.9,0.1,1.5,0.7,1.5,1.6c0,0.2,0,0.5,0,0.8c0,0.7-0.1,1.2-0.5,1.7c0.1,0.2,0.1,0.5,0.1,0.7
		c0,0.4-0.2,0.7-0.5,1c0,0,0,0,0,0.1c0.1,0,0.3,0,0.4,0c0.1,0,0.3,0,0.4,0.1l0.1,0c0.1,0,0.2,0.1,0.3,0.1c1.3,0.1,1.7,1,1.8,1.5
		c0.2,1-0.7,1.9-1.5,2.1l0,0l-0.1,0.1c0,0.2,0,0.4-0.1,0.6l0,0.1c-0.1,0.2-0.2,0.8-0.7,1.1c-0.3,0.2-0.6,0.2-0.8,0.2
		c-0.3,0-0.5-0.1-0.7-0.1c-0.1,0-0.1,0-0.2-0.1c-0.4,0.2-1,0.1-1.2,0.1l-0.1,0c0,0,0,0,0,0c-0.1,0.8-0.4,1.4-0.7,1.9l-0.1,0.1
		c-0.2,0.5-0.7,0.8-1.1,0.9c-0.1,0-0.1,0-0.2,0.1l-0.2,0.1c-0.4,0.1-0.9,0.3-1.5,0.3c-0.2,0.3-0.4,0.5-0.5,0.6
		c0.1,0.4,0.1,0.7-0.1,1.1c-0.1,0.1-0.2,0.3-0.4,0.5c0,0.3,0.1,0.7-0.1,1.1c-0.1,0.2,0,0.2,0,0.3c0.4,0.6,0.5,1.3,0.3,1.9
		c-0.2,0.6-0.6,1.1-1.2,1.4c0.1,0.5,0,1-0.1,1.3c0.5,0.1,0.8,0.5,0.9,0.9c0.4,0.2,0.5,0.6,0.6,0.7l0,0.1c0.2,0.2,0.5,0.6,0.4,1.3
		l0,0.4c0,0.2,0,0.3,0,0.4c0,1.1-0.6,1.7-1.3,1.8c-0.1,0-0.3,0.1-0.4,0.1l-0.1,0c-0.4,0.1-1,0.3-1.6,0.2c-0.5-0.1-1.8-0.3-1.9-1.9
		c0,0,0-0.1,0-0.1c-0.2,0-0.5,0-0.8,0c-0.1,0.1-0.1,0.3-0.2,0.4c-0.5,1.1-1.5,1.5-2.1,1.7c-0.5,0.1-0.9,0.1-1.3,0
		c0.2,0.8,0,1.5-0.1,1.8c-0.2,0.6-0.7,0.8-0.9,0.9C40.2,50.9,40,51,39.9,51c0,0-0.1,0-0.1,0c-0.3,0.1-0.5,0.1-0.7,0.1
		c-0.2,0-0.5,0-0.8-0.3c0,0,0,0,0,0c-0.1,0.1-0.3,0.2-0.5,0.4l-0.1,0.1c-0.1,0.1-0.2,0.2-0.3,0.2L36.2,52.4z M35.7,50.2l-0.1,0.3
		c0,0,0,0,0.1,0l0,0c0,0,0,0,0,0l0,0l0,0l0.1-0.2C35.8,50.2,35.8,50.2,35.7,50.2z M35.1,49.9c0.1,0,0.2,0.1,0.3,0.1l0.8-0.6
		c0.2-0.2,0.5-0.4,0.8-0.6c0.4-0.2,0.7-0.3,1-0.4c0.1,0,0.2,0,0.2-0.1l0.6-0.2c0,0,0-0.1-0.1-0.1l-0.4-0.7l0.7-0.7l0.1-0.2
		c0.1-0.2,0.3-0.5,0.8-0.7c0.2-0.1,0.5-0.1,0.6-0.2c0.2-0.1,0.4-0.1,0.6-0.1c0.4,0,0.7,0.1,1,0.4c0.2-0.1,0.3-0.2,0.4-0.3
		c0.1-0.2,0.2-0.5,0.3-0.7c0-0.1,0.1-0.3,0.2-0.5l0.3-0.8l1.2,0.1c0,0,0.1,0,0.1,0l0.1,0c0.1,0,0.2,0,0.3,0c0.3-0.6,0.8-0.8,1-0.8
		l0.2-0.1c0-0.2,0.1-0.3,0.1-0.5c0.1-0.3,0.3-0.5,0.5-0.7c0,0,0.1-0.1,0.1-0.5c-0.1-1,0.3-1.9,1.2-2.3c-0.5-0.8-0.5-1.6-0.2-2.4
		c-0.3-0.7-0.1-1.4,0.4-1.8c-0.1-0.7,0.2-1.3,0.8-1.7c0,0,0,0,0,0c0.2-0.7,0.8-1.2,1.5-1.2c0.1,0,0.2,0,0.4,0c0.3,0,0.6-0.1,1-0.2
		l0.2-0.1c0,0,0,0,0,0l0,0c0.2-0.5,0.4-0.8,0.4-1.2c0-0.4,0.1-1,0.5-1.5c0.3-0.3,0.9-0.6,1.9-0.4c0.1,0,0.1,0,0.2,0v0
		C55.5,28,55.7,28,56,28c0.1,0,0.3,0,0.5,0.1c0,0,0,0,0,0c0.1-0.4,0.2-0.7,0.5-1c-0.6,0.2-1.3,0.1-1.9-0.3l-0.7-0.5l0.3-0.8
		c0-0.1,0-0.2,0.1-0.3l0-0.2c0.1-0.4,0.2-0.8,0.4-1.2c0-0.1,0.1-0.2,0.2-0.5c-0.2-0.6,0-1.2,0.5-1.8c0.2-0.2,0.2-0.2,0.1-0.3
		c0-0.2,0-0.3,0-0.4c-0.1,0-0.2,0-0.3-0.1c-0.4-0.1-0.9-0.3-1.4-0.4l-0.1,0c-0.2-0.1-0.8-0.3-1.1-0.8c-0.4-0.6-0.7-1.1-0.9-1.7
		c-0.1-0.3-0.1-0.3-0.2-0.3c-0.4-0.2-0.6-0.4-0.9-0.6l-0.1-0.1c0,0-0.1-0.1-0.1-0.1l-0.3-0.3c-0.1-0.1-0.2-0.2-0.3-0.3
		c-0.3-0.2-0.5-0.3-0.7-0.5c-0.3-0.2-0.6-0.4-0.9-0.7c-0.5-0.3-0.8-0.7-1.2-1c-0.3-0.3-0.5-0.5-0.6-0.8c-0.2,0-0.5-0.1-0.7-0.2
		C46,13,45.8,13,45.6,13l-0.2,0c-0.3,0-0.5-0.1-0.8-0.1l-0.3-0.1c-0.5-0.1-1-0.2-1.5-0.2c-1.1-0.1-2-0.9-2.1-1.8l0-0.1c0,0,0,0,0,0
		c-0.4-0.2-0.5-0.6-0.6-0.8L40,9.6c-0.1-0.2-0.1-0.4-0.2-0.6c0-0.1-0.1-0.2-0.1-0.3c-0.3,0.1-0.5,0.2-0.7,0.2l0,0
		c-0.3,0.3-0.6,0.6-1,0.9c-0.3,0.8-1.1,1.4-2,1.4c-0.5,0-1-0.2-1.4-0.6c-0.2,0.1-0.3,0.2-0.5,0.3c-0.4,0.2-0.8,0.3-1.2,0.3
		c-0.4,0-1-0.1-1.5-0.7c-0.5-0.6-1.1-0.7-1.9-0.5l-1.5,0.3L28,9.7c-0.4,0.3-0.8,0.4-1.1,0.4c-0.2,0-0.5-0.1-0.8-0.2l-0.6-0.3
		c-0.1,0-0.1-0.1-0.2-0.1c-0.1,0-0.2-0.1-0.3-0.1c-0.1-0.1-0.3-0.1-0.4-0.1c0,0,0,0-0.1,0l-0.1,0c-0.4,1.1-1.8,1.4-2.6,0.8l-0.1-0.1
		c-0.3-0.3-0.5-0.7-0.7-1.1c0,0,0,0,0-0.1c-0.2,0.1-0.4,0.3-0.7,0.4c-0.4,0.1-0.8,0.2-1.1,0.2l-0.2,0c-0.5,0-0.9-0.2-1.2-0.6
		c-0.1-0.1-0.2-0.2-0.7-0.2c-0.2,0-0.3,0-0.5,0c-0.2,0-0.4,0-0.6,0c-0.7,0-1.5,0.1-2.2-0.3c0,0-0.1-0.1-0.3-0.1
		c-0.2,0-0.4,0.1-0.4,0.1c-0.4,0.3-0.7,0.4-1,0.6c-0.2,0.1-0.4,0.2-0.5,0.2l-0.2,0.1c-0.2,0.1-0.4,0.1-0.5,0.2l-0.1,0.1l-0.5-0.8
		l0.4,0.9c-0.5,0.2-1.1,0.5-1.8,0.4c0,0,0,0,0,0l-0.2,0.1c0,0,0,0-0.1,0c-0.1,0.1-0.1,0.1-0.2,0.2c-0.3,0.2-0.7,0.6-1.2,0.8
		c-0.5,0.1-0.6,0.2-0.8,0.4c-0.1,0.1-0.1,0.1-0.2,0.2C6,12.1,6,12.1,6,12.2c0,0.5-0.1,0.9-0.4,1.2c-0.3,0.3-0.7,0.5-1.2,0.5
		c0,0,0,0,0,0c0,0.5,0,1-0.1,1.6c-0.2,0.7-0.1,1.4,0,2.3c0,0,0,0.1,0,0.2l0,0.1c0,0.3,0.1,0.5,0.1,0.7c0,0.1,0,0.2,0,0.3l0.5,0.8
		C4.9,20,5,20.2,5,20.4l0,0.1c0.2,0.5,0.4,1.1,0.4,1.8c0,0,0,0.1,0,0.1c0.1,0.3,0.6,1.3,0.2,2.5l0.2,0.8c0.3,0,1,0.1,1.4,1l0,0.1
		c0.1,0.1,0.1,0.3,0.2,0.5c0,0,0.1,0,0.2,0c0.3,0,1.1,0.2,1.7,0.7c0,0,0.1,0.1,0.2,0.1l0.2,0.2c0.2,0.2,0.4,0.4,0.6,0.4
		c0.2,0,0.6,0.2,0.8,0.5c0.3,0.4,0.2,0.2,0.4,0.2c0.2,0,0.3-0.1,0.5-0.1c0.4,0,0.8,0.1,1,0.4c0.1,0.1,0.1,0.1,0.2,0.2
		c0.5-0.2,1-0.3,1.8-0.2c0.1,0,0.3,0,0.5,0.1l0.4,0.1c0.4,0.1,0.9,0.1,1.2-0.1l1.3-0.8l0.5,2c0.1,0.3,0.2,0.6,0.2,0.9
		c0.5,0.1,0.8,0.5,1,0.7c0.1,0.1,0.1,0.1,0.1,0.2c0,0,0,0,0,0c0.7,0.4,1.1,1,1.1,1.7c0,0.1,0.1,0.3,0.1,0.4V35c0,0.3,0,0.8-0.3,1.2
		c-0.2,0.4-0.6,0.8-1.1,1.1c0,0,0,0.1,0,0.2l0,0.2c0,0.2,0,0.5-0.1,0.7c0,0.5,0,1-0.2,1.6c-0.1,0.4-0.1,0.8,0.1,1.3
		c0.4-0.1,0.8-0.1,1.2,0.1c0.2,0.1,0.3,0.1,0.5,0.2l0.2,0.1c0.1,0,0.2,0.1,0.3,0.1l0.3,0.2l1.2,1.1l0,0c0.5,0.2,0.9,0.5,1.2,0.8
		c0,0,0,0.1,0.1,0.1c0.8,0.1,1.4,0.5,1.7,1.1l0.1,0.1c0,0,0,0.1,0.1,0.1l0,0c0,0,0,0,0,0c0.3,0.1,0.7,0.3,0.9,0.9l0.1,0.1l0,0
		c0,0.1,0,0.2,0.1,0.3c0.1,0.5,0.3,1.1,0.4,1.6c0.1,0.5-0.1,0.9-0.2,1.1l0,0.1c0.2,0.1,0.5,0.2,0.7,0.4c0.2-0.1,0.5-0.2,0.6-0.2
		l0.1,0c0.1,0,0.2,0,0.3-0.1h0c0,0,0,0,0.1,0l0.1,0l0.4,0.1c0,0,0.2-0.1,0.2-0.1c0.5-0.3,1.2-0.3,1.7-0.1c0,0,0.3,0,0.4,0
		c0.3-0.3,0.6-0.4,0.9-0.4C34,48.8,34.7,49.2,35.1,49.9z"/>
</svg>
