<svg id="gray" xmlns="http://www.w3.org/2000/svg" width="518" height="165" viewBox="0 0 518 165">
  <metadata><?xpacket begin="﻿" id="W5M0MpCehiHzreSzNTczkc9d"?>
<x:xmpmeta xmlns:x="adobe:ns:meta/" x:xmptk="Adobe XMP Core 5.6-c138 79.159824, 2016/09/14-01:09:01        ">
   <rdf:RDF xmlns:rdf="http://www.w3.org/1999/02/22-rdf-syntax-ns#">
      <rdf:Description rdf:about=""/>
   </rdf:RDF>
</x:xmpmeta>
                                                                                                    
                                                                                                    
                                                                                                    
                                                                                                    
                                                                                                    
                                                                                                    
                                                                                                    
                                                                                                    
                                                                                                    
                                                                                                    
                                                                                                    
                                                                                                    
                                                                                                    
                                                                                                    
                                                                                                    
                                                                                                    
                                                                                                    
                                                                                                    
                                                                                                    
                                                                                                    
                           
<?xpacket end="w"?></metadata>
<defs>
    <style>
      .cls-1 {
        fill: #b0b0b0;
        fill-rule: evenodd;
      }
    </style>
  </defs>
  <path class="cls-1" d="M822.071,1958.57v16.58h7v6.1h-7v24.13h16v-24.13h-7v-6.1h7v-24.14h-16v7.56Zm14,44.81h-12v-5.01h12v5.01Zm0-7.56h-12v-5.01h12v5.01Zm0-12.57v5.01h-12v-5.01h12Zm-12-30.23h12v5h-12v-5Zm0,7.55h12v5.01h-12v-5.01Zm0,7.56h12v5.01h-12v-5.01Zm257.859-9.56v16.58h7v6.1h-7v24.13h16v-24.13h-7v-6.1h7v-24.14h-16v7.56Zm14,44.81h-12v-5.01h12v5.01Zm0-7.56h-12v-5.01h12v5.01Zm0-12.57v5.01h-12v-5.01h12Zm-12-30.23h12v5h-12v-5Zm0,7.55h12v5.01h-12v-5.01Zm0,7.56h12v5.01h-12v-5.01Zm43.07-59.37h-23.47a3.988,3.988,0,0,0,.4-1.72V1887a3.965,3.965,0,0,0-.67-2.2l0.09-.09-1.41-1.42-0.17.17a4.107,4.107,0,0,0-1.84-.46h-20a3.979,3.979,0,0,0-2.02.56l-0.27-.27-1.42,1.42,0.28,0.27a3.987,3.987,0,0,0-.57,2.02v20.04a3.988,3.988,0,0,0,.4,1.72H843.669a3.989,3.989,0,0,0,.4-1.72V1887a3.97,3.97,0,0,0-.666-2.2l0.09-.09-1.414-1.42-0.174.17a4.045,4.045,0,0,0-1.836-.46h-20a3.964,3.964,0,0,0-2.019.56l-0.274-.27-1.414,1.42,0.274,0.27a3.974,3.974,0,0,0-.567,2.02v20.04a3.976,3.976,0,0,0,.4,1.72H793a2,2,0,0,0-2,2v12.02a2.007,2.007,0,0,0,2,2.01h23.071v120.2h2v-11.34l11.152,11.17,0.707-.71,0.707,0.71,11.434-11.45v11.62h2v-38.06H1075.93v38.06h2v-11.34l11.15,11.17,0.71-.71,0.71,0.71,11.43-11.45v11.62h2v-120.2H1127a2.008,2.008,0,0,0,2-2.01v-12.02A2.006,2.006,0,0,0,1127,1908.76Zm-1.41,2-4.59,4.59-4.59-4.59h9.18Zm-14,0-4.59,4.59-4.59-4.59h9.18Zm-6,6.01-5.59,5.6-5.59-5.6,5.59-5.59Zm-26.25,8.02h20.89l-10.44,10.46Zm9.03,11.87-10.44,10.47V1926.2Zm0.33-25.62h8.6l-4.3,4.31Zm8.89,11.74h-9.18l4.59-4.59Zm-18.25-14.02,10.45-10.46,10.44,10.46h-20.89Zm12.25,8.01-5.59,5.6-5.59-5.6,5.59-5.59Zm10.2-30.5a2.016,2.016,0,0,1,.14.73v20.04a2.093,2.093,0,0,1-.07.51l-10.66-10.67Zm-21.86-1.27h20a2.477,2.477,0,0,1,.27.03l-10.41,10.43-10.37-10.39A2.093,2.093,0,0,1,1079.93,1885Zm-2,2a2.236,2.236,0,0,1,.07-0.51l10.37,10.39-10.41,10.43a1.241,1.241,0,0,1-.03-0.27V1887Zm0.55,23.76a3.9,3.9,0,0,0,1.45.28h3.37l-4.3,4.31-4.59-4.59h4.07Zm-0.89,6.01-5.59,5.6-5.59-5.6,5.59-5.59Zm-8,6.01h-9.18l4.59-4.59Zm0-12.02-4.59,4.59-4.59-4.59h9.18Zm-6,6.01-5.59,5.6-5.59-5.6,5.59-5.59ZM1048,1931.65a2.006,2.006,0,0,1,2,2v1.01a2,2,0,0,1-2,2h-6a2,2,0,0,1-2-2v-1.01a2.006,2.006,0,0,1,2-2h6Zm-3.5-2.43v-4.01h1v4.01h-1Zm11.09-6.44h-9.18l4.59-4.59Zm0-12.02-4.59,4.59-4.59-4.59h9.18Zm-6,6.01-5.59,5.6-5.59-5.6,5.59-5.59Zm-8,6.01h-9.18l4.59-4.59Zm0-12.02-4.59,4.59-4.59-4.59h9.18Zm-6,6.01-5.59,5.6-5.59-5.6,5.59-5.59Zm-8,6.01h-9.18l4.59-4.59Zm0-12.02-4.59,4.59-4.59-4.59h9.18Zm-6,6.01-5.59,5.6-5.59-5.6,5.59-5.59Zm-8,6.01h-9.18l4.59-4.59Zm0-12.02-4.59,4.59-4.59-4.59h9.18Zm-6,6.01-5.59,5.6-5.586-5.6,5.586-5.59Zm-8,6.01h-9.172l4.586-4.59Zm0-12.02L995,1915.35l-4.586-4.59h9.172Zm-6,6.01-5.586,5.6-5.586-5.6,5.586-5.59Zm-8,6.01h-9.172l4.586-4.59Zm0-12.02L981,1915.35l-4.586-4.59h9.172Zm-6,6.01-5.586,5.6-5.586-5.6,5.586-5.59Zm-15.875,12.45h-1v-4.01h1v4.01Zm2.5,2.43a2,2,0,0,1,2,2v1.01a2,2,0,0,1-2,2h-6a2,2,0,0,1-2-2v-1.01a2,2,0,0,1,2-2h6Zm-3.8-8.87,4.586-4.59,4.586,4.59h-9.172Zm9.172-12.02L967,1915.35l-4.586-4.59h9.172Zm-6,6.01-5.586,5.6-5.586-5.6,5.586-5.59Zm-8,6.01h-9.172l4.586-4.59Zm0-12.02L953,1915.35l-4.586-4.59h9.172Zm-6,6.01-5.586,5.6-5.586-5.6,5.586-5.59Zm-8,6.01h-9.172l4.586-4.59Zm0-12.02L939,1915.35l-4.586-4.59h9.172Zm-6,6.01-5.586,5.6-5.586-5.6,5.586-5.59Zm-8,6.01h-9.172l4.586-4.59Zm0-12.02L925,1915.35l-4.586-4.59h9.172Zm-6,6.01-5.586,5.6-5.586-5.6,5.586-5.59Zm-8,6.01h-9.172l4.586-4.59Zm0-12.02L911,1915.35l-4.586-4.59h9.172Zm-6,6.01-5.586,5.6-5.586-5.6,5.586-5.59Zm-8,6.01h-9.172l4.586-4.59Zm0-12.02L897,1915.35l-4.586-4.59h9.172Zm-6,6.01-5.586,5.6-5.586-5.6,5.586-5.59Zm-15.665,14.88a2,2,0,0,1,2,2v1.01a2,2,0,0,1-2,2h-6a2,2,0,0,1-2-2v-1.01a2,2,0,0,1,2-2h6Zm-3.5-2.43v-4.01h1v4.01h-1Zm11.165-6.44h-9.172l4.586-4.59Zm0-12.02L883,1915.35l-4.586-4.59h9.172Zm-6,6.01-5.586,5.6-5.586-5.6,5.586-5.59Zm-8,6.01h-9.172l4.586-4.59Zm0-12.02L869,1915.35l-4.586-4.59h9.172Zm-6,6.01-5.586,5.6-5.586-5.6,5.586-5.59Zm-8,6.01h-9.172l4.586-4.59Zm0-12.02L855,1915.35l-4.586-4.59h9.172Zm-6,6.01-5.586,5.6-5.586-5.6,5.586-5.59Zm-8-6.01L841,1915.35l-4.3-4.31h3.374a3.912,3.912,0,0,0,1.454-.28h4.061Zm-26.1,14.03h20.889l-10.444,10.46Zm9.031,11.87-10.445,10.47V1926.2Zm2.787-25.62-4.3,4.31-4.3-4.31H831.3Zm-11.818-2.28,10.445-10.46,10.444,10.46H819.485Zm12.1,14.02h-9.172l4.586-4.59Zm-3.172-6.01,5.586-5.59,5.586,5.59-5.586,5.6Zm13.515-30.5a2.039,2.039,0,0,1,.142.73v20.04a1.957,1.957,0,0,1-.074.51l-10.653-10.67ZM820.071,1885h20a2.46,2.46,0,0,1,.275.03l-10.416,10.43-10.37-10.39A2.15,2.15,0,0,1,820.071,1885Zm-2,2a2.043,2.043,0,0,1,.075-0.51l10.37,10.39L818.1,1907.31a1.9,1.9,0,0,1-.028-0.27V1887Zm-0.485,23.76L813,1915.35l-4.586-4.59h9.172Zm-14,0L799,1915.35l-4.586-4.59h9.172ZM793,1912.18l4.586,4.59-4.586,4.6v-9.19Zm1.414,10.6,4.586-4.59,4.586,4.59h-9.172Zm6-6.01,5.586-5.59,5.586,5.59-5.586,5.6Zm8,6.01,4.586-4.59,4.586,4.59h-9.172Zm6-6.01,5.586-5.59,5.586,5.59-5.586,5.6Zm3.657,90.57,10.445,10.47-10.445,10.46v-20.93Zm11.859,35.36-11.718-11.74,11.718-11.74,11.717,11.74Zm12.141-14.15-10.727-10.74,10.727-10.75v21.49Zm0-24.32-12.141,12.16-11.859-11.88v-54.55l11.859-11.88,12.141,12.16v53.99Zm0-56.82-10.727-10.75,10.727-10.74v21.49Zm-5.657-24.63,4.586-4.59,4.586,4.59h-9.172Zm239.516,80.14H844.071v-78.13h30.35v4.85h-0.5a4.01,4.01,0,0,0-4,4.01v1.01a4.01,4.01,0,0,0,4,4.01h6a4.01,4.01,0,0,0,4-4.01v-1.01a4.01,4.01,0,0,0-4-4.01h-0.5v-4.85h81.29v4.85h-0.5a4.01,4.01,0,0,0-4,4.01v1.01a4.01,4.01,0,0,0,4,4.01h6a4.01,4.01,0,0,0,4-4.01v-1.01a4.01,4.01,0,0,0-4-4.01h-0.5v-4.85H1042.5v4.85H1042a4.007,4.007,0,0,0-4,4.01v1.01a4.007,4.007,0,0,0,4,4.01h6a4.007,4.007,0,0,0,4-4.01v-1.01a4.007,4.007,0,0,0-4-4.01h-0.5v-4.85h28.43v78.13Zm-1.52-80.14,4.59-4.59,4.59,4.59h-9.18Zm3.52,84.56,10.44,10.47-10.44,10.46v-20.93Zm11.86,35.36-11.72-11.74,11.72-11.74,11.72,11.74Zm12.14-14.15-10.73-10.74,10.73-10.75v21.49Zm0-24.32-12.14,12.16-11.86-11.88v-54.55l11.86-11.88,12.14,12.16v53.99Zm0-56.82-10.73-10.75,10.73-10.74v21.49Zm0.48-24.63,4.59-4.59,4.59,4.59h-9.18Zm6-6.01,5.59-5.59,5.59,5.59-5.59,5.6Zm8,6.01,4.59-4.59,4.59,4.59h-9.18Zm10.59-1.41-4.59-4.6,4.59-4.59v9.19Z" transform="translate(-701 -1883)"/>
  <path class="cls-1" d="M871.317,2014H817.305a2,2,0,0,0-2,2v32h2v-3.03h54.012V2048h2v-32A2,2,0,0,0,871.317,2014Zm0,28.97H817.305V2016h54.012v26.97Zm4,5.03h2v-38h-2v38Zm-64.014,0h2v-38h-2v38Zm-50.291-34H707a2,2,0,0,0-2,2v32h2v-3.03h54.012V2048h2v-32A2,2,0,0,0,761.013,2014Zm0,28.97H707V2016h54.012v26.97Zm4,5.03h2v-38h-2v38ZM701,2048h2v-38h-2v38Zm401.69-34h-54.01a2.006,2.006,0,0,0-2,2v32h2v-3.03h54.01V2048h2v-32A2,2,0,0,0,1102.69,2014Zm0,28.97h-54.01V2016h54.01v26.97Zm-60.01,5.03h2v-38h-2v38Zm64.01,0h2.01v-38h-2.01v38ZM1213,2014h-54.01a2,2,0,0,0-2,2v32h2v-3.03H1213V2048h2v-32A2.006,2.006,0,0,0,1213,2014Zm0,28.97h-54.01V2016H1213v26.97Zm-60.01,5.03h2v-38h-2v38Zm64.01-38v38h2v-38h-2Z" transform="translate(-701 -1883)"/>
</svg>
