<?xml version="1.0" encoding="utf-8"?>
<!-- Generator: Adobe Illustrator 14.0.0, SVG Export Plug-In . SVG Version: 6.00 Build 43363)  -->
<!DOCTYPE svg PUBLIC "-//W3C//DTD SVG 1.1//EN" "http://www.w3.org/Graphics/SVG/1.1/DTD/svg11.dtd">
<svg version="1.1" id="Warstwa_1" xmlns="http://www.w3.org/2000/svg" xmlns:xlink="http://www.w3.org/1999/xlink" x="0px" y="0px"
	 width="14.84px" height="10.948px" viewBox="0 0 14.84 10.948" enable-background="new 0 0 14.84 10.948" xml:space="preserve">
<path fill="#4BA829" d="M4.811,10.948L4.811,10.948c-0.261,0-0.512-0.103-0.696-0.287L0.288,6.857c-0.384-0.382-0.384-1.001,0-1.383
	c0.385-0.382,1.007-0.382,1.392,0l3.131,3.113l8.349-8.301c0.384-0.382,1.007-0.382,1.392,0c0.384,0.382,0.384,1.001,0,1.383
	l-9.045,8.992C5.322,10.845,5.071,10.948,4.811,10.948z"/>
<path fill="#4BA829" d="M4.811,10.948c-0.252,0-0.504-0.096-0.696-0.286L0.288,6.857c-0.384-0.382-0.384-1.001,0-1.383
	c0.385-0.382,1.007-0.382,1.392,0l3.131,3.112l8.35-8.3c0.384-0.382,1.007-0.382,1.392,0c0.384,0.382,0.384,1.001,0,1.383
	l-9.046,8.992C5.314,10.852,5.062,10.948,4.811,10.948z"/>
</svg>
