<?xml version="1.0" encoding="utf-8"?>
<!-- Generator: Adobe Illustrator 14.0.0, SVG Export Plug-In . SVG Version: 6.00 Build 43363)  -->
<!DOCTYPE svg PUBLIC "-//W3C//DTD SVG 1.1//EN" "http://www.w3.org/Graphics/SVG/1.1/DTD/svg11.dtd">
<svg version="1.1" id="Warstwa_1" xmlns="http://www.w3.org/2000/svg" xmlns:xlink="http://www.w3.org/1999/xlink" x="0px" y="0px"
	 width="43px" height="41px" viewBox="0 0 43 41" enable-background="new 0 0 43 41" xml:space="preserve">
<path fill="#FFFFFF" d="M36,25.954H16v-2h20V25.954z"/>
<path fill="#FFFFFF" d="M40,41H5.5c-0.552,0-1-0.447-1-1s0.448-1,1-1C5.854,38.996,9,38.867,9,35.5V3c0-1.654,1.346-3,3-3h28
	c1.654,0,3,1.346,3,3v35C43,39.654,41.654,41,40,41z M9.889,39H40c0.552,0,1-0.448,1-1V3c0-0.551-0.448-1-1-1H12
	c-0.551,0-1,0.449-1,1v32.5C11,37.035,10.552,38.172,9.889,39z"/>
<path fill="#FFFFFF" d="M5.5,41C2.467,41,0,38.532,0,35.5h2C2,37.43,3.57,39,5.5,39S9,37.43,9,35.5h2C11,38.532,8.533,41,5.5,41z"/>
<path fill="#FFFFFF" d="M2,35.5H0v-17c0-0.552,0.448-1,1-1h9v2H2V35.5z"/>
<path fill="#FFFFFF" d="M25.818,10.591v7.818H18v-7.818H25.818 M27.818,8.591H16v11.818h11.818V8.591L27.818,8.591z"/>
<path fill="#FFFFFF" d="M25.091,31.409H16v-2h9.091V31.409z"/>
</svg>
