<svg xmlns="http://www.w3.org/2000/svg" width="572" height="75" viewBox="0 0 572 75">
  <metadata><?xpacket begin="﻿" id="W5M0MpCehiHzreSzNTczkc9d"?>
<x:xmpmeta xmlns:x="adobe:ns:meta/" x:xmptk="Adobe XMP Core 5.6-c138 79.159824, 2016/09/14-01:09:01        ">
   <rdf:RDF xmlns:rdf="http://www.w3.org/1999/02/22-rdf-syntax-ns#">
      <rdf:Description rdf:about=""/>
   </rdf:RDF>
</x:xmpmeta>
                                                                                                    
                                                                                                    
                                                                                                    
                                                                                                    
                                                                                                    
                                                                                                    
                                                                                                    
                                                                                                    
                                                                                                    
                                                                                                    
                                                                                                    
                                                                                                    
                                                                                                    
                                                                                                    
                                                                                                    
                                                                                                    
                                                                                                    
                                                                                                    
                                                                                                    
                                                                                                    
                           
<?xpacket end="w"?></metadata>
<defs>
    <style>
      .cls-1 {
        fill: #e20612;
        fill-rule: evenodd;
      }
    </style>
  </defs>
  <path id="red" class="cls-1" d="M689.65,1982.23H657.5a4.5,4.5,0,0,0-4.5,4.49v64.77a2.5,2.5,0,0,0,2.5,2.49h36.15a2.5,2.5,0,0,0,2.5-2.49v-64.77A4.5,4.5,0,0,0,689.65,1982.23Zm-32.15,2.99h32.15a1.5,1.5,0,0,1,1.5,1.5v8.01h-5.441v-1.63a3.764,3.764,0,0,0-3.911-3.58H665.351a3.764,3.764,0,0,0-3.911,3.58v1.63H656v-8.01A1.5,1.5,0,0,1,657.5,1985.22Zm25.209,7.88v52.81H664.44V1993.1a0.848,0.848,0,0,1,.911-0.59H681.8A0.848,0.848,0,0,1,682.709,1993.1ZM656,2050.99v-53.27h5.44v49.68a1.5,1.5,0,0,0,1.5,1.5h21.269a1.5,1.5,0,0,0,1.5-1.5v-49.68h5.441v53.27H656Zm378.35-72.02H891.468a4.5,4.5,0,0,0-4.5,4.49v69.25H1038.85v-69.25A4.492,4.492,0,0,0,1034.35,1978.97Zm-81.217,70.75v-38.86h18v38.86h-18Zm82.717,0H974.134v-41.85h-24v41.85H889.968v-66.26a1.5,1.5,0,0,1,1.5-1.5H1034.35a1.5,1.5,0,0,1,1.5,1.5v66.26Zm186.65-55.53h-84a2.5,2.5,0,0,0-2.5,2.49v51.82h3v-2.52h83v2.52h3v-51.82A2.5,2.5,0,0,0,1222.5,1994.19Zm-0.5,48.8h-83v-45.81h83v45.81Z" transform="translate(-653 -1978.97)"/>
</svg>
