<?xml version="1.0" encoding="utf-8"?>
<!-- Generator: Adobe Illustrator 14.0.0, SVG Export Plug-In  -->
<!DOCTYPE svg PUBLIC "-//W3C//DTD SVG 1.1//EN" "http://www.w3.org/Graphics/SVG/1.1/DTD/svg11.dtd" [
	<!ENTITY ns_flows "http://ns.adobe.com/Flows/1.0/">
]>
<svg version="1.1"
	 xmlns="http://www.w3.org/2000/svg" xmlns:xlink="http://www.w3.org/1999/xlink" xmlns:a="http://ns.adobe.com/AdobeSVGViewerExtensions/3.0/"
	 x="0px" y="0px" width="647px" height="110px" viewBox="0 0 647 110" enable-background="new 0 0 647 110" xml:space="preserve">
<defs>
</defs>
<path fill="#E10E1A" d="M38.63,109.995H2.499c-1.378,0-2.499-1.124-2.499-2.505V42.343c0-2.487,2.018-4.511,4.498-4.511H36.63
	c2.48,0,4.498,2.023,4.498,4.511v65.146C41.128,108.871,40.008,109.995,38.63,109.995z M2.999,106.989H38.13V42.343
	c0-0.83-0.673-1.504-1.5-1.504H4.498c-0.827,0-1.499,0.674-1.499,1.504V106.989z"/>
<path fill="#E10E1A" d="M9.445,53.407H1.089V50.4h8.355V53.407z"/>
<path fill="#E10E1A" d="M31.194,104.883H9.935c-0.828,0-1.499-0.673-1.499-1.503V48.762c0-1.984,1.754-3.598,3.909-3.598h16.438
	c2.156,0,3.91,1.614,3.91,3.598v54.618C32.693,104.21,32.021,104.883,31.194,104.883z M11.434,101.876h18.26V48.762
	c0-0.273-0.398-0.591-0.912-0.591H12.344c-0.512,0-0.91,0.318-0.91,0.591V101.876z"/>
<path fill="#E10E1A" d="M40.479,53.407h-8.355V50.4h8.355V53.407z"/>
<path fill="#E10E1A" d="M229.387,100.136h-2v-3.038h-53.973v3.038h-1.999V68.064c0-1.105,0.897-2.004,1.999-2.004h53.973
	c1.102,0,2,0.899,2,2.004V100.136z M173.414,95.094h53.973v-27.03h-53.973V95.094z"/>
<path fill="#E10E1A" d="M169.416,100.136h-1.999V62.05h1.999V100.136z"/>
<path fill="#E10E1A" d="M293.355,100.136h-1.999v-3.038h-53.973v3.038h-2V68.064c0-1.105,0.897-2.004,2-2.004h53.973
	c1.102,0,1.999,0.899,1.999,2.004V100.136z M237.383,95.094h53.973v-27.03h-53.973V95.094z"/>
<path fill="#E10E1A" d="M297.353,100.136h-1.999V62.05h1.999V100.136z"/>
<path fill="#E10E1A" d="M233.385,100.136h-1.999V62.05h1.999V100.136z"/>
<path fill="#E10E1A" d="M634.427,108.492h-2.999V14.945h2.999V108.492z"/>
<path fill="#E10E1A" d="M632.928,16.448c-4.574,0-8.295-3.732-8.295-8.319h2.998c0,2.929,2.377,5.312,5.297,5.312
	s5.297-2.383,5.297-5.312h2.999C641.224,12.716,637.501,16.448,632.928,16.448z"/>
<path fill="#E10E1A" d="M647.001,9.02h-27.595L624.886,0h15.601L647.001,9.02z M624.743,6.013h16.384l-2.171-3.007h-12.385
	L624.743,6.013z"/>
<path fill="#E10E1A" d="M486.641,108.719H304.85V19.518h18.47l0.001,3.448H468.17v-3.448h18.471V108.719z M307.848,105.712h175.794
	V22.525h-12.474v3.448H320.322l-0.001-3.448h-12.473V105.712z"/>
<path fill="#E10E1A" d="M407.56,96.652h-23.629V35.033h23.629V96.652z M386.929,93.645h17.632V38.04h-17.632V93.645z"/>
<path fill="#E10E1A" d="M376.615,96.652h-23.629V35.033h23.629V96.652z M355.984,93.645h17.632V38.04h-17.632V93.645z"/>
<path fill="#E10E1A" d="M345.67,96.652h-23.629V35.033h23.629V96.652z M325.04,93.645h17.632V38.04H325.04V93.645z"/>
<path fill="#E10E1A" d="M438.504,96.652h-23.629V35.033h23.629V96.652z M417.874,93.645h17.632V38.04h-17.632V93.645z"/>
<path fill="#E10E1A" d="M469.449,96.652H445.82V35.033h23.629V96.652z M448.819,93.645h17.632V38.04h-17.632V93.645z"/>
</svg>
