<svg id="red" xmlns="http://www.w3.org/2000/svg" width="878" height="75" viewBox="0 0 878 75">
  <metadata><?xpacket begin="﻿" id="W5M0MpCehiHzreSzNTczkc9d"?>
<x:xmpmeta xmlns:x="adobe:ns:meta/" x:xmptk="Adobe XMP Core 5.6-c138 79.159824, 2016/09/14-01:09:01        ">
   <rdf:RDF xmlns:rdf="http://www.w3.org/1999/02/22-rdf-syntax-ns#">
      <rdf:Description rdf:about=""/>
   </rdf:RDF>
</x:xmpmeta>
                                                                                                    
                                                                                                    
                                                                                                    
                                                                                                    
                                                                                                    
                                                                                                    
                                                                                                    
                                                                                                    
                                                                                                    
                                                                                                    
                                                                                                    
                                                                                                    
                                                                                                    
                                                                                                    
                                                                                                    
                                                                                                    
                                                                                                    
                                                                                                    
                                                                                                    
                                                                                                    
                           
<?xpacket end="w"?></metadata>
<defs>
    <style>
      .cls-1 {
        fill: #fff;
      }

      .cls-2 {
        fill: #e20612;
        fill-rule: evenodd;
      }
    </style>
  </defs>
  <rect class="cls-1" x="365" y="1.03" width="149" height="71"/>
  <path class="cls-2" d="M693.44,1976.23H661.282a4.5,4.5,0,0,0-4.5,4.49v64.77a2.5,2.5,0,0,0,2.5,2.49h36.16a2.5,2.5,0,0,0,2.5-2.49v-64.77A4.5,4.5,0,0,0,693.44,1976.23Zm-32.158,2.99H693.44a1.5,1.5,0,0,1,1.5,1.5v8.01H689.5v-1.63a3.765,3.765,0,0,0-3.913-3.58H669.135a3.765,3.765,0,0,0-3.913,3.58v1.63h-5.441v-8.01A1.5,1.5,0,0,1,661.282,1979.22Zm25.216,7.88v52.81H668.223V1987.1a0.85,0.85,0,0,1,.912-0.59h16.451A0.85,0.85,0,0,1,686.5,1987.1Zm-26.717,57.89v-53.27h5.441v49.68a1.5,1.5,0,0,0,1.5,1.5H688a1.5,1.5,0,0,0,1.5-1.5v-49.68h5.442v53.27h-35.16ZM648.9,1976.23H616.736a4.5,4.5,0,0,0-4.5,4.49v64.77a2.5,2.5,0,0,0,2.5,2.49H650.9a2.5,2.5,0,0,0,2.5-2.49v-64.77A4.5,4.5,0,0,0,648.9,1976.23Zm-32.159,2.99H648.9a1.5,1.5,0,0,1,1.5,1.5v8.01h-5.441v-1.63a3.764,3.764,0,0,0-3.913-3.58H624.59a3.764,3.764,0,0,0-3.913,3.58v1.63h-5.441v-8.01A1.5,1.5,0,0,1,616.736,1979.22Zm25.217,7.88v52.81H623.678V1987.1a0.849,0.849,0,0,1,.912-0.59h16.451A0.849,0.849,0,0,1,641.953,1987.1Zm-26.717,57.89v-53.27h5.441v49.68a1.5,1.5,0,0,0,1.5,1.5h21.277a1.5,1.5,0,0,0,1.5-1.5v-49.68H650.4v53.27H615.236ZM603.5,1976.23H571.34a4.5,4.5,0,0,0-4.5,4.49v64.77a2.5,2.5,0,0,0,2.5,2.49H605.5a2.5,2.5,0,0,0,2.5-2.49v-64.77A4.5,4.5,0,0,0,603.5,1976.23Zm-32.158,2.99H603.5a1.5,1.5,0,0,1,1.5,1.5v8.01h-5.442v-1.63a3.765,3.765,0,0,0-3.913-3.58H579.193a3.765,3.765,0,0,0-3.913,3.58v1.63h-5.441v-8.01A1.5,1.5,0,0,1,571.34,1979.22Zm25.216,7.88v52.81H578.281V1987.1a0.85,0.85,0,0,1,.912-0.59h16.451A0.85,0.85,0,0,1,596.556,1987.1Zm-26.717,57.89v-53.27h5.441v49.68a1.5,1.5,0,0,0,1.5,1.5h21.275a1.5,1.5,0,0,0,1.5-1.5v-49.68H605v53.27h-35.16Zm-12.179-68.76H525.5a4.5,4.5,0,0,0-4.5,4.49v64.77a2.5,2.5,0,0,0,2.5,2.49h36.16a2.5,2.5,0,0,0,2.5-2.49v-64.77A4.5,4.5,0,0,0,557.66,1976.23Zm-32.158,2.99H557.66a1.5,1.5,0,0,1,1.5,1.5v8.01H553.72v-1.63a3.765,3.765,0,0,0-3.914-3.58H533.355a3.765,3.765,0,0,0-3.913,3.58v1.63H524v-8.01A1.5,1.5,0,0,1,525.5,1979.22Zm25.217,7.88v52.81H532.443V1987.1a0.85,0.85,0,0,1,.912-0.59h16.451A0.85,0.85,0,0,1,550.719,1987.1ZM524,2044.99v-53.27h5.441v49.68a1.5,1.5,0,0,0,1.5,1.5h21.276a1.5,1.5,0,0,0,1.5-1.5v-49.68h5.441v53.27H524Zm734.719-68.76h-32.16a4.5,4.5,0,0,0-4.5,4.49v64.77a2.5,2.5,0,0,0,2.5,2.49h36.16a2.5,2.5,0,0,0,2.5-2.49v-64.77A4.5,4.5,0,0,0,1258.72,1976.23Zm-32.16,2.99h32.16a1.5,1.5,0,0,1,1.5,1.5v8.01h-5.44v-1.63a3.769,3.769,0,0,0-3.92-3.58h-16.45a3.767,3.767,0,0,0-3.91,3.58v1.63h-5.44v-8.01A1.5,1.5,0,0,1,1226.56,1979.22Zm25.22,7.88v52.81H1233.5V1987.1a0.85,0.85,0,0,1,.91-0.59h16.45A0.855,0.855,0,0,1,1251.78,1987.1Zm-26.72,57.89v-53.27h5.44v49.68a1.5,1.5,0,0,0,1.5,1.5h21.28a1.5,1.5,0,0,0,1.5-1.5v-49.68h5.44v53.27h-35.16Zm78.2-68.76H1271.1a4.5,4.5,0,0,0-4.5,4.49v64.77a2.5,2.5,0,0,0,2.5,2.49h36.16a2.5,2.5,0,0,0,2.5-2.49v-64.77A4.492,4.492,0,0,0,1303.26,1976.23Zm-32.16,2.99h32.16a1.5,1.5,0,0,1,1.5,1.5v8.01h-5.44v-1.63a3.76,3.76,0,0,0-3.91-3.58h-16.45a3.76,3.76,0,0,0-3.91,3.58v1.63h-5.45v-8.01A1.5,1.5,0,0,1,1271.1,1979.22Zm25.22,7.88v52.81h-18.27V1987.1a0.85,0.85,0,0,1,.91-0.59h16.45A0.85,0.85,0,0,1,1296.32,1987.1Zm-26.72,57.89v-53.27h5.45v49.68a1.5,1.5,0,0,0,1.5,1.5h21.27a1.5,1.5,0,0,0,1.5-1.5v-49.68h5.44v53.27H1269.6Zm79.06-68.76H1316.5a4.5,4.5,0,0,0-4.5,4.49v64.77a2.5,2.5,0,0,0,2.5,2.49h36.16a2.5,2.5,0,0,0,2.5-2.49v-64.77A4.5,4.5,0,0,0,1348.66,1976.23Zm-32.16,2.99h32.16a1.5,1.5,0,0,1,1.5,1.5v8.01h-5.44v-1.63a3.767,3.767,0,0,0-3.91-3.58h-16.46a3.767,3.767,0,0,0-3.91,3.58v1.63H1315v-8.01A1.5,1.5,0,0,1,1316.5,1979.22Zm25.22,7.88v52.81h-18.28V1987.1a0.85,0.85,0,0,1,.91-0.59h16.46A0.85,0.85,0,0,1,1341.72,1987.1ZM1315,2044.99v-53.27h5.44v49.68a1.5,1.5,0,0,0,1.5,1.5h21.28a1.5,1.5,0,0,0,1.5-1.5v-49.68h5.44v53.27H1315Zm79.5-68.76h-32.16a4.5,4.5,0,0,0-4.5,4.49v64.77a2.5,2.5,0,0,0,2.5,2.49h36.16a2.5,2.5,0,0,0,2.5-2.49v-64.77A4.5,4.5,0,0,0,1394.5,1976.23Zm-32.16,2.99h32.16a1.5,1.5,0,0,1,1.5,1.5v8.01h-5.44v-1.63a3.769,3.769,0,0,0-3.92-3.58h-16.45a3.767,3.767,0,0,0-3.91,3.58v1.63h-5.44v-8.01A1.5,1.5,0,0,1,1362.34,1979.22Zm25.22,7.88v52.81h-18.28V1987.1a0.85,0.85,0,0,1,.91-0.59h16.45A0.855,0.855,0,0,1,1387.56,1987.1Zm-26.72,57.89v-53.27h5.44v49.68a1.5,1.5,0,0,0,1.5,1.5h21.28a1.5,1.5,0,0,0,1.5-1.5v-49.68H1396v53.27h-35.16Zm-328.6-72.02H889.314a4.5,4.5,0,0,0-4.5,4.49v69.25H1036.74v-69.25A4.5,4.5,0,0,0,1032.24,1972.97Zm-117.7,70.75v-38.86h18.006v38.86H914.543Zm44.734,0H935.55v-41.85H911.542v41.85H887.814v-66.26a1.5,1.5,0,0,1,1.5-1.5h69.963v67.76Zm29.729,0v-38.86h18v38.86h-18Zm44.734,0h-23.73v-41.85h-24v41.85H962.278v-67.76h69.962a1.5,1.5,0,0,1,1.5,1.5v66.26Zm-11.9-56.51a2.87,2.87,0,1,0,.01-5.74h-0.01A2.87,2.87,0,1,0,1021.84,1987.21Zm5.68,7.37-2.46-5.96a0.876,0.876,0,0,0-.84-0.7h-4.37a1.13,1.13,0,0,0-1.05.71l-2.55,5.92a0.988,0.988,0,0,0,.45,1.33h0a0.984,0.984,0,0,0,1.33-.44l0.01-.01,0.19-.39s0.06-.11.04,0.01c-0.14.72-.53,2.92-0.53,2.92a0.664,0.664,0,0,0,.48.8,0.5,0.5,0,0,0,.21.02h1.11c0.08,0,.06.06,0.06,0.06v4.41a1.039,1.039,0,0,0,2.07.18v-4.61a0.043,0.043,0,0,1,.04-0.04h0.28a0.047,0.047,0,0,1,.04.05v4.42a1.034,1.034,0,0,0,2.06.19,0.605,0.605,0,0,0,0-.19v-4.4a0.086,0.086,0,0,1,.06-0.07h1.22a0.684,0.684,0,0,0,.72-0.65,0.554,0.554,0,0,0-.02-0.18s-0.38-2.34-.49-2.99a1.18,1.18,0,0,1,.28.47,0.841,0.841,0,0,0,1.05.53,0.424,0.424,0,0,0,.14-0.06,1,1,0,0,0,.47-1.33h0Zm-132.469,1.31a1,1,0,0,0,1.285-.58l0.54-1.45s0.038-.15.038,0.49v8.52a1.344,1.344,0,0,0,2.688.07v-5.64a0.041,0.041,0,0,1,.033-0.05h0.512a0.046,0.046,0,0,1,.047.04v5.58a1.344,1.344,0,0,0,2.688.07c0-.02,0-0.05,0-0.07v-8.52c0-.65.056-0.45,0.056-0.45l0.522,1.41a1,1,0,0,0,1.869-.71l-2.029-6.14a1.169,1.169,0,0,0-1.1-.72c-0.236,0-.256.01-0.4,0.01h-4.2a1.1,1.1,0,0,0-1.1.71l-2.031,6.14A1,1,0,0,0,895.051,1995.89Zm4.8-8.82a2.835,2.835,0,1,0,.078-5.67h0A2.835,2.835,0,1,0,899.847,1987.07Z" transform="translate(-521 -1972.97)"/>
</svg>
