<svg id="pdf" xmlns="http://www.w3.org/2000/svg" width="32" height="38" viewBox="0 0 32 38">
  <metadata><?xpacket begin="﻿" id="W5M0MpCehiHzreSzNTczkc9d"?>
<x:xmpmeta xmlns:x="adobe:ns:meta/" x:xmptk="Adobe XMP Core 5.6-c138 79.159824, 2016/09/14-01:09:01        ">
   <rdf:RDF xmlns:rdf="http://www.w3.org/1999/02/22-rdf-syntax-ns#">
      <rdf:Description rdf:about=""/>
   </rdf:RDF>
</x:xmpmeta>
                                                                                                    
                                                                                                    
                                                                                                    
                                                                                                    
                                                                                                    
                                                                                                    
                                                                                                    
                                                                                                    
                                                                                                    
                                                                                                    
                                                                                                    
                                                                                                    
                                                                                                    
                                                                                                    
                                                                                                    
                                                                                                    
                                                                                                    
                                                                                                    
                                                                                                    
                                                                                                    
                           
<?xpacket end="w"?></metadata>
<defs>
    <style>
      .cls-1, .cls-2 {
        fill: #e20612;
      }

      .cls-1, .cls-3 {
        fill-rule: evenodd;
      }

      .cls-3 {
        fill: #fefefe;
      }
    </style>
  </defs>
  <path id="Rounded_Rectangle_795" data-name="Rounded Rectangle 795" class="cls-1" d="M1445.89,507.253c0-.725-0.47-1.09-1.38-1.09h-1.72v2.18h1.72C1445.42,508.343,1445.89,507.983,1445.89,507.253Zm15.17-17.264h-15.78a4.124,4.124,0,0,0-4.18,4.047v5.333h-0.4a1.663,1.663,0,0,0-1.69,1.631v15.41a1.663,1.663,0,0,0,1.69,1.631h0.4v5.925a4.123,4.123,0,0,0,4.18,4.047h21.53a4.123,4.123,0,0,0,4.18-4.047v-24.4Zm-18.27,22.8h-1.67v-8.116h3.42c2,0,3.07,1.009,3.07,2.58s-1.07,2.568-3.06,2.568h-1.76v2.968Zm24.02,12.745h-21.53a1.6,1.6,0,0,1-1.62-1.568v-5.925h20.88a1.663,1.663,0,0,0,1.69-1.631V501a1.663,1.663,0,0,0-1.69-1.631h-20.88v-5.333a1.6,1.6,0,0,1,1.62-1.566l14.82-.015v5.3a2.856,2.856,0,0,0,2.9,2.807l5.36-.015,0.06,23.417A1.59,1.59,0,0,1,1466.81,525.534Zm-17.78-12.745v-8.116h3.46c2.62,0,4.35,1.611,4.35,4.058s-1.73,4.058-4.35,4.058h-3.46Zm15.19-4.777v1.49h-4.21v3.287h-1.67v-8.116h6.16v1.49h-4.49v1.849h4.21Zm-11.75-1.826h-1.77v5.09h1.77A2.546,2.546,0,1,0,1452.47,506.186Z" transform="translate(-1439 -490)"/>
  <rect id="Rounded_Rectangle_677" data-name="Rounded Rectangle 677" class="cls-2" y="13" width="27" height="12" rx="2" ry="2"/>
  <rect id="Rounded_Rectangle_678" data-name="Rounded Rectangle 678" class="cls-2" x="21" y="8" width="6" height="5" rx="2.5" ry="2.5"/>
  <path id="PDF-2" data-name="PDF" class="cls-3" d="M1445.77,510.436c1.66,0,2.55-.871,2.55-2.217s-0.89-2.227-2.56-2.227h-2.86V513h1.4v-2.563h1.47Zm-0.03-3.158a0.96,0.96,0,1,1,0,1.882h-1.44v-1.882h1.44Zm3.77-1.286V513h2.89a3.506,3.506,0,1,0,0-7.007h-2.89Zm2.87,1.306a2.2,2.2,0,0,1,0,4.394h-1.47V507.3h1.47Zm9.81,1.577h-3.51v-1.6h3.75v-1.286h-5.15V513h1.4v-2.838h3.51v-1.286Z" transform="translate(-1439 -490)"/>
</svg>
