<?xml version="1.0" encoding="utf-8"?>
<!-- Generator: Adobe Illustrator 14.0.0, SVG Export Plug-In . SVG Version: 6.00 Build 43363)  -->
<!DOCTYPE svg PUBLIC "-//W3C//DTD SVG 1.1//EN" "http://www.w3.org/Graphics/SVG/1.1/DTD/svg11.dtd">
<svg version="1.1" id="Warstwa_1" xmlns="http://www.w3.org/2000/svg" xmlns:xlink="http://www.w3.org/1999/xlink" x="0px" y="0px"
	 width="74.894px" height="58.1px" viewBox="0 0 74.894 58.1" enable-background="new 0 0 74.894 58.1" xml:space="preserve">
<path fill="#E10E1A" d="M70.675,9.465H54.324v-5.26C54.324,1.886,52.432,0,50.105,0H4.219C1.893,0,0,1.886,0,4.205V31.81
	c0,2.319,1.893,4.206,4.219,4.206H7.12v11.569c0,0.425,0.257,0.808,0.651,0.97c0.13,0.054,0.268,0.08,0.403,0.08
	c0.275,0,0.545-0.107,0.747-0.309L20.57,36.714v4.561c0,2.319,1.893,4.205,4.219,4.205h28.834l12.349,12.312
	c0.202,0.202,0.472,0.308,0.747,0.308c0.136,0,0.273-0.025,0.403-0.08c0.394-0.162,0.651-0.545,0.651-0.97V45.48h2.901
	c2.327,0,4.219-1.886,4.219-4.205V13.67C74.894,11.351,73.001,9.465,70.675,9.465z M9.229,45.047V34.966
	c0-0.58-0.472-1.05-1.055-1.05H4.219c-1.164,0-2.11-0.945-2.11-2.105V4.205c0-1.161,0.946-2.105,2.11-2.105h45.886
	c1.164,0,2.11,0.944,2.11,2.105V31.81c0,1.161-0.947,2.105-2.11,2.105H20.833c-0.28,0-0.548,0.111-0.747,0.308L9.229,45.047z
	 M72.785,41.275c0,1.16-0.947,2.105-2.11,2.105h-3.956c-0.583,0-1.055,0.47-1.055,1.05v10.083L54.807,43.688
	c-0.198-0.197-0.466-0.308-0.746-0.308H24.789c-1.164,0-2.11-0.945-2.11-2.105v-5.26h27.426c2.327,0,4.219-1.887,4.219-4.206V11.564
	h16.351c1.163,0,2.11,0.944,2.11,2.105V41.275z"/>
</svg>
