<?xml version="1.0" encoding="utf-8"?>
<!-- Generator: Adobe Illustrator 14.0.0, SVG Export Plug-In  -->
<!DOCTYPE svg PUBLIC "-//W3C//DTD SVG 1.1//EN" "http://www.w3.org/Graphics/SVG/1.1/DTD/svg11.dtd" [
	<!ENTITY ns_flows "http://ns.adobe.com/Flows/1.0/">
]>
<svg version="1.1"
	 xmlns="http://www.w3.org/2000/svg" xmlns:xlink="http://www.w3.org/1999/xlink" xmlns:a="http://ns.adobe.com/AdobeSVGViewerExtensions/3.0/"
	 x="0px" y="0px" width="32px" height="25px" viewBox="0 0 32 25" enable-background="new 0 0 32 25" xml:space="preserve">
<defs>
</defs>
<path fill="#E10E1A" d="M3.69,21.01c-0.09,0-0.18-0.017-0.266-0.053c-0.26-0.107-0.43-0.361-0.43-0.642v-4.626H2.026
	C0.909,15.689,0,14.78,0,13.664V2.025C0,0.908,0.909,0,2.026,0h19.297c1.117,0,2.026,0.908,2.026,2.025v11.639
	c0,1.116-0.909,2.025-2.026,2.025H9.302l-5.119,5.117C4.049,20.939,3.871,21.01,3.69,21.01z M2.026,1.389
	c-0.35,0-0.635,0.285-0.635,0.636v11.639c0,0.351,0.285,0.636,0.635,0.636H3.69c0.384,0,0.696,0.311,0.696,0.694v3.643l4.135-4.134
	c0.13-0.13,0.308-0.203,0.492-0.203h12.31c0.35,0,0.635-0.286,0.635-0.636V2.025c0-0.351-0.285-0.636-0.635-0.636H2.026z"/>
<path fill="#E10E1A" d="M28.31,25c-0.181,0-0.359-0.071-0.493-0.204l-5.119-5.117H10.677c-1.117,0-2.026-0.908-2.026-2.024v-3.326
	h1.391v3.326c0,0.351,0.285,0.635,0.635,0.635h12.311c0.185,0,0.362,0.073,0.493,0.203l4.134,4.134v-3.643
	c0-0.384,0.311-0.694,0.696-0.694h1.664c0.351,0,0.635-0.285,0.635-0.635V6.015c0-0.351-0.284-0.636-0.635-0.636h-7.984V3.991h7.984
	C31.091,3.991,32,4.899,32,6.015v11.639c0,1.116-0.909,2.024-2.027,2.024h-0.968v4.626c0,0.281-0.17,0.534-0.429,0.641
	C28.49,24.983,28.399,25,28.31,25z"/>
</svg>
