<?xml version="1.0" encoding="utf-8"?>
<!-- Generator: Adobe Illustrator 14.0.0, SVG Export Plug-In . SVG Version: 6.00 Build 43363)  -->
<!DOCTYPE svg PUBLIC "-//W3C//DTD SVG 1.1//EN" "http://www.w3.org/Graphics/SVG/1.1/DTD/svg11.dtd">
<svg version="1.1" id="Warstwa_1" xmlns="http://www.w3.org/2000/svg" xmlns:xlink="http://www.w3.org/1999/xlink" x="0px" y="0px"
	 width="83.301px" height="58.101px" viewBox="0 0 83.301 58.101" enable-background="new 0 0 83.301 58.101" xml:space="preserve">
<path fill="#E10E1A" d="M60.339,58.101c-5.094,0-9.918-1.634-13.952-4.725c-5.726-4.388-9.01-11.039-9.01-18.246
	c0-12.666,10.301-22.971,22.962-22.971c12.661,0,22.962,10.305,22.962,22.971C83.301,47.796,73,58.101,60.339,58.101z M60.339,14.26
	c-11.504,0-20.863,9.362-20.863,20.87c0,6.548,2.984,12.591,8.188,16.578C51.328,54.516,55.711,56,60.339,56
	c11.503,0,20.862-9.363,20.862-20.871S71.842,14.26,60.339,14.26z"/>
<path fill="#E10E1A" d="M67.003,36.18H60.43c-0.579,0-1.049-0.47-1.049-1.05V18.872c0-0.579,0.47-1.05,1.049-1.05
	c0.58,0,1.05,0.471,1.05,1.05V34.08h5.524c0.58,0,1.05,0.47,1.05,1.05S67.583,36.18,67.003,36.18z"/>
<path fill="#E10E1A" d="M47.614,54.161H5.158C2.314,54.161,0,51.847,0,49.001V5.161C0,2.315,2.314,0,5.158,0h62.998
	c2.845,0,5.159,2.315,5.159,5.161v11.58c0,0.58-0.47,1.051-1.049,1.051c-0.58,0-1.05-0.471-1.05-1.051V5.161
	c0-1.688-1.372-3.06-3.06-3.06H5.158c-1.687,0-3.059,1.372-3.059,3.06v43.841c0,1.687,1.372,3.06,3.059,3.06h42.456
	c0.58,0,1.05,0.47,1.05,1.051C48.664,53.691,48.193,54.161,47.614,54.161z"/>
<path fill="#E10E1A" d="M72.266,14.431H1.05c-0.58,0-1.05-0.47-1.05-1.05s0.47-1.05,1.05-1.05h71.216c0.579,0,1.049,0.47,1.049,1.05
	S72.845,14.431,72.266,14.431z"/>
<path fill="#E10E1A" d="M23.248,25.6L23.248,25.6c-1.54,0-2.799-1.26-2.799-2.8l0,0c0-1.54,1.26-2.8,2.799-2.8l0,0
	c1.54,0,2.799,1.26,2.799,2.8l0,0C26.046,24.34,24.787,25.6,23.248,25.6z"/>
<path fill="#E10E1A" d="M35.573,25.6L35.573,25.6c-1.54,0-2.799-1.26-2.799-2.8l0,0c0-1.54,1.259-2.8,2.799-2.8l0,0
	c1.539,0,2.799,1.26,2.799,2.8l0,0C38.372,24.34,37.112,25.6,35.573,25.6z"/>
<path fill="#E10E1A" d="M10.922,36.56L10.922,36.56c-1.54,0-2.799-1.26-2.799-2.8l0,0c0-1.54,1.259-2.8,2.799-2.8l0,0
	c1.539,0,2.799,1.26,2.799,2.8l0,0C13.721,35.3,12.461,36.56,10.922,36.56z"/>
<path fill="#E10E1A" d="M23.248,36.56L23.248,36.56c-1.54,0-2.799-1.26-2.799-2.8l0,0c0-1.54,1.26-2.8,2.799-2.8l0,0
	c1.54,0,2.799,1.26,2.799,2.8l0,0C26.046,35.3,24.787,36.56,23.248,36.56z"/>
<path fill="#E10E1A" d="M35.573,36.56L35.573,36.56c-1.54,0-2.799-1.26-2.799-2.8l0,0c0-1.54,1.259-2.8,2.799-2.8l0,0
	c1.539,0,2.799,1.26,2.799,2.8l0,0C38.372,35.3,37.112,36.56,35.573,36.56z"/>
<path fill="#E10E1A" d="M10.922,47.521L10.922,47.521c-1.54,0-2.799-1.26-2.799-2.8l0,0c0-1.54,1.259-2.8,2.799-2.8l0,0
	c1.539,0,2.799,1.26,2.799,2.8l0,0C13.721,46.261,12.461,47.521,10.922,47.521z"/>
<path fill="#E10E1A" d="M23.248,47.521L23.248,47.521c-1.54,0-2.799-1.26-2.799-2.8l0,0c0-1.54,1.26-2.8,2.799-2.8l0,0
	c1.54,0,2.799,1.26,2.799,2.8l0,0C26.046,46.261,24.787,47.521,23.248,47.521z"/>
</svg>
