<svg id="gray" xmlns="http://www.w3.org/2000/svg" width="643" height="226.03" viewBox="0 0 643 226.03">
  <metadata><?xpacket begin="﻿" id="W5M0MpCehiHzreSzNTczkc9d"?>
<x:xmpmeta xmlns:x="adobe:ns:meta/" x:xmptk="Adobe XMP Core 5.6-c138 79.159824, 2016/09/14-01:09:01        ">
   <rdf:RDF xmlns:rdf="http://www.w3.org/1999/02/22-rdf-syntax-ns#">
      <rdf:Description rdf:about=""/>
   </rdf:RDF>
</x:xmpmeta>
                                                                                                    
                                                                                                    
                                                                                                    
                                                                                                    
                                                                                                    
                                                                                                    
                                                                                                    
                                                                                                    
                                                                                                    
                                                                                                    
                                                                                                    
                                                                                                    
                                                                                                    
                                                                                                    
                                                                                                    
                                                                                                    
                                                                                                    
                                                                                                    
                                                                                                    
                                                                                                    
                           
<?xpacket end="w"?></metadata>
<defs>
    <style>
      .cls-1 {
        fill: #b0b0b0;
        fill-rule: evenodd;
      }
    </style>
  </defs>
  <path class="cls-1" d="M877.874,1993.99h-84a2.5,2.5,0,0,0-2.5,2.5v52.01h3v-2.53h83v2.53h3v-52.01A2.5,2.5,0,0,0,877.874,1993.99Zm-0.5,48.98h-83v-45.98h83v45.98ZM787.5,1993.99h-84a2.5,2.5,0,0,0-2.5,2.5v52.01h3v-2.53h83v2.53h3v-52.01A2.5,2.5,0,0,0,787.5,1993.99Zm-0.5,48.98H704v-45.98h83v45.98Zm481.5-60.98h-32.15a4.507,4.507,0,0,0-4.5,4.5v65.01a2.5,2.5,0,0,0,2.5,2.5h36.15a2.5,2.5,0,0,0,2.5-2.5v-65.01A4.507,4.507,0,0,0,1268.5,1981.99Zm-32.15,3h32.15a1.5,1.5,0,0,1,1.5,1.5v8.04h-5.44v-1.64a3.762,3.762,0,0,0-3.91-3.59H1244.2a3.768,3.768,0,0,0-3.91,3.59v1.64h-5.44v-8.04A1.5,1.5,0,0,1,1236.35,1984.99Zm25.21,7.9v53.01h-18.27v-53.01a0.85,0.85,0,0,1,.91-0.59h16.45A0.85,0.85,0,0,1,1261.56,1992.89ZM1234.85,2051v-53.47h5.44v49.87a1.5,1.5,0,0,0,1.5,1.5h21.27a1.5,1.5,0,0,0,1.5-1.5v-49.87H1270V2051h-35.15Zm-102.54-57.01h-84a2.509,2.509,0,0,0-2.51,2.5v52.01h3.01v-2.53h83v2.53h3v-52.01A2.5,2.5,0,0,0,1132.31,1993.99Zm-0.5,48.98h-83v-45.98h83v45.98Z" transform="translate(-688 -1827.97)"/>
  <path class="cls-1" d="M1329,1862.34h-25.32l-102.99-33.04a2.993,2.993,0,0,0-2.38-1.19h-1.34l-0.39-.13-0.15.13h-1.11a3,3,0,0,0-3,2.99v0.67L1158,1862.34h-18.01a2,2,0,0,0-2,1.99v7.98a2,2,0,0,0,2,1.99h6.91v41.89h22.96V1874.3h13.12v119.69h2V1956.5l23.53,23.52-12.4,12.39,1.41,1.41,11.41-11.4v11.57h2V1874.3h83.61v4.99h4.99v23.44h-0.42l-6.15,7.79a2.991,2.991,0,0,0-.44,2.95l4.9,12.45h4.48v2.34a7.984,7.984,0,1,0,8.94,7.92,7.687,7.687,0,0,0-.04-0.83h-0.06a2.434,2.434,0,0,0-2.24,1.64c-0.02.05-.05,0.09-0.07,0.14-0.04.09-.08,0.17-0.12,0.26a5.386,5.386,0,0,1-.3.52c-0.05.07-.1,0.15-0.16,0.23a4.324,4.324,0,0,1-.44.52c-0.04.04-.07,0.09-0.11,0.13a5.781,5.781,0,0,1-.67.53c-0.06.04-.12,0.07-0.19,0.11a4.322,4.322,0,0,1-.56.3c-0.09.04-.18,0.08-0.27,0.11a5.757,5.757,0,0,1-.59.18,2.614,2.614,0,0,1-.27.06,4.022,4.022,0,0,1-.85.09h-0.05c-0.06,0-.11-0.01-0.17-0.01a5.063,5.063,0,0,1-4.81-4.98,4.886,4.886,0,0,1,.05-0.55c0.02-.15.02-0.31,0.05-0.45a3.127,3.127,0,0,1,.16-0.52,3.376,3.376,0,0,1,.13-0.42,5.2,5.2,0,0,1,.25-0.46c0.07-.13.13-0.26,0.21-0.39,0.1-.14.21-0.26,0.32-0.39,0.1-.11.18-0.24,0.29-0.34a4.346,4.346,0,0,1,.41-0.34c0.11-.09.21-0.19,0.33-0.27a4.3,4.3,0,0,1,.52-0.28c0.11-.06.21-0.13,0.32-0.18a4.018,4.018,0,0,1,.59-0.18c0.12-.03.55-0.16,0.67-0.19l0.02-.01a1,1,0,0,0,.91-0.99v-3.3h5.66l4.9-12.45a3.013,3.013,0,0,0-.43-2.95l-6.16-7.79h-0.55v-23.44h4.99v-4.99H1329a2,2,0,0,0,2-1.99v-7.98A2,2,0,0,0,1329,1862.34Zm-134.68-29.67,2.73-2.44,2.23,0.72a0.8,0.8,0,0,1,.03.15v12.97h-4.99v-11.4Zm10.02,13.89a1,1,0,0,1,.98.78l3.36,15h-23.45l3.37-15a0.985,0.985,0,0,1,.97-0.78h14.77Zm6.39,15.78-3.47-15.44a2.977,2.977,0,0,0-2.92-2.33h-3.03V1831.6l95.84,30.74h-86.42Zm-18.41-27.9v10.13h-2.75a2.977,2.977,0,0,0-2.92,2.33l-3.47,15.44H1161Zm-24.46,79.76H1148.9v-18.95h18.96v18.95Zm0-20.94H1148.9V1874.3h18.96v18.96Zm40.07-18.96-22.95,22.94V1874.3h22.95Zm-22.95,28.3,23.95,23.94v0.67l-23.95,23.93V1902.6Zm23.95,27.43v47.59l-23.81-23.8Zm-23.81-30.11,23.81-23.79v47.59Zm127.54,11.84a1.018,1.018,0,0,1,.15.98l-4.41,11.18h-9.62l-4.4-11.18a0.99,0.99,0,0,1,.14-0.98l5.56-7.04h7.02Zm-7.14-9.03h-3.99v-23.44h3.99v23.44Zm4.99-25.43h-13.97v-3h13.97v3Zm18.49-4.99H1139.99v-7.98H1329v7.98Z" transform="translate(-688 -1827.97)"/>
  <path class="cls-1" d="M780.067,1994.42v1.57h-2v-93.68H724.46v4.98h-4.99v13.44h0.416l6.158,7.79a3,3,0,0,1,.438,2.95l-4.9,12.45H717.1v2.34a7.985,7.985,0,1,1-8.941,7.92,8.239,8.239,0,0,1,.043-0.83h0.055a2.436,2.436,0,0,1,2.246,1.64c0.02,0.05.048,0.09,0.069,0.14,0.037,0.09.08,0.17,0.122,0.26a5.14,5.14,0,0,0,.3.52c0.052,0.07.1,0.15,0.157,0.23a5.24,5.24,0,0,0,.443.52c0.04,0.04.074,0.09,0.116,0.13a5.6,5.6,0,0,0,.661.53c0.062,0.04.129,0.07,0.193,0.11a4.18,4.18,0,0,0,.564.3,2.745,2.745,0,0,0,.271.11,5.645,5.645,0,0,0,.588.18,2.451,2.451,0,0,0,.27.06,4.016,4.016,0,0,0,.853.09h0.046c0.059,0,.114-0.01.172-0.01a5.07,5.07,0,0,0,4.812-4.98,4.656,4.656,0,0,0-.055-0.55c-0.017-.15-0.017-0.31-0.047-0.45a4.895,4.895,0,0,0-.158-0.52c-0.046-.14-0.076-0.28-0.133-0.42-0.069-.16-0.165-0.3-0.249-0.46-0.071-.13-0.129-0.26-0.212-0.39a5,5,0,0,0-.324-0.39c-0.1-.11-0.18-0.24-0.285-0.34a4.029,4.029,0,0,0-.413-0.34c-0.109-.09-0.208-0.19-0.325-0.27a5.04,5.04,0,0,0-.523-0.28c-0.11-.06-0.21-0.13-0.324-0.18a3.944,3.944,0,0,0-.587-0.18c-0.118-.03-0.552-0.16-0.674-0.19l-0.014-.01a1,1,0,0,1-.916-0.99v-3.3h-5.654l-4.9-12.45a3,3,0,0,1,.438-2.95l6.159-7.79h0.551v-13.44h-4.991v-4.98H690a2,2,0,0,1-2-2v-7.98a1.994,1.994,0,0,1,2-1.99h25.323l72.991-33.04a2.978,2.978,0,0,1,2.376-1.19h1.341l0.394-.13,0.143,0.13h1.117a2.994,2.994,0,0,1,2.994,2.99v0.67L831,1890.34h18.007a1.994,1.994,0,0,1,2,1.99v7.98a2,2,0,0,1-2,2H842.1v41.88H819.144v-41.88H806.018v93.68h-2V1972.5l-23.532,19.52m14.191-131.35-2.733-2.44-2.226.72a0.892,0.892,0,0,0-.032.15v12.97h4.991v-11.4Zm-10.021,13.89a0.993,0.993,0,0,0-.975.78l-3.369,15h23.458l-3.369-15a0.993,0.993,0,0,0-.975-0.78H784.66Zm-6.389,15.78,3.466-15.44a2.978,2.978,0,0,1,2.923-2.33h3.034V1859.6l-65.841,30.74h56.418Zm18.406-27.9v10.13h2.753a2.978,2.978,0,0,1,2.922,2.33l3.468,15.44H828Zm24.463,79.76h18.965v-18.95H821.14v18.95Zm0-20.95h18.965v-18.94H821.14v18.94Zm-40.073-18.94,22.955,18.93v-18.93H781.067Zm22.955,24.29-23.955,19.94v0.67l23.955,19.93V1926.6Zm-23.955,23.43v39.59l23.814-19.8Zm23.814-26.11-23.814-19.79v39.59Zm-97.541,5.84a0.994,0.994,0,0,0-.145.98l4.4,11.18h9.62l4.4-11.18a0.992,0.992,0,0,0-.146-0.98l-5.559-7.04H711.9Zm7.141-9.03h3.992v-13.44h-3.992v13.44Zm-4.991-15.43h13.974v-2.99H708.49v2.99ZM690,1900.31H849.009v-7.98H690v7.98Z" transform="translate(-688 -1827.97)"/>
</svg>
