<?xml version="1.0" encoding="utf-8"?>
<!-- Generator: Adobe Illustrator 14.0.0, SVG Export Plug-In . SVG Version: 6.00 Build 43363)  -->
<!DOCTYPE svg PUBLIC "-//W3C//DTD SVG 1.1//EN" "http://www.w3.org/Graphics/SVG/1.1/DTD/svg11.dtd">
<svg version="1.1" id="Warstwa_1" xmlns="http://www.w3.org/2000/svg" xmlns:xlink="http://www.w3.org/1999/xlink" x="0px" y="0px"
	 width="9.996px" height="9.996px" viewBox="0 0 9.996 9.996" enable-background="new 0 0 9.996 9.996" xml:space="preserve">
<path fill="#B1B0B0" d="M9.123,4.125H5.871V0.873C5.871,0.39,5.48,0,4.998,0C4.516,0,4.125,0.39,4.125,0.873v3.252H0.873
	C0.391,4.125,0,4.516,0,4.998c0,0.483,0.391,0.873,0.873,0.873h3.252v3.252c0,0.482,0.391,0.873,0.873,0.873
	c0.482,0,0.873-0.391,0.873-0.873V5.871h3.252c0.482,0,0.873-0.39,0.873-0.873C9.996,4.516,9.605,4.125,9.123,4.125z"/>
</svg>
