<?xml version="1.0" encoding="utf-8"?>
<!-- Generator: Adobe Illustrator 14.0.0, SVG Export Plug-In  -->
<!DOCTYPE svg PUBLIC "-//W3C//DTD SVG 1.1//EN" "http://www.w3.org/Graphics/SVG/1.1/DTD/svg11.dtd" [
	<!ENTITY ns_flows "http://ns.adobe.com/Flows/1.0/">
]>
<svg version="1.1"
	 xmlns="http://www.w3.org/2000/svg" xmlns:xlink="http://www.w3.org/1999/xlink" xmlns:a="http://ns.adobe.com/AdobeSVGViewerExtensions/3.0/"
	 x="0px" y="0px" width="28px" height="28px" viewBox="0 0 28 28" enable-background="new 0 0 28 28" xml:space="preserve">
<defs>
</defs>
<path fill="#E20D1A" d="M21.12,27.994c-1.733-0.063-3.388-0.448-4.948-1.146c-1.401-0.611-2.758-1.356-4.029-2.212
	c-1.727-1.172-3.334-2.529-4.78-4.033c-1.188-1.151-2.31-2.428-3.317-3.778c-0.791-1.065-1.509-2.196-2.136-3.364
	c-0.487-0.906-0.9-1.861-1.229-2.839C0.441,9.9,0.254,9.155,0.125,8.406c-0.091-0.5-0.133-1.018-0.123-1.531
	C0.02,6.547,0.029,6.37,0.03,6.321l0.008-0.102C0.091,5.864,0.2,5.52,0.36,5.198C0.505,4.88,0.723,4.58,0.995,4.327L4.71,0.609
	C5.062,0.231,5.583,0.002,6.125,0c0.393-0.007,0.778,0.122,1.093,0.36c0.261,0.197,0.482,0.437,0.657,0.714l3.033,5.753
	c0.25,0.442,0.327,0.98,0.206,1.495c-0.09,0.458-0.324,0.9-0.672,1.25l-1.274,1.274c0.09,0.338,0.22,0.663,0.388,0.969
	c0.289,0.551,0.618,1.07,0.982,1.556c0.574,0.761,1.217,1.482,1.912,2.143c0.691,0.725,1.416,1.375,2.184,1.954
	c0.49,0.37,1.011,0.704,1.548,0.994c0.272,0.152,0.556,0.266,0.85,0.344l0.109,0.021l1.497-1.525c0.482-0.442,1.071-0.67,1.685-0.67
	c0.01,0,0.019,0,0.029,0c0.289-0.015,0.612,0.042,0.913,0.169h0.038l0.201,0.103l5.419,3.202c0.518,0.285,0.903,0.797,1.04,1.396
	l0.011,0.058c0.096,0.656-0.136,1.317-0.619,1.768l-3.719,3.693c-0.234,0.252-0.535,0.47-0.872,0.625
	c-0.301,0.15-0.645,0.259-0.998,0.312l-0.21,0.019C21.441,27.986,21.298,27.994,21.12,27.994z M1.5,6.401
	C1.496,6.495,1.487,6.671,1.473,6.93C1.465,7.319,1.499,7.738,1.574,8.147c0.118,0.684,0.288,1.356,0.504,2.006
	c0.301,0.898,0.682,1.777,1.129,2.61c0.593,1.104,1.272,2.174,2.02,3.181c0.959,1.286,2.029,2.503,3.179,3.618
	c1.393,1.449,2.922,2.739,4.562,3.853c1.194,0.805,2.473,1.506,3.798,2.084c1.393,0.624,2.864,0.966,4.38,1.022
	c0.095-0.001,0.194-0.006,0.27-0.013c0.065-0.006,0.114-0.01,0.149-0.013c0.194-0.031,0.383-0.091,0.56-0.18
	c0.183-0.084,0.326-0.189,0.449-0.32l3.755-3.729c0.139-0.13,0.202-0.298,0.186-0.466c-0.048-0.175-0.166-0.325-0.326-0.414
	l-5.437-3.198c-0.116-0.061-0.246-0.093-0.377-0.083c-0.002,0-0.006,0-0.009,0c-0.291,0-0.527,0.091-0.71,0.258l-1.572,1.602
	c-0.171,0.154-0.335,0.244-0.511,0.292c-0.059,0.026-0.188,0.055-0.32,0.066l-0.101,0.008l-0.454-0.089
	c-0.459-0.12-0.856-0.281-1.227-0.488c-0.592-0.318-1.176-0.693-1.727-1.108c-0.832-0.629-1.617-1.332-2.337-2.089
	c-0.727-0.689-1.425-1.472-2.047-2.298c-0.413-0.55-0.784-1.136-1.104-1.744c-0.259-0.473-0.455-0.992-0.573-1.533l-0.021-0.095
	l0.004-0.097c0.007-0.148,0.036-0.294,0.087-0.433c0.03-0.115,0.116-0.275,0.23-0.409l1.413-1.417C9.54,8.39,9.635,8.21,9.674,8.012
	c0.042-0.181,0.019-0.341-0.059-0.479L6.601,1.81C6.55,1.734,6.45,1.625,6.332,1.537c-0.056-0.042-0.13-0.066-0.193-0.063
	c-0.144,0-0.276,0.059-0.37,0.159L2.017,5.388c-0.15,0.14-0.254,0.284-0.329,0.447C1.592,6.027,1.532,6.211,1.5,6.401z"/>
</svg>
