<?xml version="1.0" encoding="utf-8"?>
<!-- Generator: Adobe Illustrator 14.0.0, SVG Export Plug-In . SVG Version: 6.00 Build 43363)  -->
<!DOCTYPE svg PUBLIC "-//W3C//DTD SVG 1.1//EN" "http://www.w3.org/Graphics/SVG/1.1/DTD/svg11.dtd">
<svg version="1.1" id="Warstwa_1" xmlns="http://www.w3.org/2000/svg" xmlns:xlink="http://www.w3.org/1999/xlink" x="0px" y="0px"
	 width="28.729px" height="28.864px" viewBox="0 0 28.729 28.864" enable-background="new 0 0 28.729 28.864" xml:space="preserve">
<path fill="#C6C6C6" d="M16.465,14.432L28.293,2.549c0.581-0.583,0.581-1.529,0-2.111c-0.58-0.583-1.521-0.583-2.101,0
	L14.364,12.321L2.537,0.438c-0.581-0.583-1.521-0.583-2.102,0c-0.58,0.582-0.58,1.528,0,2.111l11.828,11.883L0.435,26.315
	c-0.58,0.583-0.58,1.528,0,2.111c0.291,0.292,0.671,0.438,1.051,0.438c0.38,0,0.761-0.146,1.051-0.438l11.828-11.883l11.828,11.883
	c0.29,0.292,0.67,0.438,1.051,0.438c0.38,0,0.76-0.146,1.05-0.438c0.581-0.583,0.581-1.528,0-2.111L16.465,14.432z"/>
</svg>
