<?xml version="1.0" encoding="utf-8"?>
<!-- Generator: Adobe Illustrator 14.0.0, SVG Export Plug-In . SVG Version: 6.00 Build 43363)  -->
<!DOCTYPE svg PUBLIC "-//W3C//DTD SVG 1.1//EN" "http://www.w3.org/Graphics/SVG/1.1/DTD/svg11.dtd">
<svg version="1.1" id="Warstwa_1" xmlns="http://www.w3.org/2000/svg" xmlns:xlink="http://www.w3.org/1999/xlink" x="0px" y="0px"
	 width="86.087px" height="57.392px" viewBox="0 0 86.087 57.392" enable-background="new 0 0 86.087 57.392" xml:space="preserve">
<path fill="#E10E1A" d="M85.779,30.238L70.032,14.394c-0.197-0.198-0.464-0.31-0.742-0.31H53.542c-2.508,0-4.549,2.054-4.549,4.577
	V35.21H32.72V3.169C32.72,1.422,31.307,0,29.57,0H7.524C5.787,0,4.375,1.422,4.375,3.169V35.21H1.05C0.47,35.21,0,35.683,0,36.267
	v14.084c0,0.583,0.47,1.056,1.05,1.056h5.249v-2.113H2.1V37.322h3.325h7.066h12.114h7.066h17.322v9.507v2.464H27.296v2.113h22.747
	c0.475,0,0.872-0.319,1.001-0.756c0.717,0.477,1.576,0.756,2.498,0.756h3.5v-2.113h-3.5c-1.351,0-2.449-1.105-2.449-2.464V36.267
	V18.661c0-1.358,1.099-2.465,2.449-2.465h15.313l15.132,15.226v15.407c0,1.359-1.099,2.464-2.449,2.464h-3.5v2.113h3.5
	c2.508,0,4.549-2.053,4.549-4.577V30.984C86.087,30.705,85.976,30.436,85.779,30.238z M7.524,2.113H29.57
	c0.579,0,1.05,0.474,1.05,1.056v7.394h-4.966V8.979c0-1.554-1.376-2.817-3.068-2.817h-8.076c-1.692,0-3.069,1.263-3.069,2.817v1.584
	H6.474V3.169C6.474,2.587,6.945,2.113,7.524,2.113z M6.474,12.676h4.966V35.21H6.474V12.676z M13.54,35.21V8.979
	c0-0.375,0.453-0.705,0.969-0.705h8.076c0.516,0,0.969,0.33,0.969,0.705V35.21H13.54z M25.654,35.21V12.676h4.966V35.21H25.654z"/>
<path fill="#E10E1A" d="M67.54,43.308c-3.865,0-6.999,3.153-6.999,7.042c0,3.889,3.134,7.042,6.999,7.042s6.999-3.153,6.999-7.042
	C74.539,46.461,71.405,43.308,67.54,43.308z M67.54,55.279c-2.702,0-4.899-2.211-4.899-4.929c0-2.719,2.198-4.93,4.899-4.93
	s4.899,2.211,4.899,4.93C72.439,53.068,70.241,55.279,67.54,55.279z"/>
<path fill="#E10E1A" d="M16.797,43.308c-3.865,0-6.999,3.153-6.999,7.042c0,3.889,3.134,7.042,6.999,7.042s6.999-3.153,6.999-7.042
	C23.796,46.461,20.663,43.308,16.797,43.308z M16.797,55.279c-2.702,0-4.899-2.211-4.899-4.929c0-2.719,2.198-4.93,4.899-4.93
	c2.701,0,4.899,2.211,4.899,4.93C21.697,53.068,19.499,55.279,16.797,55.279z"/>
</svg>
