<?xml version="1.0" encoding="utf-8"?>
<!-- Generator: Adobe Illustrator 14.0.0, SVG Export Plug-In . SVG Version: 6.00 Build 43363)  -->
<!DOCTYPE svg PUBLIC "-//W3C//DTD SVG 1.1//EN" "http://www.w3.org/Graphics/SVG/1.1/DTD/svg11.dtd">
<svg version="1.1" id="Warstwa_1" xmlns="http://www.w3.org/2000/svg" xmlns:xlink="http://www.w3.org/1999/xlink" x="0px" y="0px"
	 width="839.999px" height="149.995px" viewBox="0 0 839.999 149.995" enable-background="new 0 0 839.999 149.995"
	 xml:space="preserve">
<path fill="#B1B0B0" d="M85.717,140.132h-2.001v-3.039H29.687v3.039h-2.001V108.05c0-1.105,0.898-2.005,2.001-2.005h54.029
	c1.103,0,2.001,0.9,2.001,2.005V140.132z M29.687,135.088h54.029V108.05H29.687V135.088z"/>
<path fill="#B1B0B0" d="M89.719,140.132h-2.001v-38.098h2.001V140.132z"/>
<path fill="#B1B0B0" d="M25.685,140.132h-2.001v-38.098h2.001V140.132z"/>
<path fill="#B1B0B0" d="M771.963,140.132h-2.001v-3.039h-54.029v3.039h-2.001V108.05c0-1.105,0.898-2.005,2.001-2.005h54.029
	c1.103,0,2.001,0.9,2.001,2.005V140.132z M715.933,135.088h54.029V108.05h-54.029V135.088z"/>
<path fill="#B1B0B0" d="M711.93,140.132h-2.001v-38.098h2.001V140.132z"/>
<path fill="#B1B0B0" d="M835.997,140.132h-2.001v-3.039h-54.029v3.039h-2.001V108.05c0-1.105,0.898-2.005,2.001-2.005h54.029
	c1.103,0,2.001,0.9,2.001,2.005V140.132z M779.967,135.088h54.029V108.05h-54.029V135.088z"/>
<path fill="#B1B0B0" d="M839.999,140.132h-2.001v-38.098h2.001V140.132z"/>
<path fill="#B1B0B0" d="M775.965,140.132h-2.001v-38.098h2.001V140.132z"/>
<path fill="#B1B0B0" d="M15.038,148.491h-3.002V54.913h3.002V148.491z"/>
<path fill="#B1B0B0" d="M13.537,56.416c-4.579,0-8.304-3.733-8.304-8.321h3.002c0,2.93,2.379,5.313,5.302,5.313
	c2.924,0,5.303-2.384,5.303-5.313h3.001C21.842,52.683,18.116,56.416,13.537,56.416z"/>
<path fill="#B1B0B0" d="M27.623,48.986H0l5.487-9.023h15.617L27.623,48.986z M5.345,45.979h16.4l-2.173-3.008H7.174L5.345,45.979z"
	/>
<path fill="#B1B0B0" d="M254.806,149.995H148.75c-1.38,0-2.501-1.124-2.501-2.507V42.775c0-1.465,0.714-2.845,1.912-3.69
	l53.617-37.809l53.619,37.809c1.197,0.844,1.911,2.223,1.911,3.69v104.713C257.308,148.871,256.186,149.995,254.806,149.995z
	 M149.25,146.987h105.056V42.775c0-0.49-0.239-0.949-0.637-1.23l-51.891-36.59l-51.89,36.59c-0.4,0.282-0.638,0.742-0.638,1.23
	V146.987z"/>
<path fill="#B1B0B0" d="M203.279,90.171h-3.001V3.116h3.001V90.171z"/>
<path fill="#B1B0B0" d="M220.288,149.995h-37.02V88.667h37.02V149.995z M186.27,146.987h31.016V91.674H186.27V146.987z"/>
<path fill="#B1B0B0" d="M699.925,148.718H593.868c-1.38,0-2.501-1.124-2.501-2.506V41.499c0-1.467,0.714-2.846,1.912-3.69L646.896,0
	l53.617,37.809c1.198,0.845,1.912,2.225,1.912,3.69v104.713C702.426,147.594,701.304,148.718,699.925,148.718z M594.368,145.71
	h105.056V41.499c0-0.488-0.238-0.949-0.638-1.23l-51.89-36.591l-51.891,36.591c-0.398,0.282-0.637,0.741-0.637,1.23V145.71z"/>
<path fill="#B1B0B0" d="M648.397,88.894h-3.002V1.838h3.002V88.894z"/>
<path fill="#B1B0B0" d="M665.406,148.718h-37.02V87.39h37.02V148.718z M631.388,145.71h31.016V90.397h-31.016V145.71z"/>
</svg>
