<?xml version="1.0" encoding="utf-8"?>
<!-- Generator: Adobe Illustrator 14.0.0, SVG Export Plug-In  -->
<!DOCTYPE svg PUBLIC "-//W3C//DTD SVG 1.1//EN" "http://www.w3.org/Graphics/SVG/1.1/DTD/svg11.dtd" [
	<!ENTITY ns_flows "http://ns.adobe.com/Flows/1.0/">
]>
<svg version="1.1"
	 xmlns="http://www.w3.org/2000/svg" xmlns:xlink="http://www.w3.org/1999/xlink" xmlns:a="http://ns.adobe.com/AdobeSVGViewerExtensions/3.0/"
	 x="0px" y="0px" width="72px" height="48px" viewBox="0 0 72 48" enable-background="new 0 0 72 48" xml:space="preserve">
<defs>
</defs>
<path fill="#E10E1A" d="M68.282,43.815H3.818V8.852h64.464V43.815z M5.918,41.729h60.264V10.938H5.918V41.729z"/>
<path fill="#E10E1A" d="M69.65,47.61H2.45C1.099,47.61,0,46.518,0,45.176V2.435C0,1.093,1.099,0,2.45,0h67.2
	c1.351,0,2.45,1.093,2.45,2.435v42.741C72.1,46.518,71.001,47.61,69.65,47.61z M2.45,2.087c-0.193,0-0.35,0.156-0.35,0.348v42.741
	c0,0.191,0.156,0.347,0.35,0.347h67.2c0.193,0,0.35-0.156,0.35-0.347V2.435c0-0.191-0.157-0.348-0.35-0.348H2.45z"/>
<path fill="#E10E1A" d="M8.496,5.549c0,0.942-0.769,1.707-1.718,1.707S5.059,6.491,5.059,5.549c0-0.943,0.769-1.707,1.718-1.707
	S8.496,4.606,8.496,5.549z"/>
<path fill="#E10E1A" d="M13.587,5.549c0,0.942-0.77,1.707-1.718,1.707c-0.949,0-1.718-0.765-1.718-1.707
	c0-0.943,0.769-1.707,1.718-1.707C12.817,3.842,13.587,4.606,13.587,5.549z"/>
<path fill="#E10E1A" d="M18.677,5.549c0,0.942-0.769,1.707-1.718,1.707s-1.718-0.765-1.718-1.707c0-0.943,0.769-1.707,1.718-1.707
	S18.677,4.606,18.677,5.549z"/>
</svg>
