<svg xmlns="http://www.w3.org/2000/svg" width="38" height="14" viewBox="0 0 38 14">
  <metadata><?xpacket begin="﻿" id="W5M0MpCehiHzreSzNTczkc9d"?>
<x:xmpmeta xmlns:x="adobe:ns:meta/" x:xmptk="Adobe XMP Core 5.6-c138 79.159824, 2016/09/14-01:09:01        ">
   <rdf:RDF xmlns:rdf="http://www.w3.org/1999/02/22-rdf-syntax-ns#">
      <rdf:Description rdf:about=""/>
   </rdf:RDF>
</x:xmpmeta>
                                                                                                    
                                                                                                    
                                                                                                    
                                                                                                    
                                                                                                    
                                                                                                    
                                                                                                    
                                                                                                    
                                                                                                    
                                                                                                    
                                                                                                    
                                                                                                    
                                                                                                    
                                                                                                    
                                                                                                    
                                                                                                    
                                                                                                    
                                                                                                    
                                                                                                    
                                                                                                    
                           
<?xpacket end="w"?></metadata>
<defs>
    <style>
      .cls-1 {
        fill: #e20612;
        fill-rule: evenodd;
      }
    </style>
  </defs>
  <path id="incognito_hover" class="cls-1" d="M1095,384h-2.35a7.023,7.023,0,0,0-13.36-1.849,3.608,3.608,0,0,0-4.58,0A7.023,7.023,0,0,0,1061.35,384H1059a1,1,0,1,0,0,1.994h2.35a7.022,7.022,0,0,0,13.97-1,1.68,1.68,0,0,1,3.36,0,7.022,7.022,0,0,0,13.97,1H1095A1,1,0,1,0,1095,384ZM1068.3,390a5.009,5.009,0,1,1,5.02-5.009A5.027,5.027,0,0,1,1068.3,390Zm17.4,0a5.009,5.009,0,1,1,5.03-5.009A5.019,5.019,0,0,1,1085.7,390Z" transform="translate(-1058 -378)"/>
</svg>
