<svg xmlns="http://www.w3.org/2000/svg" width="16.969" height="38" viewBox="0 0 16.969 38">
  <metadata><?xpacket begin="﻿" id="W5M0MpCehiHzreSzNTczkc9d"?>
<x:xmpmeta xmlns:x="adobe:ns:meta/" x:xmptk="Adobe XMP Core 5.6-c138 79.159824, 2016/09/14-01:09:01        ">
   <rdf:RDF xmlns:rdf="http://www.w3.org/1999/02/22-rdf-syntax-ns#">
      <rdf:Description rdf:about=""/>
   </rdf:RDF>
</x:xmpmeta>
                                                                                                    
                                                                                                    
                                                                                                    
                                                                                                    
                                                                                                    
                                                                                                    
                                                                                                    
                                                                                                    
                                                                                                    
                                                                                                    
                                                                                                    
                                                                                                    
                                                                                                    
                                                                                                    
                                                                                                    
                                                                                                    
                                                                                                    
                                                                                                    
                                                                                                    
                                                                                                    
                           
<?xpacket end="w"?></metadata>
<defs>
    <style>
      .cls-1 {
        fill-rule: evenodd;
      }
    </style>
  </defs>
  <path id="login" class="cls-1" d="M616.432,375.687h-3.447a5.541,5.541,0,0,0,3.637-5.158,5.661,5.661,0,0,0-11.318,0,5.541,5.541,0,0,0,3.637,5.158h-3.414a2.957,2.957,0,0,0-3.024,2.953v10.231a2.988,2.988,0,0,0,2.768,2.945v8.23A2.993,2.993,0,0,0,608.295,403h5.369a2.993,2.993,0,0,0,3.024-2.954v-8.264a2.987,2.987,0,0,0,2.768-2.944v-10.2A2.993,2.993,0,0,0,616.432,375.687Zm-9.081-5.158a3.613,3.613,0,1,1,3.612,3.529A3.576,3.576,0,0,1,607.351,370.529Zm10.058,18.309a0.967,0.967,0,0,1-.977.955h-1.791v10.253a0.967,0.967,0,0,1-.977.954h-5.369a0.967,0.967,0,0,1-.977-0.954v-10.22h-1.791a0.967,0.967,0,0,1-.977-0.955V378.64a0.954,0.954,0,0,1,.977-0.953h10.9a0.967,0.967,0,0,1,.977.954v10.2Z" transform="translate(-602.5 -365)"/>
</svg>
