<?xml version="1.0" encoding="utf-8"?>
<!-- Generator: Adobe Illustrator 21.0.1, SVG Export Plug-In . SVG Version: 6.00 Build 0)  -->
<svg version="1.1" id="Warstwa_1" xmlns="http://www.w3.org/2000/svg" xmlns:xlink="http://www.w3.org/1999/xlink" x="0px" y="0px"
	 viewBox="0 0 16 12" style="enable-background:new 0 0 16 12;" xml:space="preserve">
<style type="text/css">
	.st0{fill:#E20612;}
</style>
<path class="st0" d="M13,9.5H5.5l-0.3-1h8.7l2.1-7H4.3C4,1.4,3.8,1.6,3.8,1.8c0,0.2,0.2,0.4,0.4,0.4h10.6l-1.6,5.4H5L3.2,1.6
	L2.8,0.3l0,0L2.7,0H0.4C0.2,0,0,0.2,0,0.4c0,0.2,0.2,0.4,0.4,0.4H2l0.6,2l2,6.7c-0.5,0.2-0.8,0.6-0.8,1.2c0,0.7,0.6,1.3,1.4,1.3
	c0.8,0,1.4-0.6,1.4-1.3c0-0.2,0-0.3-0.1-0.5h5.2c-0.1,0.1-0.1,0.3-0.1,0.5c0,0.7,0.6,1.3,1.4,1.3s1.4-0.6,1.4-1.3S13.7,9.5,13,9.5z
	 M5.7,10.7c0,0.3-0.2,0.5-0.5,0.5c-0.3,0-0.5-0.2-0.5-0.5s0.2-0.5,0.5-0.5C5.5,10.3,5.7,10.5,5.7,10.7z M13,11.2
	c-0.3,0-0.5-0.2-0.5-0.5s0.2-0.5,0.5-0.5c0.3,0,0.5,0.2,0.5,0.5S13.2,11.2,13,11.2z"/>
</svg>
