<?xml version="1.0" encoding="utf-8"?>
<!-- Generator: Adobe Illustrator 14.0.0, SVG Export Plug-In  -->
<!DOCTYPE svg PUBLIC "-//W3C//DTD SVG 1.1//EN" "http://www.w3.org/Graphics/SVG/1.1/DTD/svg11.dtd" [
	<!ENTITY ns_flows "http://ns.adobe.com/Flows/1.0/">
]>
<svg version="1.1"
	 xmlns="http://www.w3.org/2000/svg" xmlns:xlink="http://www.w3.org/1999/xlink" xmlns:a="http://ns.adobe.com/AdobeSVGViewerExtensions/3.0/"
	 x="0px" y="0px" width="16px" height="16px" viewBox="0 0 16 16" enable-background="new 0 0 16 16" xml:space="preserve">
<defs>
</defs>
<path fill="#E31721" d="M16.003,12.627c0.034,0.26-0.045,0.485-0.237,0.678l-2.254,2.237c-0.102,0.113-0.234,0.209-0.398,0.288
	c-0.164,0.08-0.325,0.13-0.483,0.153c-0.011,0-0.045,0.003-0.102,0.009S12.399,16,12.309,16c-0.215,0-0.563-0.037-1.042-0.11
	c-0.48-0.073-1.068-0.254-1.763-0.542c-0.695-0.288-1.483-0.72-2.364-1.297c-0.882-0.576-1.819-1.367-2.814-2.373
	c-0.791-0.78-1.446-1.525-1.966-2.237c-0.52-0.712-0.938-1.37-1.254-1.975S0.551,6.313,0.393,5.822
	C0.235,5.33,0.127,4.907,0.071,4.551C0.014,4.195-0.008,3.916,0.003,3.712S0.02,3.396,0.02,3.373
	C0.042,3.215,0.093,3.054,0.172,2.89c0.079-0.164,0.175-0.297,0.289-0.398l2.254-2.254C2.873,0.079,3.054,0,3.257,0
	c0.147,0,0.277,0.042,0.39,0.127C3.76,0.212,3.856,0.317,3.935,0.44l1.814,3.441c0.102,0.18,0.13,0.378,0.084,0.593
	C5.789,4.689,5.692,4.87,5.545,5.017l-0.83,0.83c-0.023,0.023-0.042,0.06-0.06,0.111C4.639,6.008,4.63,6.051,4.63,6.084
	c0.045,0.238,0.147,0.509,0.305,0.813C5.071,7.17,5.28,7.5,5.563,7.89c0.283,0.39,0.684,0.839,1.204,1.348
	c0.508,0.52,0.96,0.924,1.355,1.212s0.727,0.5,0.992,0.635c0.266,0.136,0.469,0.218,0.61,0.246l0.212,0.042
	c0.022,0,0.059-0.008,0.11-0.025s0.088-0.037,0.11-0.06l0.966-0.983c0.204-0.181,0.44-0.271,0.712-0.271
	c0.192,0,0.344,0.034,0.458,0.102h0.017l3.271,1.932C15.817,12.215,15.958,12.401,16.003,12.627z"/>
</svg>
