<svg xmlns="http://www.w3.org/2000/svg" width="38" height="38" viewBox="0 0 38 38">
  <metadata><?xpacket begin="﻿" id="W5M0MpCehiHzreSzNTczkc9d"?>
<x:xmpmeta xmlns:x="adobe:ns:meta/" x:xmptk="Adobe XMP Core 5.6-c138 79.159824, 2016/09/14-01:09:01        ">
   <rdf:RDF xmlns:rdf="http://www.w3.org/1999/02/22-rdf-syntax-ns#">
      <rdf:Description rdf:about=""/>
   </rdf:RDF>
</x:xmpmeta>
                                                                                                    
                                                                                                    
                                                                                                    
                                                                                                    
                                                                                                    
                                                                                                    
                                                                                                    
                                                                                                    
                                                                                                    
                                                                                                    
                                                                                                    
                                                                                                    
                                                                                                    
                                                                                                    
                                                                                                    
                                                                                                    
                                                                                                    
                                                                                                    
                                                                                                    
                                                                                                    
                           
<?xpacket end="w"?></metadata>
<defs>
    <style>
      .cls-1 {
        fill-rule: evenodd;
      }
    </style>
  </defs>
  <path id="register" class="cls-1" d="M812.666,403H804v-8.081l13.877-13.877a14.242,14.242,0,0,1-.544-3.708,12.334,12.334,0,1,1,12.334,12.333,13.541,13.541,0,0,1-3.72-.533L820.081,395h-3.414v4h-4v4ZM806,401h4.667v-4h4v-4h4.586l6.145-6.144,0.586,0.2a11.489,11.489,0,0,0,3.684.615,10.334,10.334,0,1,0-10.334-10.333,12.991,12.991,0,0,0,.625,3.713l0.171,0.571L806,395.747V401Zm27-22a5,5,0,1,1,5-5A4.946,4.946,0,0,1,833,379Zm0-8a3,3,0,1,0,3,3A2.935,2.935,0,0,0,833,371Z" transform="translate(-804 -365)"/>
</svg>
