<svg xmlns="http://www.w3.org/2000/svg" width="26.063" height="28.812" viewBox="0 0 26.063 28.812">
  <metadata><?xpacket begin="﻿" id="W5M0MpCehiHzreSzNTczkc9d"?>
<x:xmpmeta xmlns:x="adobe:ns:meta/" x:xmptk="Adobe XMP Core 5.6-c138 79.159824, 2016/09/14-01:09:01        ">
   <rdf:RDF xmlns:rdf="http://www.w3.org/1999/02/22-rdf-syntax-ns#">
      <rdf:Description rdf:about=""/>
   </rdf:RDF>
</x:xmpmeta>
                                                                                                    
                                                                                                    
                                                                                                    
                                                                                                    
                                                                                                    
                                                                                                    
                                                                                                    
                                                                                                    
                                                                                                    
                                                                                                    
                                                                                                    
                                                                                                    
                                                                                                    
                                                                                                    
                                                                                                    
                                                                                                    
                                                                                                    
                                                                                                    
                                                                                                    
                                                                                                    
                           
<?xpacket end="w"?></metadata>
<defs>
    <style>
      .cls-1 {
        fill: #e20612;
        fill-rule: evenodd;
      }
    </style>
  </defs>
  <path id="step_2_active" class="cls-1" d="M808.4,739.3H797.512v1.8H808.4v-1.8Zm-10.888,10.8v1.8h14.971v-1.8H797.512Zm0,12.6H805v-1.8h-7.486v1.8Zm-7.485-26.1a3.6,3.6,0,1,0,3.629,3.6A3.619,3.619,0,0,0,790.027,736.6Zm0,5.4a1.8,1.8,0,1,1,1.815-1.8A1.809,1.809,0,0,1,790.027,742Zm0,5.4a3.6,3.6,0,1,0,3.629,3.6A3.619,3.619,0,0,0,790.027,747.4Zm0,5.4a1.8,1.8,0,1,1,1.815-1.8A1.809,1.809,0,0,1,790.027,752.8Zm0,5.4a3.6,3.6,0,1,0,3.629,3.6A3.618,3.618,0,0,0,790.027,758.2Zm0,5.4a1.8,1.8,0,1,1,1.815-1.8A1.81,1.81,0,0,1,790.027,763.6Z" transform="translate(-786.406 -736.594)"/>
</svg>
