<svg xmlns="http://www.w3.org/2000/svg" width="38" height="19" viewBox="0 0 38 19">
  <metadata><?xpacket begin="﻿" id="W5M0MpCehiHzreSzNTczkc9d"?>
<x:xmpmeta xmlns:x="adobe:ns:meta/" x:xmptk="Adobe XMP Core 5.6-c138 79.159824, 2016/09/14-01:09:01        ">
   <rdf:RDF xmlns:rdf="http://www.w3.org/1999/02/22-rdf-syntax-ns#">
      <rdf:Description rdf:about=""/>
   </rdf:RDF>
</x:xmpmeta>
                                                                                                    
                                                                                                    
                                                                                                    
                                                                                                    
                                                                                                    
                                                                                                    
                                                                                                    
                                                                                                    
                                                                                                    
                                                                                                    
                                                                                                    
                                                                                                    
                                                                                                    
                                                                                                    
                                                                                                    
                                                                                                    
                                                                                                    
                                                                                                    
                                                                                                    
                                                                                                    
                           
<?xpacket end="w"?></metadata>
<defs>
    <style>
      .cls-1 {
        fill: #fff;
        fill-rule: evenodd;
      }
    </style>
  </defs>
  <path id="step_3_done" class="cls-1" d="M1141.71,748.043l-6.75-6.75a1,1,0,0,0-.71-0.293h-6.75a2.5,2.5,0,0,0-2.5,2.5V750h-20a1,1,0,0,0-1,1v6a1,1,0,0,0,1,1h2.25v-2H1106v-4h19v4h-8.75v2H1126a0.966,0.966,0,0,0,.55-0.188,2.514,2.514,0,0,0,.95.188h1.5v-2h-1.5a0.507,0.507,0,0,1-.5-0.5v-12a0.507,0.507,0,0,1,.5-0.5h6.34l6.16,6.164V755.5a0.507,0.507,0,0,1-.5.5H1138v2h1.5a2.5,2.5,0,0,0,2.5-2.5v-6.75A1.029,1.029,0,0,0,1141.71,748.043ZM1133.5,754a3,3,0,1,0,3,3A3,3,0,0,0,1133.5,754Zm0,4a1,1,0,1,1,1-1A1,1,0,0,1,1133.5,758Zm-21.75-4a3,3,0,1,0,3,3A3,3,0,0,0,1111.75,754Zm0,4a1,1,0,1,1,1-1A1,1,0,0,1,1111.75,758Z" transform="translate(-1104 -741)"/>
</svg>
