<?xml version="1.0" encoding="utf-8"?>
<!-- Generator: Adobe Illustrator 14.0.0, SVG Export Plug-In . SVG Version: 6.00 Build 43363)  -->
<!DOCTYPE svg PUBLIC "-//W3C//DTD SVG 1.1//EN" "http://www.w3.org/Graphics/SVG/1.1/DTD/svg11.dtd">
<svg version="1.1" id="Warstwa_1" xmlns="http://www.w3.org/2000/svg" xmlns:xlink="http://www.w3.org/1999/xlink" x="0px" y="0px"
	 width="26px" height="17px" viewBox="0 0 26 17" enable-background="new 0 0 26 17" xml:space="preserve">
<path fill="#E10E1A" d="M23.187,9.701c-0.21,0.584-0.463,1.165-0.781,1.727c-1.593,2.817-4.254,4.519-6.268,5.469
	C16.589,16.957,17.061,17,17.559,17c1.041,0,2.154-0.162,3.216-0.619C24.364,14.831,26,10.475,26,10.475S24.825,9.958,23.187,9.701z
	"/>
<path fill="#E10E1A" d="M3.595,11.427c-0.318-0.563-0.571-1.143-0.781-1.726C1.175,9.958,0,10.475,0,10.475s1.635,4.356,5.226,5.905
	C6.287,16.838,7.4,17,8.441,17c0.498,0,0.97-0.043,1.422-0.102C7.849,15.947,5.188,14.245,3.595,11.427z"/>
<path fill="#E10E1A" d="M16.448,14.663c1.559-0.883,3.293-2.219,4.393-4.164c2.398-4.246,0.851-9.761,0.851-9.761
	s-2.259,0.575-4.507,2.117c0.725,1.486,1.299,3.279,1.299,5.234C18.484,10.676,17.479,12.979,16.448,14.663z"/>
<path fill="#E10E1A" d="M9.552,14.663c-1.031-1.684-2.035-3.987-2.035-6.573c0-1.955,0.574-3.748,1.299-5.234
	C6.568,1.313,4.309,0.738,4.309,0.738S2.761,6.253,5.16,10.499C6.259,12.443,7.993,13.779,9.552,14.663z"/>
<path fill="#E10E1A" d="M13,0c0,0-3.675,3.622-3.675,8.09c0,4.467,3.675,8.089,3.675,8.089s3.675-3.622,3.675-8.089
	C16.676,3.622,13,0,13,0z"/>
</svg>
