<?xml version="1.0" encoding="utf-8"?>
<!-- Generator: Adobe Illustrator 14.0.0, SVG Export Plug-In . SVG Version: 6.00 Build 43363)  -->
<!DOCTYPE svg PUBLIC "-//W3C//DTD SVG 1.1//EN" "http://www.w3.org/Graphics/SVG/1.1/DTD/svg11.dtd">
<svg version="1.1" id="Warstwa_1" xmlns="http://www.w3.org/2000/svg" xmlns:xlink="http://www.w3.org/1999/xlink" x="0px" y="0px"
	 width="26.006px" height="20.996px" viewBox="0 0 26.006 20.996" enable-background="new 0 0 26.006 20.996" xml:space="preserve">
<path fill="#E10E1A" d="M23.902,2.541V5.93h0.478c0.899,0,1.627-0.759,1.627-1.695c0-0.936-0.728-1.694-1.627-1.694H23.902z"/>
<path fill="#E10E1A" d="M9.517,18.626c-1.307,0-2.355-1.073-2.355-2.434v-9.08H4.561v12.688c0,0.676,0.516,1.195,1.166,1.195h11.789
	c0.649,0,1.186-0.52,1.186-1.195v-1.175H9.517z"/>
<path fill="#E10E1A" d="M7.162,4.057c0-0.821-0.649-1.517-1.437-1.517H1.625C0.728,2.541,0,3.299,0,4.233
	c0,0.936,0.728,1.693,1.625,1.693h4.1c0.788,0,1.437-0.635,1.437-1.456V4.057L7.162,4.057z"/>
<path fill="#E10E1A" d="M5.689,0C5.06,0,4.551,0.509,4.551,1.187h0.814c1.705,0,3.097,1.469,3.097,3.245v11.814
	c0,0.677,0.516,1.195,1.165,1.195h11.788c0.65,0,1.188-0.519,1.188-1.195V2.492c0-1.36-1.067-2.491-2.373-2.491L5.689,0L5.689,0z"/>
</svg>
