<?xml version="1.0" encoding="utf-8"?>
<!-- Generator: Adobe Illustrator 14.0.0, SVG Export Plug-In  -->
<!DOCTYPE svg PUBLIC "-//W3C//DTD SVG 1.1//EN" "http://www.w3.org/Graphics/SVG/1.1/DTD/svg11.dtd" [
	<!ENTITY ns_flows "http://ns.adobe.com/Flows/1.0/">
]>
<svg version="1.1"
	 xmlns="http://www.w3.org/2000/svg" xmlns:xlink="http://www.w3.org/1999/xlink" xmlns:a="http://ns.adobe.com/AdobeSVGViewerExtensions/3.0/"
	 x="0px" y="0px" width="17px" height="26px" viewBox="0 0 17 26" enable-background="new 0 0 17 26" xml:space="preserve">
<defs>
</defs>
<path fill="#E10E1A" d="M15.118,23.286C16.352,21.924,17,20.084,17,17.908c0-3.137-2.184-6.2-3.486-7.747
	c-0.686-0.816-1.408-1.547-2.098-2.146V5.462c0-0.692-0.579-1.256-1.289-1.256H9.466V2.462c1.084-0.027,2.819-0.053,3.478,0.014
	c0.49,0.049,1.572,0.365,2.139,0.553c0.103,0.035,0.208,0.05,0.311,0.05c0.402,0,0.778-0.247,0.915-0.638
	c0.172-0.492-0.098-1.026-0.604-1.194C15.534,1.19,14.01,0.69,13.144,0.604c-0.516-0.052-1.45-0.058-2.325-0.049
	C10.667,0.228,10.33,0,9.939,0H4.634C4.101,0,3.668,0.423,3.668,0.941V1.51c0,0.519,0.433,0.941,0.966,0.941h2.899v1.755h-0.66
	c-0.711,0-1.289,0.563-1.289,1.256v2.535c-0.698,0.602-1.427,1.341-2.118,2.164C2.172,11.705,0,14.764,0,17.908
	c0,2.176,0.648,4.017,1.882,5.378c-0.031,0.092-0.048,0.188-0.049,0.29l-0.009,1.482c-0.002,0.251,0.098,0.488,0.28,0.667
	S2.528,26,2.786,26h11.428c0.258,0,0.5-0.098,0.682-0.277s0.282-0.415,0.28-0.667l-0.009-1.482
	C15.166,23.474,15.148,23.377,15.118,23.286z M8.5,22.135c-2.491,0-4.51-2.252-4.51-5.03c0-2.778,2.02-5.03,4.51-5.03
	s4.51,2.252,4.51,5.03C13.01,19.882,10.991,22.135,8.5,22.135z"/>
</svg>
