<svg xmlns="http://www.w3.org/2000/svg" width="20" height="24" viewBox="0 0 20 24">
  <metadata><?xpacket begin="﻿" id="W5M0MpCehiHzreSzNTczkc9d"?>
<x:xmpmeta xmlns:x="adobe:ns:meta/" x:xmptk="Adobe XMP Core 5.6-c138 79.159824, 2016/09/14-01:09:01        ">
   <rdf:RDF xmlns:rdf="http://www.w3.org/1999/02/22-rdf-syntax-ns#">
      <rdf:Description rdf:about=""/>
   </rdf:RDF>
</x:xmpmeta>
                                                                                                    
                                                                                                    
                                                                                                    
                                                                                                    
                                                                                                    
                                                                                                    
                                                                                                    
                                                                                                    
                                                                                                    
                                                                                                    
                                                                                                    
                                                                                                    
                                                                                                    
                                                                                                    
                                                                                                    
                                                                                                    
                                                                                                    
                                                                                                    
                                                                                                    
                                                                                                    
                           
<?xpacket end="w"?></metadata>
<defs>
    <style>
      .cls-1 {
        fill: #e20612;
        fill-rule: evenodd;
      }
    </style>
  </defs>
  <path id="aranzacja_otoczenia" class="cls-1" d="M698,444a10.145,10.145,0,0,0,10-10.286A10.146,10.146,0,0,0,698,444Zm-7.111-13.429a2.82,2.82,0,0,0,2.778,2.857,2.734,2.734,0,0,0,1.577-.5l-0.023.216a2.779,2.779,0,1,0,5.556,0l-0.022-.216a2.706,2.706,0,0,0,1.577.5,2.82,2.82,0,0,0,2.778-2.857A2.855,2.855,0,0,0,703.522,428a2.852,2.852,0,0,0,1.588-2.569,2.819,2.819,0,0,0-2.778-2.857,2.732,2.732,0,0,0-1.577.5l0.022-.216a2.779,2.779,0,1,0-5.555,0l0.023,0.216a2.711,2.711,0,0,0-1.578-.5,2.818,2.818,0,0,0-2.778,2.857A2.85,2.85,0,0,0,692.477,428,2.859,2.859,0,0,0,690.889,430.571ZM698,425.142A2.858,2.858,0,1,1,695.222,428,2.82,2.82,0,0,1,698,425.142Zm-10,8.572A10.145,10.145,0,0,0,698,444,10.146,10.146,0,0,0,688,433.714Z" transform="translate(-688 -420)"/>
</svg>
