<svg xmlns="http://www.w3.org/2000/svg" width="23.969" height="20" viewBox="0 0 23.969 20">
  <metadata><?xpacket begin="﻿" id="W5M0MpCehiHzreSzNTczkc9d"?>
<x:xmpmeta xmlns:x="adobe:ns:meta/" x:xmptk="Adobe XMP Core 5.6-c138 79.159824, 2016/09/14-01:09:01        ">
   <rdf:RDF xmlns:rdf="http://www.w3.org/1999/02/22-rdf-syntax-ns#">
      <rdf:Description rdf:about=""/>
   </rdf:RDF>
</x:xmpmeta>
                                                                                                    
                                                                                                    
                                                                                                    
                                                                                                    
                                                                                                    
                                                                                                    
                                                                                                    
                                                                                                    
                                                                                                    
                                                                                                    
                                                                                                    
                                                                                                    
                                                                                                    
                                                                                                    
                                                                                                    
                                                                                                    
                                                                                                    
                                                                                                    
                                                                                                    
                                                                                                    
                           
<?xpacket end="w"?></metadata>
<defs>
    <style>
      .cls-1 {
        fill: #e20612;
        fill-rule: evenodd;
      }
    </style>
  </defs>
  <path id="zastaw_wypoczynkowy" class="cls-1" d="M769.776,298.392a1,1,0,0,0-.768-0.361h-1.386l1.233-4.742a0.907,0.907,0,0,0-.154-0.877,1.068,1.068,0,0,0-.819-0.412H748.117a0.992,0.992,0,0,0-.819.412,1.061,1.061,0,0,0-.154.877l1.244,4.742h-1.4a0.919,0.919,0,0,0-.768.361,0.93,0.93,0,0,0-.2.824l2.049,9.64a0.987,0.987,0,0,0,.972.773h0.41v1.34A1.031,1.031,0,0,0,750.472,312a1.065,1.065,0,0,0,1.024-1.031v-1.34H764.5v1.34a1.024,1.024,0,1,0,2.048,0v-1.34h0.41a0.987,0.987,0,0,0,.973-0.773l2.048-9.64A1.012,1.012,0,0,0,769.776,298.392Zm-20.328-4.33H766.6l-1.058,3.969h-0.325a1.009,1.009,0,0,0-1.229.722l-1.024,4.381h-9.985l-1.075-4.381a1.034,1.034,0,0,0-1.229-.722h-0.171Zm16.693,13.608h-0.17a1.013,1.013,0,0,0-.89,0H750.917a1.013,1.013,0,0,0-.89,0h-0.169l-1.639-7.577h1.946l1.075,4.33a0.988,0.988,0,0,0,.973.773h11.572a0.9,0.9,0,0,0,.922-0.773l1.032-4.33h2.04Z" transform="translate(-746.031 -292)"/>
</svg>
