<?xml version="1.0" encoding="utf-8"?>
<!-- Generator: Adobe Illustrator 14.0.0, SVG Export Plug-In . SVG Version: 6.00 Build 43363)  -->
<!DOCTYPE svg PUBLIC "-//W3C//DTD SVG 1.1//EN" "http://www.w3.org/Graphics/SVG/1.1/DTD/svg11.dtd">
<svg version="1.1" id="Warstwa_1" xmlns="http://www.w3.org/2000/svg" xmlns:xlink="http://www.w3.org/1999/xlink" x="0px" y="0px"
	 width="27.217px" height="21.316px" viewBox="0 0 27.217 21.316" enable-background="new 0 0 27.217 21.316" xml:space="preserve">
<path fill="#E10E1A" d="M19.229,7.105c0.49,0,0.888,0.397,0.888,0.888c0,0.491-0.397,0.889-0.888,0.889s-0.888-0.397-0.888-0.889
	C18.341,7.503,18.739,7.105,19.229,7.105z"/>
<path fill="#E10E1A" d="M19.229,14.211c0.49,0,0.888,0.397,0.888,0.888c0,0.491-0.397,0.889-0.888,0.889s-0.888-0.398-0.888-0.889
	C18.341,14.608,18.739,14.211,19.229,14.211z"/>
<path fill="#E10E1A" d="M26.329,0H0.888C0.397,0,0,0.397,0,0.888v3.553c0,0.49,0.397,0.888,0.888,0.888h0.887v15.099
	c0,0.49,0.397,0.888,0.888,0.888h3.55c0.49,0,0.888-0.397,0.888-0.888V5.329h5.917v15.099c0,0.49,0.397,0.888,0.888,0.888
	c0.49,0,0.887-0.397,0.887-0.888V19.54h8.875v0.889c0,0.49,0.397,0.888,0.888,0.888s0.887-0.397,0.887-0.888V5.329h0.888
	c0.49,0,0.888-0.398,0.888-0.888V0.888C27.216,0.397,26.819,0,26.329,0z M5.325,19.54H3.55V5.329h1.775V19.54z M23.667,17.764
	h-8.875v-5.33h8.875V17.764L23.667,17.764z M23.667,10.658h-8.875V5.329h8.875V10.658L23.667,10.658z M25.441,3.553H6.212h-3.55
	H1.775V1.776h23.667V3.553L25.441,3.553z"/>
</svg>
