<svg xmlns="http://www.w3.org/2000/svg" width="14" height="25" viewBox="0 0 14 25">
  <metadata><?xpacket begin="﻿" id="W5M0MpCehiHzreSzNTczkc9d"?>
<x:xmpmeta xmlns:x="adobe:ns:meta/" x:xmptk="Adobe XMP Core 5.6-c140 79.160451, 2017/05/06-01:08:21        ">
   <rdf:RDF xmlns:rdf="http://www.w3.org/1999/02/22-rdf-syntax-ns#">
      <rdf:Description rdf:about=""/>
   </rdf:RDF>
</x:xmpmeta>
                                                                                                    
                                                                                                    
                                                                                                    
                                                                                                    
                                                                                                    
                                                                                                    
                                                                                                    
                                                                                                    
                                                                                                    
                                                                                                    
                                                                                                    
                                                                                                    
                                                                                                    
                                                                                                    
                                                                                                    
                                                                                                    
                                                                                                    
                                                                                                    
                                                                                                    
                                                                                                    
                           
<?xpacket end="w"?></metadata>
<defs>
    <style>
      .cls-1 {
        fill: #e20612;
        fill-rule: evenodd;
      }
    </style>
  </defs>
  <path id="_2" data-name="2" class="cls-1" d="M1224,4225.9h-10a2,2,0,0,0-2,1.99v14.93a2,2,0,0,0,2,1.99h3.8a7.214,7.214,0,0,0-1.6,3.31,2.8,2.8,0,0,0,5.6,0,7.214,7.214,0,0,0-1.6-3.31h3.8a2,2,0,0,0,2-1.99v-14.93A2,2,0,0,0,1224,4225.9Zm-5,23.02a0.8,0.8,0,0,1-.8-0.79,5.429,5.429,0,0,1,.8-1.55,5.184,5.184,0,0,1,.8,1.55A0.8,0.8,0,0,1,1219,4248.92Zm-5-6.1v-14.93h10v14.93h-10Zm5-5.48a1.5,1.5,0,1,0,1.5,1.5A1.5,1.5,0,0,0,1219,4237.34Zm0-2.48a1,1,0,1,0-1-1A1,1,0,0,0,1219,4234.86Z" transform="translate(-1212 -4225.91)"/>
</svg>
