<svg xmlns="http://www.w3.org/2000/svg" width="19" height="23.969" viewBox="0 0 19 23.969">
  <metadata><?xpacket begin="﻿" id="W5M0MpCehiHzreSzNTczkc9d"?>
<x:xmpmeta xmlns:x="adobe:ns:meta/" x:xmptk="Adobe XMP Core 5.6-c138 79.159824, 2016/09/14-01:09:01        ">
   <rdf:RDF xmlns:rdf="http://www.w3.org/1999/02/22-rdf-syntax-ns#">
      <rdf:Description rdf:about=""/>
   </rdf:RDF>
</x:xmpmeta>
                                                                                                    
                                                                                                    
                                                                                                    
                                                                                                    
                                                                                                    
                                                                                                    
                                                                                                    
                                                                                                    
                                                                                                    
                                                                                                    
                                                                                                    
                                                                                                    
                                                                                                    
                                                                                                    
                                                                                                    
                                                                                                    
                                                                                                    
                                                                                                    
                                                                                                    
                                                                                                    
                           
<?xpacket end="w"?></metadata>
<defs>
    <style>
      .cls-1 {
        fill: #e20612;
        fill-rule: evenodd;
      }
    </style>
  </defs>
  <path id="drzwi" class="cls-1" d="M761.679,365.5a1.1,1.1,0,0,0-.775-0.319h-1.1v19.636h1.1a1.093,1.093,0,0,0,1.1-1.091V366.273A1.087,1.087,0,0,0,761.679,365.5Zm-4.455-2.246a1.1,1.1,0,0,0-.9-0.238L743.906,365.2a1.092,1.092,0,0,0-.906,1.074v17.453a1.093,1.093,0,0,0,.906,1.075l12.423,2.181a1.017,1.017,0,0,0,.19.017,1.1,1.1,0,0,0,.705-0.255,1.088,1.088,0,0,0,.391-0.836V364.091A1.091,1.091,0,0,0,757.224,363.255ZM752.91,376.5a1.1,1.1,0,0,1-1.872-.772,1.1,1.1,0,0,1,.321-0.771,1.1,1.1,0,0,1,1.551,0A1.088,1.088,0,0,1,752.91,376.5Z" transform="translate(-743 -363.031)"/>
</svg>
