<?xml version="1.0" encoding="utf-8"?>
<!-- Generator: Adobe Illustrator 14.0.0, SVG Export Plug-In . SVG Version: 6.00 Build 43363)  -->
<!DOCTYPE svg PUBLIC "-//W3C//DTD SVG 1.1//EN" "http://www.w3.org/Graphics/SVG/1.1/DTD/svg11.dtd">
<svg version="1.1" id="Warstwa_1" xmlns="http://www.w3.org/2000/svg" xmlns:xlink="http://www.w3.org/1999/xlink" x="0px" y="0px"
	 width="26px" height="12px" viewBox="0 0 26 12" enable-background="new 0 0 26 12" xml:space="preserve">
<path fill="#E10E1A" d="M25.937,7.494l-1.953-3.076C23.881,4.25,23.637,4.12,23.448,4.12h-12.12C10.563,1.724,8.381,0,5.806,0
	C2.6,0,0,2.687,0,6c0,3.314,2.6,6,5.806,6c2.571,0,4.749-1.727,5.518-4.12h4.368c0.192,0,0.462,0.107,0.603,0.245l2.371,2.281
	c0.14,0.138,0.37,0.138,0.51,0l1.642-1.574c0.141-0.138,0.37-0.138,0.51,0l1.642,1.574c0.141,0.138,0.363,0.13,0.503-0.008
	l2.404-2.365C26.015,7.9,26.041,7.659,25.937,7.494z M5.814,7.846C4.826,7.846,4.028,7.017,4.028,6c0-1.016,0.802-1.846,1.786-1.846
	C6.798,4.154,7.6,4.984,7.6,6C7.6,7.017,6.801,7.846,5.814,7.846z"/>
</svg>
