<?xml version="1.0" encoding="utf-8"?>
<!-- Generator: Adobe Illustrator 14.0.0, SVG Export Plug-In  -->
<!DOCTYPE svg PUBLIC "-//W3C//DTD SVG 1.1//EN" "http://www.w3.org/Graphics/SVG/1.1/DTD/svg11.dtd" [
	<!ENTITY ns_flows "http://ns.adobe.com/Flows/1.0/">
]>
<svg version="1.1"
	 xmlns="http://www.w3.org/2000/svg" xmlns:xlink="http://www.w3.org/1999/xlink" xmlns:a="http://ns.adobe.com/AdobeSVGViewerExtensions/3.0/"
	 x="0px" y="0px" width="23px" height="26px" viewBox="0 0 23 26" enable-background="new 0 0 23 26" xml:space="preserve">
<defs>
</defs>
<path fill="#E10E1A" d="M11.5,0C5.152,0,0,4.868,0,10.897C0,16.929,5.152,21.79,11.5,21.79S23,16.923,23,10.893S17.848,0,11.5,0z
	 M12.13,1.157c2.177,0,3.939,0.929,3.939,2.065c0,0.907-1.676,1.157-3.729,4.145c-0.275-0.063-1.816-0.292-3.077,0.659
	C8.698,6.147,8.196,3.817,8.196,3.217C8.191,2.065,9.948,1.157,12.13,1.157z M13.467,10.893c0,1.072-0.878,1.937-1.967,1.937
	c-1.088,0-1.967-0.865-1.967-1.937s0.878-1.938,1.967-1.938C12.589,8.955,13.467,9.82,13.467,10.893z M1.611,10.255
	c0-2.144,0.943-3.88,2.096-3.88c0.921,0,1.175,1.651,4.208,3.674c-0.064,0.271-0.269,1.768,0.669,3.031
	c-1.908,0.557-4.274,1.051-4.883,1.051C2.554,14.158,1.611,12.4,1.611,10.255z M10.87,20.634c-2.177,0-3.939-0.93-3.939-2.065
	c0-0.908,1.676-1.157,3.729-4.146c1.24,0.26,2.452-0.186,3.077-0.658c0.566,1.879,1.067,4.209,1.067,4.81
	C14.809,19.704,13.052,20.634,10.87,20.634z M19.292,15.394c-0.922,0-1.175-1.651-4.209-3.673c0.065-0.271,0.458-1.869-0.668-3.031
	c1.908-0.557,4.273-1.051,4.882-1.051c1.153,0,2.096,1.736,2.096,3.88C21.394,13.664,20.446,15.394,19.292,15.394z"/>
<path fill="#E10E1A" d="M15.272,22.306c-1.196,0.35-2.452,0.557-3.772,0.557s-2.576-0.186-3.772-0.557l-0.964,2.829
	C6.618,25.57,6.93,26,7.394,26h8.191c0.463,0,0.776-0.436,0.63-0.865L15.272,22.306z M12.421,24.949h-1.843
	c-0.291,0-0.523-0.228-0.523-0.515c0-0.287,0.232-0.515,0.523-0.515h1.843c0.291,0,0.523,0.229,0.523,0.515
	C12.944,24.721,12.712,24.949,12.421,24.949z"/>
</svg>
