<?xml version="1.0" encoding="utf-8"?>
<!-- Generator: Adobe Illustrator 14.0.0, SVG Export Plug-In . SVG Version: 6.00 Build 43363)  -->
<!DOCTYPE svg PUBLIC "-//W3C//DTD SVG 1.1//EN" "http://www.w3.org/Graphics/SVG/1.1/DTD/svg11.dtd">
<svg version="1.1" id="Warstwa_1" xmlns="http://www.w3.org/2000/svg" xmlns:xlink="http://www.w3.org/1999/xlink" x="0px" y="0px"
	 width="20px" height="26.001px" viewBox="0 0 20 26.001" enable-background="new 0 0 20 26.001" xml:space="preserve">
<path fill="#E10E1A" d="M18.581,10.5h-0.507V8.129c0-4.386-3.483-8.049-7.836-8.127C10.119,0,9.881,0,9.762,0.002
	C5.409,0.08,1.926,3.743,1.926,8.129V10.5H1.419C0.637,10.5,0,11.306,0,12.302v11.892c0,0.995,0.637,1.808,1.419,1.808h17.162
	c0.782,0,1.419-0.813,1.419-1.808V12.302C20,11.307,19.363,10.5,18.581,10.5z M11.608,18.236v3.593c0,0.412-0.345,0.76-0.757,0.76
	H9.149c-0.413,0-0.757-0.349-0.757-0.76v-3.593c-0.399-0.394-0.632-0.938-0.632-1.539c0-1.14,0.882-2.119,2.002-2.164
	c0.119-0.004,0.357-0.004,0.476,0c1.121,0.045,2.002,1.024,2.002,2.164C12.24,17.298,12.008,17.842,11.608,18.236z M14.732,10.5
	h-4.495H9.762H5.268V8.129c0-2.612,2.125-4.773,4.732-4.773s4.732,2.161,4.732,4.773V10.5L14.732,10.5z"/>
</svg>
