<?xml version="1.0" encoding="utf-8"?>
<!-- Generator: Adobe Illustrator 14.0.0, SVG Export Plug-In . SVG Version: 6.00 Build 43363)  -->
<!DOCTYPE svg PUBLIC "-//W3C//DTD SVG 1.1//EN" "http://www.w3.org/Graphics/SVG/1.1/DTD/svg11.dtd">
<svg version="1.1" id="Warstwa_1" xmlns="http://www.w3.org/2000/svg" xmlns:xlink="http://www.w3.org/1999/xlink" x="0px" y="0px"
	 width="19px" height="26px" viewBox="0 0 19 26" enable-background="new 0 0 19 26" xml:space="preserve">
<path fill="#E10E1A" d="M11.597,19.506c1.419,0.48,2.673,0.787,4.474,1.333C15.379,29.477,7.112,26.046,11.597,19.506z
	 M18.978,11.572c-0.093-2.593-0.555-5.996-4.239-5.463c-1.726,0.446-3.002,2.319-3.602,5.551c-0.33,1.777-0.138,4.271,0.251,5.766
	c0.355,1.054,0.234,0.989,0.616,1.189c1.476,0.328,2.938,0.692,4.426,1.063C17.942,18.623,19.184,13.023,18.978,11.572z
	 M7.612,11.373c0.388-1.496,0.58-3.99,0.251-5.766C7.263,2.374,5.988,0.5,4.261,0.056C0.578-0.478,0.115,2.925,0.022,5.518
	c-0.206,1.451,1.036,7.051,2.548,8.106c1.488-0.371,2.95-0.734,4.426-1.063C7.378,12.361,7.257,12.426,7.612,11.373z M2.929,14.786
	c0.692,8.637,8.959,5.207,4.474-1.333C5.984,13.934,4.73,14.239,2.929,14.786z"/>
</svg>
