<?xml version="1.0" encoding="utf-8"?>
<!-- Generator: Adobe Illustrator 14.0.0, SVG Export Plug-In . SVG Version: 6.00 Build 43363)  -->
<!DOCTYPE svg PUBLIC "-//W3C//DTD SVG 1.1//EN" "http://www.w3.org/Graphics/SVG/1.1/DTD/svg11.dtd">
<svg version="1.1" id="Warstwa_1" xmlns="http://www.w3.org/2000/svg" xmlns:xlink="http://www.w3.org/1999/xlink" x="0px" y="0px"
	 width="26px" height="26.001px" viewBox="0 0 26 26.001" enable-background="new 0 0 26 26.001" xml:space="preserve">
<path fill="#E10E1A" d="M19.943,0.001c0,0-11.143,0-11.543,0C5.829-0.058,3.771,2.877,3.314,7.044h-1.6C0.8,7.044,0,7.807,0,8.746
	c0,0.939,0.743,1.702,1.714,1.702h1.6c0.457,4.108,2.457,7.102,4.914,7.277h3.657v5.459c0,1.585,1.257,2.817,2.8,2.817H23.2
	c1.542,0,2.8-1.292,2.8-2.817V6.164C26,2.759,23.257,0.001,19.943,0.001z M8.4,16.023c-1.429,0-2.971-2.171-3.372-5.518h2.286
	c0.915,0,1.714-0.762,1.714-1.701c0-0.939-0.743-1.702-1.714-1.702H5.028c0.4-3.345,1.943-5.4,3.372-5.4
	c1.657,0,3.486,2.818,3.486,7.103C11.886,13.088,10.057,16.023,8.4,16.023z M24.286,23.243c0,0.586-0.457,1.115-1.086,1.115h-8.514
	c-0.571,0-1.085-0.469-1.085-1.115c0,0,0-14.086,0-14.438c0-2.876-0.743-5.4-1.943-7.043H20c2.4,0,4.286,1.996,4.286,4.402V23.243
	L24.286,23.243z"/>
</svg>
