<svg xmlns="http://www.w3.org/2000/svg" width="12" height="24" viewBox="0 0 12 24">
  <metadata><?xpacket begin="﻿" id="W5M0MpCehiHzreSzNTczkc9d"?>
<x:xmpmeta xmlns:x="adobe:ns:meta/" x:xmptk="Adobe XMP Core 5.6-c138 79.159824, 2016/09/14-01:09:01        ">
   <rdf:RDF xmlns:rdf="http://www.w3.org/1999/02/22-rdf-syntax-ns#">
      <rdf:Description rdf:about=""/>
   </rdf:RDF>
</x:xmpmeta>
                                                                                                    
                                                                                                    
                                                                                                    
                                                                                                    
                                                                                                    
                                                                                                    
                                                                                                    
                                                                                                    
                                                                                                    
                                                                                                    
                                                                                                    
                                                                                                    
                                                                                                    
                                                                                                    
                                                                                                    
                                                                                                    
                                                                                                    
                                                                                                    
                                                                                                    
                                                                                                    
                           
<?xpacket end="w"?></metadata>
<defs>
    <style>
      .cls-1 {
        fill: #e30613;
        fill-rule: evenodd;
      }
    </style>
  </defs>
  <path id="akcesoria_damskie" class="cls-1" d="M434.974,423A3.007,3.007,0,1,1,431.951,426,3.014,3.014,0,0,1,434.974,423h0Zm5.945,13.741-2.58-6.244a0.915,0.915,0,0,0-.884-0.731h-4.578a1.179,1.179,0,0,0-1.093.742l-2.68,6.2a1.041,1.041,0,0,0,.476,1.4h0a1.039,1.039,0,0,0,1.392-.463l0.009-.018,0.2-.407s0.063-.115.039,0.01c-0.146.762-.548,3.06-0.548,3.06a0.694,0.694,0,0,0,.5.846,0.71,0.71,0,0,0,.21.02h1.167c0.084,0,.07.063,0.07,0.063v4.615a1.086,1.086,0,0,0,2.163.19,1,1,0,0,0,0-.19V441.2a0.041,0.041,0,0,1,.04-0.042h0.3c0.041,0,.036.052,0.036,0.052v4.626a1.087,1.087,0,0,0,2.164.2,0.974,0.974,0,0,0,0-.2v-4.605a0.071,0.071,0,0,1,.064-0.074h1.276a0.719,0.719,0,0,0,.751-0.687,0.7,0.7,0,0,0-.017-0.189s-0.4-2.454-.511-3.133a1.473,1.473,0,0,1,.291.491,0.876,0.876,0,0,0,1.1.56,0.774,0.774,0,0,0,.139-0.059,1.05,1.05,0,0,0,.492-1.4h0Z" transform="translate(-429 -423)"/>
</svg>
