<svg xmlns="http://www.w3.org/2000/svg" width="22" height="22" viewBox="0 0 22 22">
  <metadata><?xpacket begin="﻿" id="W5M0MpCehiHzreSzNTczkc9d"?>
<x:xmpmeta xmlns:x="adobe:ns:meta/" x:xmptk="Adobe XMP Core 5.6-c140 79.160451, 2017/05/06-01:08:21        ">
   <rdf:RDF xmlns:rdf="http://www.w3.org/1999/02/22-rdf-syntax-ns#">
      <rdf:Description rdf:about=""/>
   </rdf:RDF>
</x:xmpmeta>
                                                                                                    
                                                                                                    
                                                                                                    
                                                                                                    
                                                                                                    
                                                                                                    
                                                                                                    
                                                                                                    
                                                                                                    
                                                                                                    
                                                                                                    
                                                                                                    
                                                                                                    
                                                                                                    
                                                                                                    
                                                                                                    
                                                                                                    
                                                                                                    
                                                                                                    
                                                                                                    
                           
<?xpacket end="w"?></metadata>
<defs>
    <style>
      .cls-1 {
        fill: #e20612;
        fill-rule: evenodd;
      }
    </style>
  </defs>
  <path id="rolety" class="cls-1" d="M958,5159H938a1,1,0,0,0-1,1v2a2.985,2.985,0,0,0,2,2.81V5180a1,1,0,0,0,1,1h16a1,1,0,0,0,1-1v-15.19a2.985,2.985,0,0,0,2-2.81v-2A1,1,0,0,0,958,5159Zm-3,8H941v-2h14v2Zm-14,7h14v2H941v-2Zm0-1v-2h14v2H941Zm0-3v-2h14v2H941Zm0,9v-2h14v2H941Zm16-17a1,1,0,0,1-1,1H940a1,1,0,0,1-1-1v-1h18v1Z" transform="translate(-937 -5159)"/>
</svg>
