<svg xmlns="http://www.w3.org/2000/svg" width="23.031" height="29" viewBox="0 0 23.031 29">
  <metadata><?xpacket begin="﻿" id="W5M0MpCehiHzreSzNTczkc9d"?>
<x:xmpmeta xmlns:x="adobe:ns:meta/" x:xmptk="Adobe XMP Core 5.6-c138 79.159824, 2016/09/14-01:09:01        ">
   <rdf:RDF xmlns:rdf="http://www.w3.org/1999/02/22-rdf-syntax-ns#">
      <rdf:Description rdf:about=""/>
   </rdf:RDF>
</x:xmpmeta>
                                                                                                    
                                                                                                    
                                                                                                    
                                                                                                    
                                                                                                    
                                                                                                    
                                                                                                    
                                                                                                    
                                                                                                    
                                                                                                    
                                                                                                    
                                                                                                    
                                                                                                    
                                                                                                    
                                                                                                    
                                                                                                    
                                                                                                    
                                                                                                    
                                                                                                    
                                                                                                    
                           
<?xpacket end="w"?></metadata>
<defs>
    <style>
      .cls-1 {
        fill: #e20612;
        fill-rule: evenodd;
      }
    </style>
  </defs>
  <path id="armatura_bezdotykowa" class="cls-1" d="M336.619,423.727L332.568,418l-4.051,5.727a4.545,4.545,0,0,0,1.942,6.823,5.457,5.457,0,0,0,4.218,0A4.545,4.545,0,0,0,336.619,423.727ZM321,441.064l2.181-2.158,6,5.936L327,447Zm22.661-8.335a1.166,1.166,0,0,0-1.636,0h0l-5.452,5.4v0a3.554,3.554,0,0,1-2.556,1.087h-4.049v-2.29h4.049a1.173,1.173,0,0,0,1.2-1.111,1.158,1.158,0,0,0-1.156-1.178H329.7a3.464,3.464,0,0,0-2.454,1.006l-2.049,2.027,5.218,5.164,3.415-.563a6.973,6.973,0,0,0,3.767-1.918l6.028-5.965,0.022-.023,0.012-.011A1.136,1.136,0,0,0,343.661,432.729Z" transform="translate(-321 -418)"/>
</svg>
