<svg xmlns="http://www.w3.org/2000/svg" width="24" height="24" viewBox="0 0 24 24">
  <metadata><?xpacket begin="﻿" id="W5M0MpCehiHzreSzNTczkc9d"?>
<x:xmpmeta xmlns:x="adobe:ns:meta/" x:xmptk="Adobe XMP Core 5.6-c138 79.159824, 2016/09/14-01:09:01        ">
   <rdf:RDF xmlns:rdf="http://www.w3.org/1999/02/22-rdf-syntax-ns#">
      <rdf:Description rdf:about=""/>
   </rdf:RDF>
</x:xmpmeta>
                                                                                                    
                                                                                                    
                                                                                                    
                                                                                                    
                                                                                                    
                                                                                                    
                                                                                                    
                                                                                                    
                                                                                                    
                                                                                                    
                                                                                                    
                                                                                                    
                                                                                                    
                                                                                                    
                                                                                                    
                                                                                                    
                                                                                                    
                                                                                                    
                                                                                                    
                                                                                                    
                           
<?xpacket end="w"?></metadata>
<defs>
    <style>
      .cls-1 {
        fill: #e30613;
        fill-rule: evenodd;
      }
    </style>
  </defs>
  <path id="schody" class="cls-1" d="M377.54,299.221a0.436,0.436,0,0,0,.616,0l4.09-4.091v1.913a0.436,0.436,0,0,0,.436.436h0.736a0.436,0.436,0,0,0,.436-0.436V292.82a0.437,0.437,0,0,0-.436-0.437H379.2a0.435,0.435,0,0,0-.436.436v0.736a0.436,0.436,0,0,0,.436.437h1.912l-4.091,4.09a0.439,0.439,0,0,0,0,.617ZM397.564,289h-3.928a0.436,0.436,0,0,0-.436.436v3.927a0.437,0.437,0,0,1-.436.437h-3.928a0.436,0.436,0,0,0-.436.436v3.928a0.436,0.436,0,0,1-.436.436h-3.928a0.436,0.436,0,0,0-.436.436v3.928a0.436,0.436,0,0,1-.436.436h-3.928a0.436,0.436,0,0,0-.436.436v3.928a0.436,0.436,0,0,1-.436.436h-3.928a0.436,0.436,0,0,0-.436.436v3.928a0.436,0.436,0,0,0,.436.436h22.056A1.508,1.508,0,0,0,398,311.492V289.436A0.436,0.436,0,0,0,397.564,289Zm-3.383,12.611-4.091,4.09H392a0.437,0.437,0,0,1,.436.436v0.737a0.436,0.436,0,0,1-.436.436h-4.222a0.435,0.435,0,0,1-.435-0.436v-4.223a0.435,0.435,0,0,1,.435-0.436h0.737a0.428,0.428,0,0,1,.308.127,0.437,0.437,0,0,1,.128.309v1.915l4.091-4.093a0.435,0.435,0,0,1,.616,0l0.522,0.521A0.437,0.437,0,0,1,394.181,301.611Z" transform="translate(-374 -289)"/>
</svg>
