<svg xmlns="http://www.w3.org/2000/svg" width="20" height="24" viewBox="0 0 20 24">
  <metadata><?xpacket begin="﻿" id="W5M0MpCehiHzreSzNTczkc9d"?>
<x:xmpmeta xmlns:x="adobe:ns:meta/" x:xmptk="Adobe XMP Core 5.6-c138 79.159824, 2016/09/14-01:09:01        ">
   <rdf:RDF xmlns:rdf="http://www.w3.org/1999/02/22-rdf-syntax-ns#">
      <rdf:Description rdf:about=""/>
   </rdf:RDF>
</x:xmpmeta>
                                                                                                    
                                                                                                    
                                                                                                    
                                                                                                    
                                                                                                    
                                                                                                    
                                                                                                    
                                                                                                    
                                                                                                    
                                                                                                    
                                                                                                    
                                                                                                    
                                                                                                    
                                                                                                    
                                                                                                    
                                                                                                    
                                                                                                    
                                                                                                    
                                                                                                    
                                                                                                    
                           
<?xpacket end="w"?></metadata>
<defs>
    <style>
      .cls-1 {
        fill: #e20612;
        fill-rule: evenodd;
      }
    </style>
  </defs>
  <path id="muszla_klozetowa" class="cls-1" d="M601,4353.06h-9.2v-8.79a2.273,2.273,0,0,0-2.27-2.27H584.3a2.273,2.273,0,0,0-2.269,2.27v9.27c0,0.08.007,0.16,0.015,0.24a0.988,0.988,0,0,0-.043.28v1.7a1.092,1.092,0,0,0,.028.24,7.559,7.559,0,0,0,3.519,5.52v0.52a2.137,2.137,0,0,0,1.112,3.96h9.165a2.136,2.136,0,0,0,.223-4.26c3.822-.85,5.461-3.48,5.7-5.87l0.238-1.67a0.976,0.976,0,0,0-.235-0.79A1,1,0,0,0,601,4353.06Zm-16.7-9.07h5.229a0.281,0.281,0,0,1,.276.28v8.79h-5.78v-8.79A0.28,0.28,0,0,1,584.3,4343.99Zm15.472,11.62a0.261,0.261,0,0,0-.006.05c-0.114,1.18-.878,3.98-5.515,4.32a1,1,0,0,0-.8,1.47l0.938,1.75a1,1,0,0,0,.877.52h0.564a0.14,0.14,0,0,1,0,.28h-9.164a0.139,0.139,0,0,1-.14-0.14,0.135,0.135,0,0,1,.125-0.13,1,1,0,0,0,.9-0.99v-1.88a1.006,1.006,0,0,0-.684-0.95c-1.5-.49-2.688-2.6-2.862-4.25,0-.01,0-0.02,0-0.03v-0.57H599.85Z" transform="translate(-582 -4342)"/>
</svg>
