<svg xmlns="http://www.w3.org/2000/svg" width="22" height="24" viewBox="0 0 22 24">
  <metadata><?xpacket begin="﻿" id="W5M0MpCehiHzreSzNTczkc9d"?>
<x:xmpmeta xmlns:x="adobe:ns:meta/" x:xmptk="Adobe XMP Core 5.6-c138 79.159824, 2016/09/14-01:09:01        ">
   <rdf:RDF xmlns:rdf="http://www.w3.org/1999/02/22-rdf-syntax-ns#">
      <rdf:Description rdf:about=""/>
   </rdf:RDF>
</x:xmpmeta>
                                                                                                    
                                                                                                    
                                                                                                    
                                                                                                    
                                                                                                    
                                                                                                    
                                                                                                    
                                                                                                    
                                                                                                    
                                                                                                    
                                                                                                    
                                                                                                    
                                                                                                    
                                                                                                    
                                                                                                    
                                                                                                    
                                                                                                    
                                                                                                    
                                                                                                    
                                                                                                    
                           
<?xpacket end="w"?></metadata>
<defs>
    <style>
      .cls-1 {
        fill: #e20612;
        fill-rule: evenodd;
      }
    </style>
  </defs>
  <path id="naglosnienie" class="cls-1" d="M656.853,290.106a0.434,0.434,0,0,0-.34-0.105l-13.373,1.75a0.435,0.435,0,0,0-.375.433v15.542a4.455,4.455,0,0,0-3.451-1.581,3.945,3.945,0,1,0,4.313,3.927c0-.1-0.008-0.2-0.016-0.3a0.479,0.479,0,0,0,.016-0.084V297.032l12.51-1.638v7.967a4.456,4.456,0,0,0-3.451-1.58A3.945,3.945,0,1,0,657,305.766s0-.01,0-0.016V290.434A0.436,0.436,0,0,0,656.853,290.106Z" transform="translate(-635 -290)"/>
</svg>
