<svg xmlns="http://www.w3.org/2000/svg" width="24" height="21" viewBox="0 0 24 21">
  <metadata><?xpacket begin="﻿" id="W5M0MpCehiHzreSzNTczkc9d"?>
<x:xmpmeta xmlns:x="adobe:ns:meta/" x:xmptk="Adobe XMP Core 5.6-c138 79.159824, 2016/09/14-01:09:01        ">
   <rdf:RDF xmlns:rdf="http://www.w3.org/1999/02/22-rdf-syntax-ns#">
      <rdf:Description rdf:about=""/>
   </rdf:RDF>
</x:xmpmeta>
                                                                                                    
                                                                                                    
                                                                                                    
                                                                                                    
                                                                                                    
                                                                                                    
                                                                                                    
                                                                                                    
                                                                                                    
                                                                                                    
                                                                                                    
                                                                                                    
                                                                                                    
                                                                                                    
                                                                                                    
                                                                                                    
                                                                                                    
                                                                                                    
                                                                                                    
                                                                                                    
                           
<?xpacket end="w"?></metadata>
<defs>
    <style>
      .cls-1 {
        fill: #e20612;
        fill-rule: evenodd;
      }
    </style>
  </defs>
  <path id="podlaczenie_wody" class="cls-1" d="M344.408,294.051a1.6,1.6,0,0,0-1.591,1.614v0.262h-6.552v-1.881a0.454,0.454,0,0,0-.451-0.457h-0.668V291.5h3.82a1.748,1.748,0,0,0,0-3.5h-9.932a1.748,1.748,0,0,0,0,3.5h3.82v2.093h-0.669a0.454,0.454,0,0,0-.45.457v1.881h-6.552v-0.262a1.592,1.592,0,1,0-3.183,0v11.721a1.592,1.592,0,1,0,3.183,0v-0.262h17.634v0.262a1.592,1.592,0,1,0,3.183,0V295.665A1.6,1.6,0,0,0,344.408,294.051Z" transform="translate(-322 -288)"/>
</svg>
