<svg xmlns="http://www.w3.org/2000/svg" width="24" height="18" viewBox="0 0 24 18">
  <metadata><?xpacket begin="﻿" id="W5M0MpCehiHzreSzNTczkc9d"?>
<x:xmpmeta xmlns:x="adobe:ns:meta/" x:xmptk="Adobe XMP Core 5.6-c138 79.159824, 2016/09/14-01:09:01        ">
   <rdf:RDF xmlns:rdf="http://www.w3.org/1999/02/22-rdf-syntax-ns#">
      <rdf:Description rdf:about=""/>
   </rdf:RDF>
</x:xmpmeta>
                                                                                                    
                                                                                                    
                                                                                                    
                                                                                                    
                                                                                                    
                                                                                                    
                                                                                                    
                                                                                                    
                                                                                                    
                                                                                                    
                                                                                                    
                                                                                                    
                                                                                                    
                                                                                                    
                                                                                                    
                                                                                                    
                                                                                                    
                                                                                                    
                                                                                                    
                                                                                                    
                           
<?xpacket end="w"?></metadata>
<defs>
    <style>
      .cls-1 {
        fill: #e20612;
        fill-rule: evenodd;
      }
    </style>
  </defs>
  <path id="zapach" class="cls-1" d="M490.972,432.736a6.439,6.439,0,1,0-12.865,0,1.11,1.11,0,1,0,2.218,0,4.218,4.218,0,1,1,4.214,4.413H474.114a1.162,1.162,0,0,0,0,2.322h10.425A6.6,6.6,0,0,0,490.972,432.736Zm2.251,3.367a3.867,3.867,0,0,0-3.77,3.949,1.11,1.11,0,1,0,2.218,0,1.554,1.554,0,1,1,1.552,1.625h-5.856a1.163,1.163,0,0,0,0,2.323h5.856A3.953,3.953,0,0,0,493.223,436.1Zm-9.05,5.574h-7.5a1.163,1.163,0,0,0,0,2.323h7.5A1.163,1.163,0,0,0,484.173,441.677Z" transform="translate(-473 -426)"/>
</svg>
