<svg xmlns="http://www.w3.org/2000/svg" width="24" height="23.969" viewBox="0 0 24 23.969">
  <metadata><?xpacket begin="﻿" id="W5M0MpCehiHzreSzNTczkc9d"?>
<x:xmpmeta xmlns:x="adobe:ns:meta/" x:xmptk="Adobe XMP Core 5.6-c138 79.159824, 2016/09/14-01:09:01        ">
   <rdf:RDF xmlns:rdf="http://www.w3.org/1999/02/22-rdf-syntax-ns#">
      <rdf:Description rdf:about=""/>
   </rdf:RDF>
</x:xmpmeta>
                                                                                                    
                                                                                                    
                                                                                                    
                                                                                                    
                                                                                                    
                                                                                                    
                                                                                                    
                                                                                                    
                                                                                                    
                                                                                                    
                                                                                                    
                                                                                                    
                                                                                                    
                                                                                                    
                                                                                                    
                                                                                                    
                                                                                                    
                                                                                                    
                                                                                                    
                                                                                                    
                           
<?xpacket end="w"?></metadata>
<defs>
    <style>
      .cls-1 {
        fill: #e30613;
        fill-rule: evenodd;
      }
    </style>
  </defs>
  <path id="sprzatanie" class="cls-1" d="M448.584,362.415a1.417,1.417,0,0,0-2,0l-7.72,7.72-1.391-1.391a1.187,1.187,0,0,0-1.679,0l-0.836.837-6.077,1.448-3.237.772a0.832,0.832,0,0,0-.477,1.3A59.777,59.777,0,0,0,437.9,385.838a0.831,0.831,0,0,0,1.3-.476l0.967-4.055q0.627-2.63,1.253-5.259l0.837-.837a1.188,1.188,0,0,0,0-1.679l-1.391-1.391,7.719-7.72A1.418,1.418,0,0,0,448.584,362.415Zm-10.707,21.327q-1.014-.78-1.989-1.6l1.094-3.085-2.163,2.163q-1.168-1.032-2.278-2.127l1.087-1.717-1.723,1.081q-1.017-1.032-1.981-2.115l2.171-2.172-3.1,1.1q-0.891-1.05-1.734-2.145l7.4-1.764,4.982,4.983Z" transform="translate(-425 -362.031)"/>
</svg>
