<svg xmlns="http://www.w3.org/2000/svg" width="25.969" height="19" viewBox="0 0 25.969 19">
  <metadata><?xpacket begin="﻿" id="W5M0MpCehiHzreSzNTczkc9d"?>
<x:xmpmeta xmlns:x="adobe:ns:meta/" x:xmptk="Adobe XMP Core 5.6-c138 79.159824, 2016/09/14-01:09:01        ">
   <rdf:RDF xmlns:rdf="http://www.w3.org/1999/02/22-rdf-syntax-ns#">
      <rdf:Description rdf:about=""/>
   </rdf:RDF>
</x:xmpmeta>
                                                                                                    
                                                                                                    
                                                                                                    
                                                                                                    
                                                                                                    
                                                                                                    
                                                                                                    
                                                                                                    
                                                                                                    
                                                                                                    
                                                                                                    
                                                                                                    
                                                                                                    
                                                                                                    
                                                                                                    
                                                                                                    
                                                                                                    
                                                                                                    
                                                                                                    
                                                                                                    
                           
<?xpacket end="w"?></metadata>
<defs>
    <style>
      .cls-1 {
        fill: #e20612;
        fill-rule: evenodd;
      }
    </style>
  </defs>
  <path id="wieszak" class="cls-1" d="M429.764,7113.93l-10.751-6.86v-0.51a0.9,0.9,0,0,1,.482-0.77,1.465,1.465,0,0,1,.142-0.09,2.905,2.905,0,0,0,1.609-2.54,3.252,3.252,0,0,0-2.527-3.06,3.293,3.293,0,0,0-3.268.91,3.44,3.44,0,0,0-.944,2.5c0,0.08-.006.24-0.008,0.4a0.889,0.889,0,0,0,.965.41h0.193a0.9,0.9,0,0,0,.969-0.41c0-.18,0-0.37,0-0.4a1.149,1.149,0,0,1,.957-1.32,1.409,1.409,0,0,1,1.238.33,0.765,0.765,0,0,1,.181.59,0.893,0.893,0,0,1-.366.65l-0.921.63a1.678,1.678,0,0,0-.838,1.54v1.14l-10.643,6.83a2.767,2.767,0,0,0-1.113,3.18,2.67,2.67,0,0,0,2.79,1.92h20.305a2.72,2.72,0,0,0,2.683-1.95A2.84,2.84,0,0,0,429.764,7113.93Zm-1.092,2.39a0.5,0.5,0,0,1-.484.37h-20.3a0.5,0.5,0,0,1-.491-0.35,0.492,0.492,0,0,1,.211-0.55l10.4-6.63,10.461,6.65A0.443,0.443,0,0,1,428.672,7116.32Z" transform="translate(-405.031 -7100)"/>
</svg>
