<svg xmlns="http://www.w3.org/2000/svg" width="24" height="20" viewBox="0 0 24 20">
  <metadata><?xpacket begin="﻿" id="W5M0MpCehiHzreSzNTczkc9d"?>
<x:xmpmeta xmlns:x="adobe:ns:meta/" x:xmptk="Adobe XMP Core 5.6-c138 79.159824, 2016/09/14-01:09:01        ">
   <rdf:RDF xmlns:rdf="http://www.w3.org/1999/02/22-rdf-syntax-ns#">
      <rdf:Description rdf:about=""/>
   </rdf:RDF>
</x:xmpmeta>
                                                                                                    
                                                                                                    
                                                                                                    
                                                                                                    
                                                                                                    
                                                                                                    
                                                                                                    
                                                                                                    
                                                                                                    
                                                                                                    
                                                                                                    
                                                                                                    
                                                                                                    
                                                                                                    
                                                                                                    
                                                                                                    
                                                                                                    
                                                                                                    
                                                                                                    
                                                                                                    
                           
<?xpacket end="w"?></metadata>
<defs>
    <style>
      .cls-1 {
        fill: #e20612;
        fill-rule: evenodd;
      }
    </style>
  </defs>
  <path id="przyczepa_ogrzewanie" class="cls-1" d="M658.5,381.959H655.42V374.58a0.5,0.5,0,0,0-.148-0.357l-7.09-7.077A0.5,0.5,0,0,0,647.83,367h-9.248A3.479,3.479,0,0,0,635,370.235v9.621a3.222,3.222,0,0,0,2.966,3.106c0.02,0,.041,0,0.061,0h3.838a3.7,3.7,0,0,0-.022.4,3.613,3.613,0,1,0,7.226,0,3.453,3.453,0,0,0-.022-0.4H658.5A0.5,0.5,0,1,0,658.5,381.959Zm-13.04,4.034a2.631,2.631,0,1,1,2.615-2.631A2.625,2.625,0,0,1,645.455,385.993Zm1.333-7.368a4.3,4.3,0,0,0-1.33-5.244,3.33,3.33,0,0,1-.718,2.482,1.72,1.72,0,0,0-.234-1.313,4.2,4.2,0,0,1-.626,1.457,2.288,2.288,0,0,0-.179,2.618c-1.882-1.068-2.378-2.079-2.094-3.46,0.209-1.02.981-1.85,1.047-2.868a3.053,3.053,0,0,1,.36,1.483c0.931-1.148,1.9-2.684,1.687-4.089,0,0,1.765.558,2.479,3.283a1.5,1.5,0,0,0,.173-1.615C647.979,371.818,651.575,375.9,646.788,378.625Z" transform="translate(-635 -367)"/>
</svg>
