<svg xmlns="http://www.w3.org/2000/svg" width="26" height="12" viewBox="0 0 26 12">
  <metadata><?xpacket begin="﻿" id="W5M0MpCehiHzreSzNTczkc9d"?>
<x:xmpmeta xmlns:x="adobe:ns:meta/" x:xmptk="Adobe XMP Core 5.6-c138 79.159824, 2016/09/14-01:09:01        ">
   <rdf:RDF xmlns:rdf="http://www.w3.org/1999/02/22-rdf-syntax-ns#">
      <rdf:Description rdf:about=""/>
   </rdf:RDF>
</x:xmpmeta>
                                                                                                    
                                                                                                    
                                                                                                    
                                                                                                    
                                                                                                    
                                                                                                    
                                                                                                    
                                                                                                    
                                                                                                    
                                                                                                    
                                                                                                    
                                                                                                    
                                                                                                    
                                                                                                    
                                                                                                    
                                                                                                    
                                                                                                    
                                                                                                    
                                                                                                    
                                                                                                    
                           
<?xpacket end="w"?></metadata>
<defs>
    <style>
      .cls-1 {
        fill: #e20612;
        fill-rule: evenodd;
      }
    </style>
  </defs>
  <path id="klamra" class="cls-1" d="M590,2652h-4a3.006,3.006,0,0,0-3-3h-8a3.006,3.006,0,0,0-3,3h-4a2.006,2.006,0,0,0-2,2v2a2.006,2.006,0,0,0,2,2h4a3.006,3.006,0,0,0,3,3h8a3.006,3.006,0,0,0,3-3h4a2.006,2.006,0,0,0,2-2v-2A2.006,2.006,0,0,0,590,2652Zm-7,7h-8a1,1,0,0,1-1-1,2.006,2.006,0,0,0,2-2v-2a2.006,2.006,0,0,0-2-2,1,1,0,0,1,1-1h8a1,1,0,0,1,1,1,2.006,2.006,0,0,0-2,2v2a2.006,2.006,0,0,0,2,2A1,1,0,0,1,583,2659Z" transform="translate(-566 -2649)"/>
</svg>
