<svg xmlns="http://www.w3.org/2000/svg" width="26" height="25" viewBox="0 0 26 25">
  <metadata><?xpacket begin="﻿" id="W5M0MpCehiHzreSzNTczkc9d"?>
<x:xmpmeta xmlns:x="adobe:ns:meta/" x:xmptk="Adobe XMP Core 5.6-c138 79.159824, 2016/09/14-01:09:01        ">
   <rdf:RDF xmlns:rdf="http://www.w3.org/1999/02/22-rdf-syntax-ns#">
      <rdf:Description rdf:about=""/>
   </rdf:RDF>
</x:xmpmeta>
                                                                                                    
                                                                                                    
                                                                                                    
                                                                                                    
                                                                                                    
                                                                                                    
                                                                                                    
                                                                                                    
                                                                                                    
                                                                                                    
                                                                                                    
                                                                                                    
                                                                                                    
                                                                                                    
                                                                                                    
                                                                                                    
                                                                                                    
                                                                                                    
                                                                                                    
                                                                                                    
                           
<?xpacket end="w"?></metadata>
<defs>
    <style>
      .cls-1 {
        fill: #e20612;
        fill-rule: evenodd;
      }
    </style>
  </defs>
  <path id="montaz" class="cls-1" d="M976.09,2874.46a2.7,2.7,0,0,1,1.8-.44l7.105-7.06-3.979-3.95-7.105,7.06a2.666,2.666,0,0,1-.462,1.81Zm-12.394,8.59-0.257-.25-1.347,1.08-2.269,3.55L960.4,2888l3.578-2.25,1.088-1.33-0.258-.26,4.518-4.49-1.123-1.1Zm6.18-12.44a5.484,5.484,0,0,0-1.415-5.38,5.578,5.578,0,0,0-5.373-1.42l3.14,3.12-0.824,3.05-3.079.82-3.139-3.11a5.468,5.468,0,0,0,1.43,5.33,5.575,5.575,0,0,0,5.649,1.34l0.017,0.02L979.2,2887.2a2.609,2.609,0,0,0,3.7,0,2.582,2.582,0,0,0,0-3.67Zm11.4,16.16a1,1,0,1,1,1-.99A1,1,0,0,1,981.275,2886.77Z" transform="translate(-959 -2863)"/>
</svg>
