<svg xmlns="http://www.w3.org/2000/svg" width="24" height="22" viewBox="0 0 24 22">
  <metadata><?xpacket begin="﻿" id="W5M0MpCehiHzreSzNTczkc9d"?>
<x:xmpmeta xmlns:x="adobe:ns:meta/" x:xmptk="Adobe XMP Core 5.6-c138 79.159824, 2016/09/14-01:09:01        ">
   <rdf:RDF xmlns:rdf="http://www.w3.org/1999/02/22-rdf-syntax-ns#">
      <rdf:Description rdf:about=""/>
   </rdf:RDF>
</x:xmpmeta>
                                                                                                    
                                                                                                    
                                                                                                    
                                                                                                    
                                                                                                    
                                                                                                    
                                                                                                    
                                                                                                    
                                                                                                    
                                                                                                    
                                                                                                    
                                                                                                    
                                                                                                    
                                                                                                    
                                                                                                    
                                                                                                    
                                                                                                    
                                                                                                    
                                                                                                    
                                                                                                    
                           
<?xpacket end="w"?></metadata>
<defs>
    <style>
      .cls-1 {
        fill: #e20612;
        fill-rule: evenodd;
      }
    </style>
  </defs>
  <path id="suszarka_do_rak" class="cls-1" d="M603.235,378.5a0.366,0.366,0,0,0,.371-0.361v-4.82a1.945,1.945,0,0,0-3.888,0v4.82a0.366,0.366,0,0,0,.371.361h3.146Zm-5.578,0a0.366,0.366,0,0,0,.371-0.361v-4.82a3.635,3.635,0,0,1,7.268,0v4.82a0.366,0.366,0,0,0,.37.361h1.489a0.834,0.834,0,0,0,.845-0.822V366.823a0.834,0.834,0,0,0-.845-0.823h-22.31a0.834,0.834,0,0,0-.845.823v10.856a0.834,0.834,0,0,0,.845.822h12.812Zm-5.84-5.428h-4.183a0.823,0.823,0,1,1,0-1.645h4.183A0.823,0.823,0,1,1,591.817,373.073Zm8.638,7.114a0.366,0.366,0,0,0-.366.312,8.677,8.677,0,0,1-.689,2.3,9.883,9.883,0,0,0-.907,4.379,0.845,0.845,0,0,0,1.69,0,8.428,8.428,0,0,1,.783-3.763,9.936,9.936,0,0,0,.816-2.822,0.357,0.357,0,0,0-.09-0.283,0.376,0.376,0,0,0-.278-0.122h-0.959Zm2.789,0a0.368,0.368,0,0,0-.367.312,8.652,8.652,0,0,1-.689,2.3,9.883,9.883,0,0,0-.907,4.379,0.846,0.846,0,0,0,1.691,0,8.428,8.428,0,0,1,.783-3.763,9.946,9.946,0,0,0,.816-2.822,0.357,0.357,0,0,0-.09-0.283,0.379,0.379,0,0,0-.278-0.122h-0.959Zm-5.577,0a0.366,0.366,0,0,0-.367.312,8.677,8.677,0,0,1-.689,2.3,9.883,9.883,0,0,0-.907,4.379,0.845,0.845,0,0,0,1.69,0,8.412,8.412,0,0,1,.784-3.763,9.981,9.981,0,0,0,.815-2.822,0.353,0.353,0,0,0-.09-0.283,0.376,0.376,0,0,0-.278-0.122h-0.958Z" transform="translate(-584 -366)"/>
</svg>
