<?xml version="1.0" encoding="utf-8"?>
<!-- Generator: Adobe Illustrator 14.0.0, SVG Export Plug-In . SVG Version: 6.00 Build 43363)  -->
<!DOCTYPE svg PUBLIC "-//W3C//DTD SVG 1.1//EN" "http://www.w3.org/Graphics/SVG/1.1/DTD/svg11.dtd">
<svg version="1.1" id="Warstwa_1" xmlns="http://www.w3.org/2000/svg" xmlns:xlink="http://www.w3.org/1999/xlink" x="0px" y="0px"
	 width="23px" height="25.007px" viewBox="0 0 23 25.007" enable-background="new 0 0 23 25.007" xml:space="preserve">
<path fill="#E10E1A" d="M18.013,7.257c0.031-0.258,0.053-0.517,0.053-0.783C18.065,2.904,15.12,0,11.5,0
	C7.879,0,4.934,2.904,4.934,6.474C4.934,6.74,4.956,7,4.987,7.257C1.977,9.302,0,12.721,0,16.598c0,2.658,0.932,5.094,2.487,7.024
	c0.705,0.875,1.777,1.385,2.911,1.385h12.205c1.132,0,2.207-0.51,2.911-1.385C22.067,21.692,23,19.255,23,16.598
	C23,12.721,21.023,9.302,18.013,7.257z M11.5,2.482c2.06,0,3.746,1.53,3.997,3.496C14.25,5.521,12.908,5.26,11.5,5.26
	S8.75,5.521,7.502,5.978C7.753,4.012,9.44,2.482,11.5,2.482z M10.727,18.712c-0.132,0.246-0.39,0.4-0.673,0.4
	c-0.271,0-0.522-0.142-0.66-0.373l-0.966-1.623l-0.393,0.477v0.764c0,0.417-0.342,0.755-0.765,0.755
	c-0.423,0-0.765-0.338-0.765-0.755v-5.537c0-0.417,0.342-0.754,0.765-0.754c0.422,0,0.765,0.337,0.765,0.754v3.483l1.144-1.708
	c0.141-0.209,0.379-0.336,0.634-0.336c0.254,0,0.484,0.147,0.588,0.375c0.104,0.228,0.064,0.496-0.105,0.684l-0.813,0.906
	l1.195,1.714C10.84,18.168,10.858,18.466,10.727,18.712z M16.483,15.698v2.709c0,0.933-0.191,1.697-0.744,2.184
	c-0.544,0.457-1.278,0.595-2.003,0.595c-0.405,0-0.826-0.051-1.192-0.151c-0.331-0.089-0.527-0.424-0.44-0.751
	c0.038-0.145,0.136-0.269,0.269-0.342c0.134-0.073,0.292-0.09,0.438-0.045c0.263,0.081,0.569,0.139,0.884,0.139
	c0.725,0,1.279-0.388,1.279-1.281v-0.317h-0.02c-0.292,0.407-0.765,0.635-1.329,0.635c-1.218,0-2.083-0.973-2.083-2.371
	c0-1.559,1.026-2.551,2.234-2.551c0.675,0,1.097,0.288,1.348,0.685h0.021c0.028-0.326,0.305-0.576,0.636-0.576h0.074
	c0.173,0,0.338,0.068,0.458,0.19c0.12,0.122,0.185,0.287,0.18,0.457C16.487,15.122,16.483,15.379,16.483,15.698z"/>
<path fill="#E10E1A" d="M14.098,15.292c-0.554,0-1.006,0.497-1.006,1.379c0,0.725,0.362,1.29,1.006,1.29
	c0.393,0,0.704-0.258,0.805-0.615c0.04-0.109,0.051-0.268,0.051-0.397v-0.714c0-0.1-0.011-0.199-0.03-0.278
	C14.813,15.56,14.521,15.292,14.098,15.292z"/>
</svg>
