<?xml version="1.0" encoding="utf-8"?>
<!-- Generator: Adobe Illustrator 14.0.0, SVG Export Plug-In . SVG Version: 6.00 Build 43363)  -->
<!DOCTYPE svg PUBLIC "-//W3C//DTD SVG 1.1//EN" "http://www.w3.org/Graphics/SVG/1.1/DTD/svg11.dtd">
<svg version="1.1" id="Warstwa_1" xmlns="http://www.w3.org/2000/svg" xmlns:xlink="http://www.w3.org/1999/xlink" x="0px" y="0px"
	 width="28px" height="27.993px" viewBox="0 0 28 27.993" enable-background="new 0 0 28 27.993" xml:space="preserve">
<path fill="#E10E1A" d="M18.693,25.395l0.523,2.078H1.011l0.523-2.078H0.629L0,27.993h20.357l-0.629-2.598H18.693z"/>
<path fill="#E10E1A" d="M11.219,1.498c0-0.574-0.462-1.039-1.031-1.039c-0.569,0-1.031,0.465-1.031,1.039v23.377h2.062V1.498z"/>
<path fill="#E10E1A" d="M22.563,11.454v15.5c0,0.573,0.462,1.039,1.031,1.039c0.569,0,1.031-0.466,1.031-1.039V11.473
	c-0.34,0.059-0.698,0.101-1.101,0.101C23.18,11.573,22.861,11.53,22.563,11.454z"/>
<path fill="#E10E1A" d="M18.161,25.395H2.066l-0.393,1.559h16.88L18.161,25.395z M2.467,26.212c-0.159,0-0.287-0.13-0.287-0.289
	c0-0.161,0.129-0.291,0.287-0.291s0.288,0.13,0.288,0.291C2.755,26.082,2.625,26.212,2.467,26.212z M17.459,26.282
	c-0.175,0-0.317-0.143-0.317-0.32c0-0.176,0.142-0.32,0.317-0.32c0.176,0,0.318,0.144,0.318,0.32
	C17.777,26.139,17.634,26.282,17.459,26.282z"/>
<path fill="#E10E1A" d="M22.91,1.579l-0.918,4.949l-0.764-5.512L19.049,0c0.006,3.617,0.168,11.054,4.476,11.054
	c4.4,0,4.475-4.024,4.476-7.65L22.91,1.579z"/>
</svg>
