<svg xmlns="http://www.w3.org/2000/svg" width="24" height="21.94" viewBox="0 0 24 21.94">
  <metadata><?xpacket begin="﻿" id="W5M0MpCehiHzreSzNTczkc9d"?>
<x:xmpmeta xmlns:x="adobe:ns:meta/" x:xmptk="Adobe XMP Core 5.6-c138 79.159824, 2016/09/14-01:09:01        ">
   <rdf:RDF xmlns:rdf="http://www.w3.org/1999/02/22-rdf-syntax-ns#">
      <rdf:Description rdf:about=""/>
   </rdf:RDF>
</x:xmpmeta>
                                                                                                    
                                                                                                    
                                                                                                    
                                                                                                    
                                                                                                    
                                                                                                    
                                                                                                    
                                                                                                    
                                                                                                    
                                                                                                    
                                                                                                    
                                                                                                    
                                                                                                    
                                                                                                    
                                                                                                    
                                                                                                    
                                                                                                    
                                                                                                    
                                                                                                    
                                                                                                    
                           
<?xpacket end="w"?></metadata>
<defs>
    <style>
      .cls-1 {
        fill: #e20612;
        fill-rule: evenodd;
      }
    </style>
  </defs>
  <path id="przylacze" class="cls-1" d="M594.239,4095.02a0.192,0.192,0,0,0-.275.17v1.21a0.928,0.928,0,0,1-.938.92h-8.054a0.928,0.928,0,0,1-.938-0.92v-1.21a0.192,0.192,0,0,0-.275-0.17,12.291,12.291,0,0,0,0,21.95,0.184,0.184,0,0,0,.275-0.16v-1.54a0.928,0.928,0,0,1,.938-0.92h8.054a0.928,0.928,0,0,1,.938.92v1.54a0.184,0.184,0,0,0,.275.16A12.291,12.291,0,0,0,594.239,4095.02Zm-8.333,14.32a1.42,1.42,0,0,1-1.921-.5,1.371,1.371,0,0,1,.514-1.89,1.423,1.423,0,0,1,1.921.51A1.36,1.36,0,0,1,585.906,4109.34Zm0.514-4.8a1.42,1.42,0,0,1-1.921.5,1.36,1.36,0,0,1-.514-1.88,1.42,1.42,0,0,1,1.921-.5A1.36,1.36,0,0,1,586.42,4104.54Zm2.579,7.13a1.375,1.375,0,1,1,1.407-1.38A1.389,1.389,0,0,1,589,4111.67Zm0-4.29a1.38,1.38,0,1,1,1.407-1.38A1.4,1.4,0,0,1,589,4107.38Zm0-4.3a1.38,1.38,0,1,1,1.407-1.38A1.4,1.4,0,0,1,589,4103.08Zm5.014,5.76a1.42,1.42,0,0,1-1.921.5,1.36,1.36,0,0,1-.514-1.88,1.423,1.423,0,0,1,1.921-.51A1.371,1.371,0,0,1,594.013,4108.84Zm-0.514-3.8a1.42,1.42,0,0,1-1.921-.5,1.36,1.36,0,0,1,.514-1.88,1.42,1.42,0,0,1,1.921.5A1.36,1.36,0,0,1,593.5,4105.04Z" transform="translate(-577 -4095.03)"/>
</svg>
