<svg xmlns="http://www.w3.org/2000/svg" width="26.032" height="18.28" viewBox="0 0 26.032 18.28">
  <metadata><?xpacket begin="﻿" id="W5M0MpCehiHzreSzNTczkc9d"?>
<x:xmpmeta xmlns:x="adobe:ns:meta/" x:xmptk="Adobe XMP Core 5.6-c138 79.159824, 2016/09/14-01:09:01        ">
   <rdf:RDF xmlns:rdf="http://www.w3.org/1999/02/22-rdf-syntax-ns#">
      <rdf:Description rdf:about=""/>
   </rdf:RDF>
</x:xmpmeta>
                                                                                                    
                                                                                                    
                                                                                                    
                                                                                                    
                                                                                                    
                                                                                                    
                                                                                                    
                                                                                                    
                                                                                                    
                                                                                                    
                                                                                                    
                                                                                                    
                                                                                                    
                                                                                                    
                                                                                                    
                                                                                                    
                                                                                                    
                                                                                                    
                                                                                                    
                                                                                                    
                           
<?xpacket end="w"?></metadata>
<defs>
    <style>
      .cls-1 {
        fill: #e20612;
        fill-rule: evenodd;
      }
    </style>
  </defs>
  <path id="transport_zwrotny" class="cls-1" d="M590.286,2981.19v-11.08a1.114,1.114,0,0,0-1.114-1.11H578.1a1.114,1.114,0,0,0-1.114,1.11v11.08a0.373,0.373,0,0,0,.372.37h12.557A0.373,0.373,0,0,0,590.286,2981.19Zm-8.94,3.79a2.312,2.312,0,1,0,2.311-2.31A2.308,2.308,0,0,0,581.346,2984.98Zm1.156,0a1.156,1.156,0,1,1,1.156,1.16A1.15,1.15,0,0,1,582.5,2984.98Zm3.147-2.31h5.179a0.373,0.373,0,0,1,.372.37v1.13a0.373,0.373,0,0,1-.372.37h-4.152A3.058,3.058,0,0,0,585.649,2982.67Zm-16.4,2.31a2.312,2.312,0,1,0,2.312-2.31A2.308,2.308,0,0,0,569.251,2984.98Zm1.156,0a1.156,1.156,0,1,1,1.156,1.16A1.15,1.15,0,0,1,570.407,2984.98Zm-5.242-1.94v1.13a0.373,0.373,0,0,0,.371.37h3.008a3.051,3.051,0,0,1,6.038,0h6.057a3.055,3.055,0,0,1,1.028-1.87h-5.743v-10.62a0.749,0.749,0,0,0-.743-0.75h-3.508a2.97,2.97,0,0,0-2.463,1.31l-2.261,3.35a2.963,2.963,0,0,0-.509,1.66v5.05h-0.9A0.373,0.373,0,0,0,565.165,2983.04Zm3.769-6.99,1.808-2.57a0.368,0.368,0,0,1,.3-0.16h2.821a0.373,0.373,0,0,1,.371.37v2.57a0.367,0.367,0,0,1-.371.37h-4.629A0.368,0.368,0,0,1,568.934,2976.05Z" transform="translate(-565.156 -2969)"/>
</svg>
