<svg xmlns="http://www.w3.org/2000/svg" width="26.032" height="18.28" viewBox="0 0 26.032 18.28">
  <metadata><?xpacket begin="﻿" id="W5M0MpCehiHzreSzNTczkc9d"?>
<x:xmpmeta xmlns:x="adobe:ns:meta/" x:xmptk="Adobe XMP Core 5.6-c138 79.159824, 2016/09/14-01:09:01        ">
   <rdf:RDF xmlns:rdf="http://www.w3.org/1999/02/22-rdf-syntax-ns#">
      <rdf:Description rdf:about=""/>
   </rdf:RDF>
</x:xmpmeta>
                                                                                                    
                                                                                                    
                                                                                                    
                                                                                                    
                                                                                                    
                                                                                                    
                                                                                                    
                                                                                                    
                                                                                                    
                                                                                                    
                                                                                                    
                                                                                                    
                                                                                                    
                                                                                                    
                                                                                                    
                                                                                                    
                                                                                                    
                                                                                                    
                                                                                                    
                                                                                                    
                           
<?xpacket end="w"?></metadata>
<defs>
    <style>
      .cls-1 {
        fill: #e20612;
        fill-rule: evenodd;
      }
    </style>
  </defs>
  <path id="transport_docelowy" class="cls-1" d="M566.713,2929.19v-11.08a1.114,1.114,0,0,1,1.115-1.11H578.9a1.114,1.114,0,0,1,1.115,1.11v11.08a0.373,0.373,0,0,1-.372.37H567.085A0.374,0.374,0,0,1,566.713,2929.19Zm8.941,3.79a2.312,2.312,0,1,1-2.312-2.31A2.308,2.308,0,0,1,575.654,2932.98Zm-1.156,0a1.156,1.156,0,1,0-1.156,1.16A1.15,1.15,0,0,0,574.5,2932.98Zm-3.147-2.31h-5.18a0.373,0.373,0,0,0-.371.37v1.13a0.373,0.373,0,0,0,.371.37h4.152A3.065,3.065,0,0,1,571.351,2930.67Zm16.4,2.31a2.312,2.312,0,1,1-2.312-2.31A2.308,2.308,0,0,1,587.749,2932.98Zm-1.156,0a1.156,1.156,0,1,0-1.156,1.16A1.15,1.15,0,0,0,586.593,2932.98Zm5.242-1.94v1.13a0.373,0.373,0,0,1-.371.37h-3.008a3.051,3.051,0,0,0-6.038,0h-6.057a3.055,3.055,0,0,0-1.028-1.87h5.743v-10.62a0.749,0.749,0,0,1,.743-0.75h3.508a3,3,0,0,1,2.463,1.31l2.261,3.35a2.971,2.971,0,0,1,.509,1.66v5.05h0.9A0.373,0.373,0,0,1,591.835,2931.04Zm-3.769-6.99-1.808-2.57a0.368,0.368,0,0,0-.3-0.16h-2.821a0.373,0.373,0,0,0-.371.37v2.57a0.367,0.367,0,0,0,.371.37h4.629A0.368,0.368,0,0,0,588.066,2924.05Z" transform="translate(-565.812 -2917)"/>
</svg>
