<svg xmlns="http://www.w3.org/2000/svg" width="23.157" height="26" viewBox="0 0 23.157 26">
  <metadata><?xpacket begin="﻿" id="W5M0MpCehiHzreSzNTczkc9d"?>
<x:xmpmeta xmlns:x="adobe:ns:meta/" x:xmptk="Adobe XMP Core 5.6-c138 79.159824, 2016/09/14-01:09:01        ">
   <rdf:RDF xmlns:rdf="http://www.w3.org/1999/02/22-rdf-syntax-ns#">
      <rdf:Description rdf:about=""/>
   </rdf:RDF>
</x:xmpmeta>
                                                                                                    
                                                                                                    
                                                                                                    
                                                                                                    
                                                                                                    
                                                                                                    
                                                                                                    
                                                                                                    
                                                                                                    
                                                                                                    
                                                                                                    
                                                                                                    
                                                                                                    
                                                                                                    
                                                                                                    
                                                                                                    
                                                                                                    
                                                                                                    
                                                                                                    
                                                                                                    
                           
<?xpacket end="w"?></metadata>
<defs>
    <style>
      .cls-1 {
        fill: #e20612;
        fill-rule: evenodd;
      }
    </style>
  </defs>
  <path id="brama" class="cls-1" d="M586.127,2864.39h-5.744a2.83,2.83,0,0,0-2.826,2.83v2.09h5.7a3.465,3.465,0,0,1,0,6.93h-5.7v11.33a2.83,2.83,0,0,0,2.826,2.83h5.744a2.83,2.83,0,0,0,2.826-2.83v-20.35A2.83,2.83,0,0,0,586.127,2864.39Zm-1.64,18.43v1.61a1.133,1.133,0,0,1-2.265,0v-1.61A1.89,1.89,0,1,1,584.487,2882.82Zm0.932-10.05a2.163,2.163,0,0,0-2.164-2.16H567.964a2.165,2.165,0,0,0,0,4.33h15.291A2.165,2.165,0,0,0,585.419,2872.77Z" transform="translate(-565.812 -2864.41)"/>
</svg>
