<svg xmlns="http://www.w3.org/2000/svg" width="22" height="20" viewBox="0 0 22 20">
  <metadata><?xpacket begin="﻿" id="W5M0MpCehiHzreSzNTczkc9d"?>
<x:xmpmeta xmlns:x="adobe:ns:meta/" x:xmptk="Adobe XMP Core 5.6-c140 79.160451, 2017/05/06-01:08:21        ">
   <rdf:RDF xmlns:rdf="http://www.w3.org/1999/02/22-rdf-syntax-ns#">
      <rdf:Description rdf:about=""/>
   </rdf:RDF>
</x:xmpmeta>
                                                                                                    
                                                                                                    
                                                                                                    
                                                                                                    
                                                                                                    
                                                                                                    
                                                                                                    
                                                                                                    
                                                                                                    
                                                                                                    
                                                                                                    
                                                                                                    
                                                                                                    
                                                                                                    
                                                                                                    
                                                                                                    
                                                                                                    
                                                                                                    
                                                                                                    
                                                                                                    
                           
<?xpacket end="w"?></metadata>
<defs>
    <style>
      .cls-1 {
        fill: #e20612;
        fill-rule: evenodd;
      }
    </style>
  </defs>
  <path id="rolety_2" class="cls-1" d="M1002,5213H982a1,1,0,0,0-1,1v3a2.985,2.985,0,0,0,2,2.81V5232a1,1,0,0,0,1,1h16a1,1,0,0,0,1-1v-12.19a2.988,2.988,0,0,0,2-2.81v-3A1,1,0,0,0,1002,5213Zm-17,7.5h14v2H985v-2Zm0,4h14v2H985v-2Zm0,4h14v2H985v-2Zm16-11.5a1,1,0,0,1-1,1H984a1,1,0,0,1-1-1v-2h18v2Z" transform="translate(-981 -5213)"/>
</svg>
